EkkamaiVibe-Thin.ufo
<glyph name="exclam" format="2">
  <advance width="215"/>
  <unicode hex="0021"/>
  <outline>
    <contour>
      <point x="87" y="0" type="line"/>
      <point x="87" y="44" type="line"/>
      <point x="130" y="44" type="line"/>
      <point x="130" y="0" type="line"/>
    </contour>
    <contour>
      <point x="96" y="145" type="line"/>
      <point x="96" y="783" type="line"/>
      <point x="119" y="783" type="line"/>
      <point x="119" y="145" type="line"/>
    </contour>
  </outline>
</glyph>
<glyph name="quotedbl" format="2">
  <advance width="263"/>
  <unicode hex="0022"/>
  <outline>
    <contour>
      <point x="46" y="565" type="line"/>
      <point x="46" y="669" type="line"/>
      <point x="62" y="669" type="line"/>
      <point x="62" y="565" type="line"/>
    </contour>
    <contour>
      <point x="174" y="565" type="line"/>
      <point x="174" y="669" type="line"/>
      <point x="190" y="669" type="line"/>
      <point x="190" y="565" type="line"/>
    </contour>
  </outline>
</glyph>
<glyph name="numbersign" format="2">
  <advance width="722"/>
  <unicode hex="0023"/>
  <outline>
    <contour>
      <point x="194" y="241" type="line"/>
      <point x="466" y="241" type="line"/>
      <point x="553" y="502" type="line"/>
      <point x="282" y="502" type="line"/>
    </contour>
    <contour>
      <point x="88" y="0" type="line"/>
      <point x="162" y="217" type="line"/>
      <point x="45" y="217" type="line"/>
      <point x="53" y="241" type="line"/>
      <point x="170" y="241" type="line"/>
      <point x="257" y="502" type="line"/>
      <point x="141" y="502" type="line"/>
      <point x="149" y="524" type="line"/>
      <point x="265" y="524" type="line"/>
      <point x="323" y="697" type="line"/>
      <point x="347" y="697" type="line"/>
      <point x="290" y="524" type="line"/>
      <point x="561" y="524" type="line"/>
      <point x="618" y="696" type="line"/>
      <point x="643" y="696" type="line"/>
      <point x="585" y="524" type="line"/>
      <point x="708" y="524" type="line"/>
      <point x="700" y="502" type="line"/>
      <point x="578" y="502" type="line"/>
      <point x="490" y="241" type="line"/>
      <point x="613" y="241" type="line"/>
      <point x="605" y="217" type="line"/>
      <point x="482" y="217" type="line"/>
      <point x="409" y="0" type="line"/>
      <point x="385" y="0" type="line"/>
      <point x="457" y="217" type="line"/>
      <point x="186" y="217" type="line"/>
      <point x="113" y="0" type="line"/>
    </contour>
  </outline>
</glyph>
<glyph name="dollar" format="2">
  <advance width="623"/>
  <unicode hex="0024"/>
  <outline>
    <contour>
      <point x="65" y="78" type="qcurve"/>
      <point x="82" y="96" type="line"/>
      <point x="102" y="81"/>
      <point x="154" y="60"/>
      <point x="209" y="47"/>
      <point x="264" y="42"/>
      <point x="290" y="42" type="qcurve" smooth="yes"/>
      <point x="317" y="42"/>
      <point x="377" y="47"/>
      <point x="434" y="64"/>
      <point x="486" y="93"/>
      <point x="506" y="117" type="qcurve"/>
      <point x="529" y="142"/>
      <point x="550" y="204"/>
      <point x="550" y="236" type="qcurve" smooth="yes"/>
      <point x="550" y="281"/>
      <point x="504" y="359"/>
      <point x="457" y="372" type="qcurve"/>
      <point x="250" y="423" type="line"/>
      <point x="217" y="432"/>
      <point x="155" y="456"/>
      <point x="108" y="494"/>
      <point x="80" y="548"/>
      <point x="80" y="586" type="qcurve" smooth="yes"/>
      <point x="80" y="632"/>
      <point x="120" y="695"/>
      <point x="183" y="735"/>
      <point x="261" y="755"/>
      <point x="299" y="759" type="qcurve" smooth="yes"/>
      <point x="304" y="760" type="line"/>
      <point x="304" y="840" type="line"/>
      <point x="327" y="840" type="line"/>
      <point x="327" y="759" type="line"/>
      <point x="333" y="759" type="line" smooth="yes"/>
      <point x="356" y="759"/>
      <point x="411" y="755"/>
      <point x="467" y="745"/>
      <point x="519" y="727"/>
      <point x="537" y="713" type="qcurve"/>
      <point x="520" y="697" type="line"/>
      <point x="502" y="710"/>
      <point x="449" y="726"/>
      <point x="392" y="735"/>
      <point x="337" y="739"/>
      <point x="317" y="739" type="qcurve" smooth="yes"/>
      <point x="280" y="739"/>
      <point x="204" y="723"/>
      <point x="142" y="687"/>
      <point x="102" y="627"/>
      <point x="102" y="585" type="qcurve" smooth="yes"/>
      <point x="102" y="550"/>
      <point x="131" y="504"/>
      <point x="175" y="472"/>
      <point x="230" y="452"/>
      <point x="255" y="446" type="qcurve" smooth="yes"/>
      <point x="464" y="393" type="line" smooth="yes"/>
      <point x="490" y="387"/>
      <point x="530" y="355"/>
      <point x="558" y="312"/>
      <point x="572" y="261"/>
      <point x="572" y="234" type="qcurve" smooth="yes"/>
      <point x="572" y="190"/>
      <point x="539" y="116"/>
      <point x="483" y="63"/>
      <point x="408" y="31"/>
      <point x="365" y="25" type="qcurve"/>
      <point x="359" y="23"/>
      <point x="347" y="23"/>
      <point x="340" y="21" type="qcurve" smooth="yes"/>
      <point x="335" y="19"/>
      <point x="332" y="19" type="qcurve"/>
      <point x="327" y="18" type="line"/>
      <point x="327" y="-66" type="line"/>
      <point x="304" y="-66" type="line"/>
      <point x="304" y="19" type="line"/>
      <point x="298" y="19" type="line" smooth="yes"/>
      <point x="292" y="19"/>
      <point x="286" y="19" type="qcurve" smooth="yes"/>
      <point x="275" y="19"/>
      <point x="243" y="22"/>
      <point x="229" y="23" type="qcurve" smooth="yes"/>
      <point x="182" y="28"/>
      <point x="98" y="51"/>
    </contour>
  </outline>
</glyph>
<glyph name="percent" format="2">
  <advance width="349"/>
  <unicode hex="0025"/>
  <outline>
    <contour>
      <point x="231" y="213" type="qcurve" smooth="yes"/>
      <point x="231" y="196"/>
      <point x="255" y="173"/>
      <point x="272" y="173" type="qcurve" smooth="yes"/>
      <point x="290" y="173"/>
      <point x="312" y="199"/>
      <point x="312" y="215" type="qcurve" smooth="yes"/>
      <point x="312" y="233"/>
      <point x="287" y="255"/>
      <point x="270" y="255" type="qcurve" smooth="yes"/>
      <point x="253" y="255"/>
      <point x="231" y="229"/>
    </contour>
    <contour>
      <point x="42" y="463" type="qcurve" smooth="yes"/>
      <point x="42" y="446"/>
      <point x="67" y="422"/>
      <point x="84" y="422" type="qcurve" smooth="yes"/>
      <point x="103" y="422"/>
      <point x="124" y="450"/>
      <point x="124" y="465" type="qcurve" smooth="yes"/>
      <point x="124" y="481"/>
      <point x="99" y="506"/>
      <point x="82" y="506" type="qcurve" smooth="yes"/>
      <point x="65" y="506"/>
      <point x="42" y="478"/>
    </contour>
    <contour>
      <point x="54" y="82" type="line"/>
      <point x="287" y="601" type="line"/>
      <point x="301" y="595" type="line"/>
      <point x="70" y="75" type="line"/>
    </contour>
    <contour>
      <point x="215" y="214" type="qcurve" smooth="yes"/>
      <point x="215" y="237"/>
      <point x="248" y="272"/>
      <point x="271" y="272" type="qcurve" smooth="yes"/>
      <point x="295" y="272"/>
      <point x="329" y="238"/>
      <point x="329" y="214" type="qcurve" smooth="yes"/>
      <point x="329" y="191"/>
      <point x="295" y="155"/>
      <point x="271" y="155" type="qcurve" smooth="yes"/>
      <point x="247" y="155"/>
      <point x="215" y="191"/>
    </contour>
    <contour>
      <point x="27" y="464" type="qcurve" smooth="yes"/>
      <point x="27" y="487"/>
      <point x="60" y="522"/>
      <point x="84" y="522" type="qcurve" smooth="yes"/>
      <point x="108" y="522"/>
      <point x="142" y="488"/>
      <point x="142" y="464" type="qcurve" smooth="yes"/>
      <point x="142" y="441"/>
      <point x="108" y="405"/>
      <point x="83" y="405" type="qcurve" smooth="yes"/>
      <point x="59" y="405"/>
      <point x="27" y="441"/>
    </contour>
  </outline>
</glyph>
<glyph name="ampersand" format="2">
  <advance width="696"/>
  <unicode hex="0026"/>
  <outline>
    <contour>
      <point x="126" y="178" type="qcurve" smooth="yes"/>
      <point x="126" y="136"/>
      <point x="160" y="74"/>
      <point x="216" y="35"/>
      <point x="289" y="16"/>
      <point x="327" y="16" type="qcurve" smooth="yes"/>
      <point x="378" y="16"/>
      <point x="484" y="50"/>
      <point x="521" y="87" type="qcurve" smooth="yes"/>
      <point x="539" y="106" type="line"/>
      <point x="286" y="409" type="line"/>
      <point x="281" y="407" type="line" smooth="yes"/>
      <point x="267" y="401"/>
      <point x="232" y="374"/>
      <point x="221" y="363" type="qcurve" smooth="yes"/>
      <point x="203" y="347"/>
      <point x="168" y="304"/>
      <point x="142" y="256"/>
      <point x="126" y="205"/>
    </contour>
    <contour>
      <point x="203" y="546" type="qcurve"/>
      <point x="288" y="441" type="line"/>
      <point x="293" y="446" type="line" smooth="yes"/>
      <point x="297" y="449"/>
      <point x="304" y="454"/>
      <point x="309" y="457" type="qcurve" smooth="yes"/>
      <point x="314" y="461"/>
      <point x="328" y="471" type="qcurve" smooth="yes"/>
      <point x="344" y="481"/>
      <point x="388" y="513"/>
      <point x="406" y="533" type="qcurve"/>
      <point x="426" y="552"/>
      <point x="451" y="600"/>
      <point x="451" y="629" type="qcurve" smooth="yes"/>
      <point x="451" y="656"/>
      <point x="430" y="707"/>
      <point x="394" y="745"/>
      <point x="344" y="768"/>
      <point x="315" y="768" type="qcurve" smooth="yes"/>
      <point x="285" y="768"/>
      <point x="234" y="744"/>
      <point x="198" y="705"/>
      <point x="177" y="653"/>
      <point x="177" y="625" type="qcurve" smooth="yes"/>
      <point x="177" y="581"/>
    </contour>
    <contour>
      <point x="103" y="180" type="qcurve" smooth="yes"/>
      <point x="103" y="219"/>
      <point x="130" y="290"/>
      <point x="175" y="352"/>
      <point x="233" y="405"/>
      <point x="264" y="426" type="qcurve" smooth="yes"/>
      <point x="270" y="430" type="line"/>
      <point x="185" y="532" type="line" smooth="yes"/>
      <point x="171" y="549"/>
      <point x="153" y="603"/>
      <point x="153" y="628" type="qcurve" smooth="yes"/>
      <point x="153" y="659"/>
      <point x="177" y="719"/>
      <point x="219" y="764"/>
      <point x="278" y="790"/>
      <point x="313" y="790" type="qcurve" smooth="yes"/>
      <point x="347" y="790"/>
      <point x="406" y="765"/>
      <point x="449" y="721"/>
      <point x="474" y="662"/>
      <point x="474" y="629" type="qcurve" smooth="yes"/>
      <point x="474" y="602"/>
      <point x="457" y="559"/>
      <point x="429" y="523"/>
      <point x="392" y="491"/>
      <point x="365" y="470" type="qcurve" smooth="yes"/>
      <point x="357" y="464"/>
      <point x="326" y="441"/>
      <point x="309" y="430" type="qcurve" smooth="yes"/>
      <point x="303" y="426" type="line"/>
      <point x="551" y="127" type="line"/>
      <point x="555" y="136" type="line" smooth="yes"/>
      <point x="568" y="168"/>
      <point x="582" y="230"/>
      <point x="584" y="264" type="qcurve"/>
      <point x="607" y="264" type="line"/>
      <point x="605" y="224"/>
      <point x="589" y="155"/>
      <point x="571" y="119" type="qcurve" smooth="yes"/>
      <point x="566" y="109" type="line"/>
      <point x="640" y="20" type="line"/>
      <point x="611" y="19" type="line"/>
      <point x="552" y="88" type="line"/>
      <point x="547" y="83" type="line" smooth="yes"/>
      <point x="505" y="34"/>
      <point x="396" y="-7"/>
      <point x="332" y="-7" type="qcurve" smooth="yes"/>
      <point x="286" y="-7"/>
      <point x="203" y="15"/>
      <point x="140" y="62"/>
      <point x="103" y="133"/>
    </contour>
  </outline>
</glyph>
<glyph name="quotesingle" format="2">
  <advance width="168"/>
  <unicode hex="0027"/>
  <outline>
    <contour>
      <point x="76" y="565" type="line"/>
      <point x="76" y="669" type="line"/>
      <point x="92" y="669" type="line"/>
      <point x="92" y="565" type="line"/>
    </contour>
  </outline>
</glyph>
<glyph name="parenleft" format="2">
  <advance width="447"/>
  <unicode hex="0028"/>
  <outline>
    <contour>
      <point x="133" y="346" type="qcurve" smooth="yes"/>
      <point x="133" y="440"/>
      <point x="174" y="623"/>
      <point x="220" y="706" type="qcurve" smooth="yes"/>
      <point x="241" y="744"/>
      <point x="293" y="816"/>
      <point x="328" y="842" type="qcurve"/>
      <point x="341" y="821" type="line"/>
      <point x="300" y="791"/>
      <point x="274" y="750" type="qcurve"/>
      <point x="210" y="656"/>
      <point x="156" y="464"/>
      <point x="156" y="353" type="qcurve" smooth="yes"/>
      <point x="156" y="237"/>
      <point x="215" y="22"/>
      <point x="285" y="-71" type="qcurve" smooth="yes"/>
      <point x="298" y="-88"/>
      <point x="324" y="-117"/>
      <point x="341" y="-128" type="qcurve"/>
      <point x="328" y="-147" type="line"/>
      <point x="309" y="-133"/>
      <point x="279" y="-101"/>
      <point x="262" y="-79" type="qcurve" smooth="yes"/>
      <point x="195" y="12"/>
      <point x="133" y="230"/>
    </contour>
  </outline>
</glyph>
<glyph name="parenright" format="2">
  <advance width="498"/>
  <unicode hex="0029"/>
  <outline>
    <contour>
      <point x="139" y="-126" type="line"/>
      <point x="176" y="-97"/>
      <point x="206" y="-55" type="qcurve"/>
      <point x="269" y="39"/>
      <point x="324" y="231"/>
      <point x="324" y="343" type="qcurve" smooth="yes"/>
      <point x="324" y="461"/>
      <point x="264" y="671"/>
      <point x="196" y="763" type="qcurve" smooth="yes"/>
      <point x="181" y="783"/>
      <point x="155" y="811"/>
      <point x="139" y="823" type="qcurve"/>
      <point x="152" y="843" type="line"/>
      <point x="203" y="803"/>
      <point x="277" y="686"/>
      <point x="325" y="554"/>
      <point x="347" y="416"/>
      <point x="347" y="350" type="qcurve" smooth="yes"/>
      <point x="347" y="257"/>
      <point x="307" y="77"/>
      <point x="261" y="-8" type="qcurve" smooth="yes"/>
      <point x="239" y="-49"/>
      <point x="187" y="-119"/>
      <point x="152" y="-146" type="qcurve"/>
    </contour>
  </outline>
</glyph>
<glyph name="asterisk" format="2">
  <advance width="452"/>
  <unicode hex="002A"/>
  <outline>
    <contour>
      <point x="119" y="419" type="line"/>
      <point x="209" y="544" type="line"/>
      <point x="64" y="592" type="line"/>
      <point x="72" y="615" type="line"/>
      <point x="216" y="568" type="line"/>
      <point x="216" y="721" type="line"/>
      <point x="239" y="721" type="line"/>
      <point x="239" y="568" type="line"/>
      <point x="382" y="615" type="line"/>
      <point x="391" y="592" type="line"/>
      <point x="247" y="544" type="line"/>
      <point x="335" y="419" type="line"/>
      <point x="316" y="405" type="line"/>
      <point x="227" y="531" type="line"/>
      <point x="139" y="405" type="line"/>
    </contour>
  </outline>
</glyph>
<glyph name="plus" format="2">
  <advance width="433"/>
  <unicode hex="002B"/>
  <outline>
    <contour>
      <point x="76" y="312" type="line"/>
      <point x="76" y="329" type="line"/>
      <point x="211" y="329" type="line"/>
      <point x="211" y="466" type="line"/>
      <point x="227" y="466" type="line"/>
      <point x="227" y="329" type="line"/>
      <point x="363" y="329" type="line"/>
      <point x="363" y="312" type="line"/>
      <point x="227" y="312" type="line"/>
      <point x="227" y="173" type="line"/>
      <point x="211" y="173" type="line"/>
      <point x="211" y="312" type="line"/>
    </contour>
  </outline>
</glyph>
<glyph name="comma" format="2">
  <advance width="193"/>
  <unicode hex="002C"/>
  <outline>
    <contour>
      <point x="96" y="-144" type="line"/>
      <point x="98" y="-125"/>
      <point x="104" y="-87"/>
      <point x="104" y="-67" type="qcurve" smooth="yes"/>
      <point x="104" y="-40"/>
      <point x="93" y="7"/>
      <point x="77" y="30" type="qcurve"/>
      <point x="94" y="47" type="line"/>
      <point x="113" y="21"/>
      <point x="126" y="-36"/>
      <point x="126" y="-68" type="qcurve" smooth="yes"/>
      <point x="126" y="-88"/>
      <point x="121" y="-127"/>
      <point x="118" y="-147" type="qcurve"/>
    </contour>
  </outline>
</glyph>
<glyph name="hyphen" format="2">
  <advance width="467"/>
  <unicode hex="002D"/>
  <outline>
    <contour>
      <point x="76" y="268" type="line"/>
      <point x="76" y="284" type="line"/>
      <point x="397" y="284" type="line"/>
      <point x="397" y="268" type="line"/>
    </contour>
  </outline>
</glyph>
<glyph name="period" format="2">
  <advance width="192"/>
  <unicode hex="002E"/>
  <outline>
    <contour>
      <point x="76" y="21" type="qcurve" smooth="yes"/>
      <point x="76" y="30"/>
      <point x="88" y="42"/>
      <point x="96" y="42" type="qcurve" smooth="yes"/>
      <point x="105" y="42"/>
      <point x="117" y="31"/>
      <point x="117" y="20" type="qcurve" smooth="yes"/>
      <point x="117" y="0"/>
      <point x="97" y="0" type="qcurve" smooth="yes"/>
      <point x="87" y="0"/>
      <point x="76" y="12"/>
    </contour>
  </outline>
</glyph>
<glyph name="slash" format="2">
  <advance width="376"/>
  <unicode hex="002F"/>
  <outline>
    <contour>
      <point x="50" y="0" type="line"/>
      <point x="314" y="783" type="line"/>
      <point x="338" y="783" type="line"/>
      <point x="75" y="0" type="line"/>
    </contour>
  </outline>
</glyph>
<glyph name="zero" format="2">
  <advance width="664"/>
  <unicode hex="0030"/>
  <outline>
    <contour>
      <point x="119" y="174" type="line" smooth="yes"/>
      <point x="119" y="131"/>
      <point x="160" y="70"/>
      <point x="223" y="31"/>
      <point x="300" y="13"/>
      <point x="338" y="13" type="qcurve" smooth="yes"/>
      <point x="374" y="13"/>
      <point x="452" y="28"/>
      <point x="515" y="66"/>
      <point x="555" y="128"/>
      <point x="555" y="174" type="qcurve" smooth="yes"/>
      <point x="555" y="611" type="line" smooth="yes"/>
      <point x="555" y="630"/>
      <point x="543" y="666"/>
      <point x="532" y="683" type="qcurve" smooth="yes"/>
      <point x="516" y="707"/>
      <point x="472" y="742"/>
      <point x="422" y="762"/>
      <point x="366" y="770"/>
      <point x="337" y="770" type="qcurve" smooth="yes"/>
      <point x="308" y="770"/>
      <point x="252" y="762"/>
      <point x="201" y="742"/>
      <point x="158" y="708"/>
      <point x="142" y="683" type="qcurve" smooth="yes"/>
      <point x="130" y="665"/>
      <point x="119" y="631"/>
      <point x="119" y="611" type="qcurve" smooth="yes"/>
    </contour>
    <contour>
      <point x="96" y="174" type="qcurve" smooth="yes"/>
      <point x="96" y="611" type="line" smooth="yes"/>
      <point x="96" y="628"/>
      <point x="104" y="661"/>
      <point x="111" y="677" type="qcurve" smooth="yes"/>
      <point x="125" y="708"/>
      <point x="172" y="752"/>
      <point x="230" y="780"/>
      <point x="296" y="793"/>
      <point x="332" y="793" type="qcurve" smooth="yes"/>
      <point x="375" y="793"/>
      <point x="413" y="785" type="qcurve" smooth="yes"/>
      <point x="450" y="778"/>
      <point x="507" y="747"/>
      <point x="552" y="701"/>
      <point x="578" y="644"/>
      <point x="578" y="611" type="qcurve" smooth="yes"/>
      <point x="578" y="172" type="line" smooth="yes"/>
      <point x="578" y="124"/>
      <point x="534" y="56"/>
      <point x="464" y="12"/>
      <point x="377" y="-9"/>
      <point x="331" y="-9" type="qcurve" smooth="yes"/>
      <point x="313" y="-9"/>
      <point x="274" y="-6"/>
      <point x="255" y="-1" type="qcurve" smooth="yes"/>
      <point x="223" y="6"/>
      <point x="165" y="38"/>
      <point x="122" y="83"/>
      <point x="96" y="141"/>
    </contour>
  </outline>
</glyph>
<glyph name="one" format="2">
  <advance width="333"/>
  <unicode hex="0031"/>
  <outline>
    <contour>
      <point x="53" y="671" type="qcurve"/>
      <point x="53" y="695" type="line"/>
      <point x="78" y="697"/>
      <point x="126" y="705"/>
      <point x="168" y="725"/>
      <point x="203" y="758"/>
      <point x="213" y="783" type="qcurve"/>
      <point x="241" y="783" type="line"/>
      <point x="241" y="0" type="line"/>
      <point x="218" y="0" type="line"/>
      <point x="218" y="753" type="line"/>
      <point x="208" y="742" type="line" smooth="yes"/>
      <point x="190" y="723"/>
      <point x="157" y="696"/>
      <point x="121" y="680"/>
      <point x="79" y="672"/>
    </contour>
  </outline>
</glyph>
<glyph name="two" format="2">
  <advance width="570"/>
  <unicode hex="0032"/>
  <outline>
    <contour>
      <point x="77" y="0" type="line"/>
      <point x="77" y="24"/>
      <point x="76" y="72"/>
      <point x="76" y="87" type="qcurve" smooth="yes"/>
      <point x="76" y="133"/>
      <point x="102" y="180"/>
      <point x="127" y="207" type="qcurve"/>
      <point x="136" y="215"/>
      <point x="157" y="236" type="qcurve" smooth="yes"/>
      <point x="170" y="249"/>
      <point x="186" y="263"/>
      <point x="204" y="279" type="qcurve" smooth="yes"/>
      <point x="235" y="307"/>
      <point x="318" y="382"/>
      <point x="361" y="419" type="qcurve" smooth="yes"/>
      <point x="380" y="435"/>
      <point x="421" y="471"/>
      <point x="434" y="484" type="qcurve" smooth="yes"/>
      <point x="457" y="506"/>
      <point x="468" y="530" type="qcurve"/>
      <point x="480" y="560"/>
      <point x="480" y="596" type="qcurve" smooth="yes"/>
      <point x="480" y="606"/>
      <point x="479" y="632"/>
      <point x="478" y="642" type="qcurve" smooth="yes"/>
      <point x="473" y="676"/>
      <point x="434" y="723"/>
      <point x="378" y="753"/>
      <point x="315" y="768"/>
      <point x="284" y="768" type="qcurve" smooth="yes"/>
      <point x="239" y="768"/>
      <point x="151" y="738"/>
      <point x="117" y="705" type="qcurve"/>
      <point x="99" y="719" type="line"/>
      <point x="137" y="758"/>
      <point x="233" y="791"/>
      <point x="286" y="791" type="qcurve" smooth="yes"/>
      <point x="315" y="791"/>
      <point x="370" y="780"/>
      <point x="421" y="758"/>
      <point x="464" y="726"/>
      <point x="478" y="705" type="qcurve" smooth="yes"/>
      <point x="493" y="684"/>
      <point x="503" y="637"/>
      <point x="503" y="610" type="qcurve" smooth="yes"/>
      <point x="503" y="573"/>
      <point x="486" y="500"/>
      <point x="455" y="471" type="qcurve"/>
      <point x="208" y="252" type="line" smooth="yes"/>
      <point x="180" y="227"/>
      <point x="160" y="207" type="qcurve" smooth="yes"/>
      <point x="125" y="173"/>
      <point x="99" y="122"/>
      <point x="99" y="79" type="qcurve" smooth="yes"/>
      <point x="99" y="69"/>
      <point x="100" y="44"/>
      <point x="100" y="30" type="qcurve" smooth="yes"/>
      <point x="100" y="24" type="line"/>
      <point x="503" y="24" type="line"/>
      <point x="503" y="0" type="line"/>
    </contour>
  </outline>
</glyph>
<glyph name="three" format="2">
  <advance width="562"/>
  <unicode hex="0033"/>
  <outline>
    <contour>
      <point x="62" y="45" type="qcurve"/>
      <point x="75" y="63" type="line"/>
      <point x="115" y="37"/>
      <point x="209" y="13"/>
      <point x="255" y="13" type="qcurve" smooth="yes"/>
      <point x="283" y="13"/>
      <point x="337" y="22"/>
      <point x="387" y="43"/>
      <point x="432" y="75"/>
      <point x="447" y="96" type="qcurve" smooth="yes"/>
      <point x="463" y="117"/>
      <point x="473" y="162"/>
      <point x="473" y="190" type="qcurve" smooth="yes"/>
      <point x="473" y="215"/>
      <point x="467" y="264"/>
      <point x="451" y="291" type="qcurve" smooth="yes"/>
      <point x="432" y="323"/>
      <point x="378" y="360"/>
      <point x="316" y="377"/>
      <point x="249" y="381"/>
      <point x="216" y="381" type="qcurve"/>
      <point x="216" y="403" type="line"/>
      <point x="245" y="403"/>
      <point x="305" y="406"/>
      <point x="362" y="421"/>
      <point x="413" y="451"/>
      <point x="431" y="477" type="qcurve" smooth="yes"/>
      <point x="452" y="510"/>
      <point x="452" y="547" type="qcurve" smooth="yes"/>
      <point x="452" y="625" type="line" smooth="yes"/>
      <point x="452" y="662"/>
      <point x="415" y="716"/>
      <point x="358" y="752"/>
      <point x="290" y="769"/>
      <point x="257" y="769" type="qcurve" smooth="yes"/>
      <point x="212" y="769"/>
      <point x="124" y="739"/>
      <point x="90" y="706" type="qcurve"/>
      <point x="72" y="720" type="line"/>
      <point x="110" y="759"/>
      <point x="206" y="792"/>
      <point x="260" y="792" type="qcurve" smooth="yes"/>
      <point x="290" y="792"/>
      <point x="347" y="781"/>
      <point x="398" y="759"/>
      <point x="440" y="723"/>
      <point x="454" y="698" type="qcurve" smooth="yes"/>
      <point x="468" y="674"/>
      <point x="476" y="623"/>
      <point x="476" y="596" type="qcurve" smooth="yes"/>
      <point x="476" y="585"/>
      <point x="475" y="560"/>
      <point x="475" y="551" type="qcurve" smooth="yes"/>
      <point x="475" y="496"/>
      <point x="412" y="421"/>
      <point x="365" y="399" type="qcurve" smooth="yes"/>
      <point x="354" y="394" type="line"/>
      <point x="365" y="389" type="line" smooth="yes"/>
      <point x="391" y="377"/>
      <point x="438" y="345"/>
      <point x="474" y="303"/>
      <point x="495" y="252"/>
      <point x="495" y="221" type="qcurve" smooth="yes"/>
      <point x="495" y="172" type="line" smooth="yes"/>
      <point x="495" y="127"/>
      <point x="452" y="59"/>
      <point x="383" y="13"/>
      <point x="299" y="-10"/>
      <point x="254" y="-10" type="qcurve" smooth="yes"/>
      <point x="151" y="-10"/>
    </contour>
  </outline>
</glyph>
<glyph name="four" format="2">
  <advance width="609"/>
  <unicode hex="0034"/>
  <outline>
    <contour>
      <point x="72" y="175" type="line"/>
      <point x="448" y="175" type="line"/>
      <point x="448" y="745" type="line"/>
    </contour>
    <contour>
      <point x="56" y="151" type="line"/>
      <point x="56" y="174" type="line"/>
      <point x="450" y="782" type="line"/>
      <point x="469" y="782" type="line"/>
      <point x="469" y="175" type="line"/>
      <point x="544" y="175" type="line"/>
      <point x="544" y="151" type="line"/>
      <point x="469" y="151" type="line"/>
      <point x="469" y="0" type="line"/>
      <point x="448" y="0" type="line"/>
      <point x="448" y="151" type="line"/>
    </contour>
  </outline>
</glyph>
<glyph name="five" format="2">
  <advance width="596"/>
  <unicode hex="0035"/>
  <outline>
    <contour>
      <point x="82" y="41" type="qcurve"/>
      <point x="94" y="61" type="line"/>
      <point x="137" y="39"/>
      <point x="230" y="15"/>
      <point x="275" y="15" type="qcurve" smooth="yes"/>
      <point x="312" y="15"/>
      <point x="386" y="34"/>
      <point x="447" y="74"/>
      <point x="486" y="134"/>
      <point x="486" y="174" type="qcurve" smooth="yes"/>
      <point x="486" y="298" type="line" smooth="yes"/>
      <point x="486" y="316"/>
      <point x="475" y="352"/>
      <point x="465" y="369" type="qcurve" smooth="yes"/>
      <point x="449" y="395"/>
      <point x="405" y="429"/>
      <point x="354" y="448"/>
      <point x="297" y="456"/>
      <point x="269" y="456" type="qcurve" smooth="yes"/>
      <point x="252" y="456"/>
      <point x="212" y="453"/>
      <point x="172" y="443"/>
      <point x="138" y="423"/>
      <point x="127" y="406" type="qcurve"/>
      <point x="98" y="406" type="line"/>
      <point x="98" y="783" type="line"/>
      <point x="490" y="783" type="line"/>
      <point x="490" y="759" type="line"/>
      <point x="121" y="759" type="line"/>
      <point x="121" y="430" type="line"/>
      <point x="130" y="435" type="line" smooth="yes"/>
      <point x="150" y="447"/>
      <point x="186" y="463"/>
      <point x="222" y="474"/>
      <point x="260" y="479"/>
      <point x="282" y="479" type="qcurve" smooth="yes"/>
      <point x="347" y="479"/>
      <point x="457" y="431"/>
      <point x="487" y="376" type="qcurve" smooth="yes"/>
      <point x="498" y="357"/>
      <point x="509" y="318"/>
      <point x="509" y="298" type="qcurve" smooth="yes"/>
      <point x="509" y="172" type="line" smooth="yes"/>
      <point x="509" y="128"/>
      <point x="467" y="60"/>
      <point x="400" y="14"/>
      <point x="317" y="-9"/>
      <point x="277" y="-9" type="qcurve" smooth="yes"/>
      <point x="255" y="-9"/>
      <point x="203" y="-2"/>
      <point x="150" y="12"/>
      <point x="101" y="30"/>
    </contour>
  </outline>
</glyph>
<glyph name="six" format="2">
  <advance width="644"/>
  <unicode hex="0036"/>
  <outline>
    <contour>
      <point x="119" y="175" type="line" smooth="yes"/>
      <point x="119" y="133"/>
      <point x="160" y="73"/>
      <point x="223" y="34"/>
      <point x="299" y="15"/>
      <point x="335" y="15" type="qcurve" smooth="yes"/>
      <point x="361" y="15"/>
      <point x="423" y="25"/>
      <point x="480" y="49"/>
      <point x="528" y="88"/>
      <point x="541" y="117" type="qcurve" smooth="yes"/>
      <point x="546" y="129"/>
      <point x="555" y="160"/>
      <point x="555" y="175" type="qcurve" smooth="yes"/>
      <point x="555" y="299" type="line" smooth="yes"/>
      <point x="555" y="317"/>
      <point x="543" y="353"/>
      <point x="532" y="370" type="qcurve" smooth="yes"/>
      <point x="516" y="395"/>
      <point x="473" y="430"/>
      <point x="422" y="450"/>
      <point x="366" y="458"/>
      <point x="337" y="458" type="qcurve" smooth="yes"/>
      <point x="307" y="458"/>
      <point x="251" y="450"/>
      <point x="202" y="430"/>
      <point x="159" y="396"/>
      <point x="141" y="370" type="qcurve"/>
      <point x="119" y="335"/>
      <point x="119" y="299" type="qcurve" smooth="yes"/>
    </contour>
    <contour>
      <point x="109" y="113" type="qcurve" smooth="yes"/>
      <point x="96" y="140"/>
      <point x="96" y="175" type="qcurve" smooth="yes"/>
      <point x="96" y="599" type="line" smooth="yes"/>
      <point x="96" y="629"/>
      <point x="108" y="659" type="qcurve" smooth="yes"/>
      <point x="122" y="695"/>
      <point x="174" y="747"/>
      <point x="242" y="779"/>
      <point x="319" y="792"/>
      <point x="357" y="792" type="qcurve" smooth="yes"/>
      <point x="416" y="792"/>
      <point x="523" y="757"/>
      <point x="560" y="714" type="qcurve"/>
      <point x="542" y="701" type="line"/>
      <point x="507" y="741"/>
      <point x="408" y="770"/>
      <point x="357" y="770" type="qcurve" smooth="yes"/>
      <point x="318" y="770"/>
      <point x="234" y="752"/>
      <point x="164" y="712"/>
      <point x="119" y="646"/>
      <point x="119" y="599" type="qcurve" smooth="yes"/>
      <point x="119" y="386" type="line"/>
      <point x="146" y="415" type="line" smooth="yes"/>
      <point x="181" y="452"/>
      <point x="282" y="480"/>
      <point x="335" y="480" type="qcurve" smooth="yes"/>
      <point x="408" y="480"/>
      <point x="530" y="428"/>
      <point x="563" y="365" type="qcurve" smooth="yes"/>
      <point x="573" y="346"/>
      <point x="578" y="316"/>
      <point x="578" y="299" type="qcurve" smooth="yes"/>
      <point x="578" y="174" type="line" smooth="yes"/>
      <point x="578" y="128"/>
      <point x="535" y="60"/>
      <point x="467" y="14"/>
      <point x="382" y="-9"/>
      <point x="338" y="-9" type="qcurve" smooth="yes"/>
      <point x="304" y="-9"/>
      <point x="234" y="4"/>
      <point x="173" y="33"/>
      <point x="124" y="79"/>
    </contour>
  </outline>
</glyph>
<glyph name="seven" format="2">
  <advance width="528"/>
  <unicode hex="0037"/>
  <outline>
    <contour>
      <point x="201" y="0" type="line"/>
      <point x="460" y="758" type="line"/>
      <point x="36" y="758" type="line"/>
      <point x="36" y="783" type="line"/>
      <point x="481" y="783" type="line"/>
      <point x="481" y="748" type="line"/>
      <point x="226" y="0" type="line"/>
    </contour>
  </outline>
</glyph>
<glyph name="eight" format="2">
  <advance width="624"/>
  <unicode hex="0038"/>
  <outline>
    <contour>
      <point x="99" y="175" type="line" smooth="yes"/>
      <point x="99" y="132"/>
      <point x="140" y="71"/>
      <point x="204" y="32"/>
      <point x="281" y="14"/>
      <point x="318" y="14" type="qcurve" smooth="yes"/>
      <point x="349" y="14"/>
      <point x="411" y="25"/>
      <point x="465" y="50"/>
      <point x="509" y="92"/>
      <point x="522" y="123" type="qcurve"/>
      <point x="535" y="149"/>
      <point x="535" y="175" type="qcurve" smooth="yes"/>
      <point x="535" y="222" type="line" smooth="yes"/>
      <point x="535" y="263"/>
      <point x="497" y="324"/>
      <point x="437" y="364"/>
      <point x="364" y="383"/>
      <point x="321" y="383" type="qcurve" smooth="yes"/>
      <point x="302" y="383"/>
      <point x="251" y="381"/>
      <point x="225" y="373" type="qcurve" smooth="yes"/>
      <point x="200" y="365"/>
      <point x="155" y="337"/>
      <point x="120" y="298"/>
      <point x="99" y="250"/>
      <point x="99" y="222" type="qcurve" smooth="yes"/>
    </contour>
    <contour>
      <point x="144" y="476" type="qcurve" smooth="yes"/>
      <point x="169" y="438"/>
      <point x="251" y="401"/>
      <point x="296" y="401" type="qcurve" smooth="yes"/>
      <point x="339" y="401" type="line" smooth="yes"/>
      <point x="370" y="401"/>
      <point x="432" y="421"/>
      <point x="483" y="459"/>
      <point x="515" y="513"/>
      <point x="515" y="547" type="qcurve" smooth="yes"/>
      <point x="515" y="625" type="line" smooth="yes"/>
      <point x="515" y="644"/>
      <point x="504" y="676"/>
      <point x="494" y="692" type="qcurve" smooth="yes"/>
      <point x="479" y="714"/>
      <point x="440" y="745"/>
      <point x="395" y="763"/>
      <point x="345" y="770"/>
      <point x="320" y="770" type="qcurve" smooth="yes"/>
      <point x="265" y="770"/>
      <point x="170" y="737"/>
      <point x="139" y="689" type="qcurve"/>
      <point x="119" y="662"/>
      <point x="119" y="625" type="qcurve" smooth="yes"/>
      <point x="119" y="547" type="line" smooth="yes"/>
      <point x="119" y="527"/>
      <point x="133" y="492"/>
    </contour>
    <contour>
      <point x="81" y="143" type="qcurve" smooth="yes"/>
      <point x="78" y="154"/>
      <point x="76" y="172"/>
      <point x="76" y="182" type="qcurve"/>
      <point x="75" y="189"/>
      <point x="75" y="195" type="qcurve" smooth="yes"/>
      <point x="75" y="199"/>
      <point x="76" y="212"/>
      <point x="76" y="220" type="qcurve" smooth="yes"/>
      <point x="76" y="252"/>
      <point x="97" y="302"/>
      <point x="132" y="344"/>
      <point x="178" y="377"/>
      <point x="203" y="389" type="qcurve" smooth="yes"/>
      <point x="213" y="394" type="line"/>
      <point x="186" y="408" type="line" smooth="yes"/>
      <point x="145" y="430"/>
      <point x="96" y="502"/>
      <point x="96" y="547" type="qcurve" smooth="yes"/>
      <point x="96" y="626" type="line" smooth="yes"/>
      <point x="96" y="643"/>
      <point x="103" y="669"/>
      <point x="111" y="685" type="qcurve" smooth="yes"/>
      <point x="141" y="744"/>
      <point x="244" y="794"/>
      <point x="313" y="794" type="qcurve" smooth="yes"/>
      <point x="345" y="794"/>
      <point x="409" y="783"/>
      <point x="464" y="757"/>
      <point x="509" y="715"/>
      <point x="524" y="684" type="qcurve" smooth="yes"/>
      <point x="530" y="670"/>
      <point x="538" y="643"/>
      <point x="538" y="628" type="qcurve" smooth="yes"/>
      <point x="538" y="544" type="line" smooth="yes"/>
      <point x="538" y="501"/>
      <point x="487" y="430"/>
      <point x="449" y="408" type="qcurve" smooth="yes"/>
      <point x="421" y="392" type="line"/>
      <point x="432" y="388" type="line" smooth="yes"/>
      <point x="449" y="380"/>
      <point x="478" y="366"/>
      <point x="493" y="353" type="qcurve" smooth="yes"/>
      <point x="521" y="328"/>
      <point x="558" y="261"/>
      <point x="558" y="223" type="qcurve" smooth="yes"/>
      <point x="558" y="172" type="line" smooth="yes"/>
      <point x="558" y="138"/>
      <point x="541" y="104" type="qcurve" smooth="yes"/>
      <point x="511" y="45"/>
      <point x="390" y="-10"/>
      <point x="321" y="-10" type="qcurve" smooth="yes"/>
      <point x="281" y="-10"/>
      <point x="203" y="7"/>
      <point x="139" y="45"/>
      <point x="92" y="103"/>
    </contour>
  </outline>
</glyph>
<glyph name="nine" format="2">
  <advance width="644"/>
  <unicode hex="0039"/>
  <outline>
    <contour>
      <point x="122" y="413" type="qcurve" smooth="yes"/>
      <point x="138" y="387"/>
      <point x="182" y="353"/>
      <point x="232" y="333"/>
      <point x="287" y="325"/>
      <point x="316" y="325" type="qcurve" smooth="yes"/>
      <point x="377" y="325"/>
      <point x="478" y="361"/>
      <point x="511" y="410" type="qcurve" smooth="yes"/>
      <point x="535" y="446"/>
      <point x="535" y="484" type="qcurve" smooth="yes"/>
      <point x="535" y="608" type="line" smooth="yes"/>
      <point x="535" y="637"/>
      <point x="513" y="685"/>
      <point x="477" y="722"/>
      <point x="430" y="749"/>
      <point x="402" y="757" type="qcurve" smooth="yes"/>
      <point x="388" y="761"/>
      <point x="355" y="768"/>
      <point x="334" y="768" type="qcurve" smooth="yes"/>
      <point x="307" y="768"/>
      <point x="237" y="759"/>
      <point x="172" y="733"/>
      <point x="121" y="690"/>
      <point x="110" y="654" type="qcurve"/>
      <point x="108" y="650"/>
      <point x="105" y="640"/>
      <point x="103" y="636" type="qcurve" smooth="yes"/>
      <point x="101" y="630"/>
      <point x="99" y="618"/>
      <point x="99" y="612" type="qcurve" smooth="yes"/>
      <point x="99" y="484" type="line" smooth="yes"/>
      <point x="99" y="466"/>
      <point x="111" y="430"/>
    </contour>
    <contour>
      <point x="94" y="69" type="qcurve"/>
      <point x="112" y="82" type="line"/>
      <point x="147" y="42"/>
      <point x="248" y="13"/>
      <point x="298" y="13" type="qcurve" smooth="yes"/>
      <point x="337" y="13"/>
      <point x="421" y="32"/>
      <point x="490" y="72"/>
      <point x="535" y="138"/>
      <point x="535" y="184" type="qcurve" smooth="yes"/>
      <point x="535" y="397" type="line"/>
      <point x="508" y="368" type="line" smooth="yes"/>
      <point x="473" y="331"/>
      <point x="371" y="303"/>
      <point x="319" y="303" type="qcurve" smooth="yes"/>
      <point x="284" y="303"/>
      <point x="215" y="315"/>
      <point x="155" y="343"/>
      <point x="107" y="389"/>
      <point x="91" y="419" type="qcurve" smooth="yes"/>
      <point x="81" y="437"/>
      <point x="76" y="467"/>
      <point x="76" y="484" type="qcurve" smooth="yes"/>
      <point x="76" y="609" type="line" smooth="yes"/>
      <point x="76" y="654"/>
      <point x="119" y="723"/>
      <point x="187" y="769"/>
      <point x="272" y="792"/>
      <point x="316" y="792" type="qcurve" smooth="yes"/>
      <point x="356" y="792"/>
      <point x="394" y="784" type="qcurve" smooth="yes"/>
      <point x="430" y="776"/>
      <point x="488" y="745"/>
      <point x="532" y="699"/>
      <point x="558" y="641"/>
      <point x="558" y="608" type="qcurve" smooth="yes"/>
      <point x="558" y="184" type="line" smooth="yes"/>
      <point x="558" y="154"/>
      <point x="546" y="124" type="qcurve" smooth="yes"/>
      <point x="532" y="87"/>
      <point x="479" y="36"/>
      <point x="412" y="4"/>
      <point x="335" y="-9"/>
      <point x="298" y="-9" type="qcurve" smooth="yes"/>
      <point x="238" y="-9"/>
      <point x="132" y="26"/>
    </contour>
  </outline>
</glyph>
<glyph name="colon" format="2">
  <advance width="192"/>
  <unicode hex="003A"/>
  <outline>
    <contour>
      <point x="76" y="149" type="qcurve" smooth="yes"/>
      <point x="76" y="159"/>
      <point x="88" y="171"/>
      <point x="96" y="171" type="qcurve" smooth="yes"/>
      <point x="105" y="171"/>
      <point x="117" y="159"/>
      <point x="117" y="149" type="qcurve" smooth="yes"/>
      <point x="117" y="140"/>
      <point x="105" y="128"/>
      <point x="96" y="128" type="qcurve" smooth="yes"/>
      <point x="88" y="128"/>
      <point x="76" y="140"/>
    </contour>
    <contour>
      <point x="76" y="459" type="qcurve" smooth="yes"/>
      <point x="76" y="467"/>
      <point x="88" y="479"/>
      <point x="96" y="479" type="qcurve" smooth="yes"/>
      <point x="105" y="479"/>
      <point x="117" y="468"/>
      <point x="117" y="458" type="qcurve" smooth="yes"/>
      <point x="117" y="438"/>
      <point x="97" y="438" type="qcurve" smooth="yes"/>
      <point x="87" y="438"/>
      <point x="76" y="450"/>
    </contour>
  </outline>
</glyph>
<glyph name="semicolon" format="2">
  <advance width="193"/>
  <unicode hex="003B"/>
  <outline>
    <contour>
      <point x="95" y="16" type="line"/>
      <point x="97" y="36"/>
      <point x="103" y="75"/>
      <point x="103" y="94" type="qcurve" smooth="yes"/>
      <point x="103" y="121"/>
      <point x="91" y="169"/>
      <point x="76" y="190" type="qcurve"/>
      <point x="93" y="207" type="line"/>
      <point x="112" y="182"/>
      <point x="125" y="125"/>
      <point x="125" y="93" type="qcurve" smooth="yes"/>
      <point x="125" y="73"/>
      <point x="120" y="33"/>
      <point x="117" y="13" type="qcurve"/>
    </contour>
    <contour>
      <point x="76" y="458" type="qcurve" smooth="yes"/>
      <point x="76" y="468"/>
      <point x="88" y="479"/>
      <point x="97" y="479" type="qcurve" smooth="yes"/>
      <point x="105" y="479"/>
      <point x="117" y="467"/>
      <point x="117" y="459" type="qcurve" smooth="yes"/>
      <point x="117" y="450"/>
      <point x="106" y="438"/>
      <point x="96" y="438" type="qcurve" smooth="yes"/>
      <point x="76" y="438"/>
    </contour>
  </outline>
</glyph>
<glyph name="less" format="2">
  <advance width="375"/>
  <unicode hex="003C"/>
  <outline>
    <contour>
      <point x="82" y="316" type="line"/>
      <point x="286" y="523" type="line"/>
      <point x="298" y="511" type="line"/>
      <point x="107" y="316" type="line"/>
      <point x="298" y="120" type="line"/>
      <point x="286" y="108" type="line"/>
    </contour>
  </outline>
</glyph>
<glyph name="equal" format="2">
  <advance width="433"/>
  <unicode hex="003D"/>
  <outline>
    <contour>
      <point x="76" y="239" type="line"/>
      <point x="76" y="256" type="line"/>
      <point x="363" y="256" type="line"/>
      <point x="363" y="239" type="line"/>
    </contour>
    <contour>
      <point x="76" y="363" type="line"/>
      <point x="76" y="380" type="line"/>
      <point x="363" y="380" type="line"/>
      <point x="363" y="363" type="line"/>
    </contour>
  </outline>
</glyph>
<glyph name="greater" format="2">
  <advance width="375"/>
  <unicode hex="003E"/>
  <outline>
    <contour>
      <point x="82" y="120" type="line"/>
      <point x="273" y="316" type="line"/>
      <point x="82" y="511" type="line"/>
      <point x="94" y="523" type="line"/>
      <point x="298" y="316" type="line"/>
      <point x="94" y="108" type="line"/>
    </contour>
  </outline>
</glyph>
<glyph name="question" format="2">
  <advance width="472"/>
  <unicode hex="003F"/>
  <outline>
    <contour>
      <point x="206" y="0" type="line"/>
      <point x="206" y="44" type="line"/>
      <point x="250" y="44" type="line"/>
      <point x="250" y="0" type="line"/>
    </contour>
    <contour>
      <point x="36" y="606" type="line"/>
      <point x="39" y="643"/>
      <point x="71" y="709"/>
      <point x="122" y="758"/>
      <point x="189" y="787"/>
      <point x="229" y="787" type="qcurve" smooth="yes"/>
      <point x="270" y="787"/>
      <point x="340" y="756"/>
      <point x="392" y="702"/>
      <point x="421" y="630"/>
      <point x="421" y="590" type="qcurve" smooth="yes"/>
      <point x="421" y="536"/>
      <point x="371" y="457"/>
      <point x="331" y="421" type="qcurve" smooth="yes"/>
      <point x="325" y="415"/>
      <point x="313" y="404"/>
      <point x="308" y="399" type="qcurve" smooth="yes"/>
      <point x="276" y="367"/>
      <point x="241" y="292"/>
      <point x="241" y="245" type="qcurve" smooth="yes"/>
      <point x="241" y="148" type="line"/>
      <point x="217" y="148" type="line"/>
      <point x="217" y="245" type="line" smooth="yes"/>
      <point x="217" y="291"/>
      <point x="258" y="387"/>
      <point x="294" y="419" type="qcurve" smooth="yes"/>
      <point x="298" y="423"/>
      <point x="312" y="435"/>
      <point x="317" y="439" type="qcurve" smooth="yes"/>
      <point x="354" y="468"/>
      <point x="399" y="545"/>
      <point x="399" y="590" type="qcurve" smooth="yes"/>
      <point x="399" y="624"/>
      <point x="373" y="687"/>
      <point x="327" y="735"/>
      <point x="264" y="764"/>
      <point x="228" y="764" type="qcurve" smooth="yes"/>
      <point x="194" y="764"/>
      <point x="135" y="739"/>
      <point x="90" y="695"/>
      <point x="62" y="638"/>
      <point x="59" y="606" type="qcurve"/>
    </contour>
  </outline>
</glyph>
<glyph name="at" format="2">
  <advance width="956"/>
  <unicode hex="0040"/>
  <outline>
    <contour>
      <point x="370" y="188" type="qcurve" smooth="yes"/>
      <point x="370" y="148"/>
      <point x="418" y="95"/>
      <point x="465" y="95" type="qcurve" smooth="yes"/>
      <point x="503" y="95"/>
      <point x="580" y="124"/>
      <point x="617" y="141" type="qcurve" smooth="yes"/>
      <point x="623" y="143" type="line"/>
      <point x="620" y="148" type="line" smooth="yes"/>
      <point x="606" y="180"/>
      <point x="601" y="242"/>
      <point x="601" y="277" type="qcurve" smooth="yes"/>
      <point x="601" y="283" type="line"/>
      <point x="490" y="283" type="line" smooth="yes"/>
      <point x="467" y="283"/>
      <point x="424" y="273"/>
      <point x="390" y="251"/>
      <point x="370" y="214"/>
    </contour>
    <contour>
      <point x="107" y="276" type="qcurve" smooth="yes"/>
      <point x="107" y="355"/>
      <point x="165" y="496"/>
      <point x="267" y="603"/>
      <point x="407" y="666"/>
      <point x="490" y="666" type="qcurve" smooth="yes"/>
      <point x="575" y="666"/>
      <point x="716" y="601"/>
      <point x="816" y="490"/>
      <point x="871" y="344"/>
      <point x="871" y="266" type="qcurve" smooth="yes"/>
      <point x="871" y="230"/>
      <point x="858" y="167"/>
      <point x="828" y="118"/>
      <point x="777" y="87"/>
      <point x="737" y="87" type="qcurve" smooth="yes"/>
      <point x="707" y="87"/>
      <point x="667" y="103"/>
      <point x="642" y="121" type="qcurve"/>
      <point x="639" y="122" type="line"/>
      <point x="636" y="122" type="line"/>
      <point x="624" y="118"/>
      <point x="600" y="107"/>
      <point x="592" y="104" type="qcurve" smooth="yes"/>
      <point x="557" y="88"/>
      <point x="494" y="71"/>
      <point x="463" y="71" type="qcurve" smooth="yes"/>
      <point x="407" y="71"/>
      <point x="347" y="137"/>
      <point x="347" y="189" type="qcurve" smooth="yes"/>
      <point x="347" y="227"/>
      <point x="376" y="274"/>
      <point x="422" y="299"/>
      <point x="481" y="307"/>
      <point x="512" y="308" type="qcurve"/>
      <point x="533" y="308"/>
      <point x="576" y="307"/>
      <point x="595" y="307" type="qcurve" smooth="yes"/>
      <point x="601" y="307" type="line"/>
      <point x="601" y="395" type="line"/>
      <point x="598" y="395" type="line"/>
      <point x="593" y="412"/>
      <point x="568" y="434"/>
      <point x="537" y="447"/>
      <point x="504" y="452"/>
      <point x="487" y="452" type="qcurve" smooth="yes"/>
      <point x="479" y="452"/>
      <point x="452" y="451"/>
      <point x="424" y="448"/>
      <point x="397" y="442"/>
      <point x="387" y="436" type="qcurve"/>
      <point x="369" y="453" type="line"/>
      <point x="392" y="467"/>
      <point x="450" y="476"/>
      <point x="478" y="476" type="qcurve" smooth="yes"/>
      <point x="496" y="476"/>
      <point x="534" y="473"/>
      <point x="568" y="462"/>
      <point x="598" y="443"/>
      <point x="608" y="427" type="qcurve" smooth="yes"/>
      <point x="621" y="407"/>
      <point x="625" y="352"/>
      <point x="625" y="325" type="qcurve" smooth="yes"/>
      <point x="625" y="305"/>
      <point x="623" y="262"/>
      <point x="623" y="246" type="qcurve" smooth="yes"/>
      <point x="623" y="179"/>
      <point x="677" y="112"/>
      <point x="739" y="112" type="qcurve" smooth="yes"/>
      <point x="776" y="112"/>
      <point x="817" y="141"/>
      <point x="840" y="186"/>
      <point x="849" y="238"/>
      <point x="849" y="266" type="qcurve" smooth="yes"/>
      <point x="849" y="339"/>
      <point x="797" y="477"/>
      <point x="702" y="581"/>
      <point x="569" y="643"/>
      <point x="489" y="643" type="qcurve" smooth="yes"/>
      <point x="411" y="643"/>
      <point x="280" y="583"/>
      <point x="184" y="482"/>
      <point x="130" y="349"/>
      <point x="130" y="277" type="qcurve" smooth="yes"/>
      <point x="130" y="205"/>
      <point x="184" y="72"/>
      <point x="279" y="-28"/>
      <point x="410" y="-88"/>
      <point x="485" y="-88" type="qcurve" smooth="yes"/>
      <point x="524" y="-88"/>
      <point x="597" y="-72"/>
      <point x="632" y="-58" type="qcurve"/>
      <point x="634" y="-63"/>
      <point x="639" y="-72"/>
      <point x="642" y="-77" type="qcurve"/>
      <point x="568" y="-111"/>
      <point x="487" y="-111" type="qcurve" smooth="yes"/>
      <point x="407" y="-111"/>
      <point x="268" y="-48"/>
      <point x="165" y="58"/>
      <point x="107" y="198"/>
    </contour>
  </outline>
</glyph>
<glyph name="A" format="2">
  <advance width="679"/>
  <unicode hex="0041"/>
  <outline>
    <contour>
      <point x="195" y="333" type="line"/>
      <point x="495" y="333" type="line"/>
      <point x="345" y="778" type="line"/>
    </contour>
    <contour>
      <point x="54" y="0" type="line"/>
      <point x="327" y="783" type="line"/>
      <point x="363" y="783" type="line"/>
      <point x="637" y="0" type="line"/>
      <point x="612" y="0" type="line"/>
      <point x="504" y="310" type="line"/>
      <point x="187" y="310" type="line"/>
      <point x="79" y="0" type="line"/>
    </contour>
  </outline>
</glyph>
<glyph name="B" format="2">
  <advance width="649"/>
  <unicode hex="0042"/>
  <outline>
    <contour>
      <point x="131" y="23" type="line"/>
      <point x="444" y="23" type="line" smooth="yes"/>
      <point x="469" y="23"/>
      <point x="490" y="35" type="qcurve"/>
      <point x="514" y="47"/>
      <point x="544" y="85"/>
      <point x="561" y="129"/>
      <point x="568" y="177"/>
      <point x="568" y="200" type="qcurve" smooth="yes"/>
      <point x="568" y="241"/>
      <point x="545" y="323"/>
      <point x="512" y="350" type="qcurve"/>
      <point x="498" y="363"/>
      <point x="463" y="379"/>
      <point x="444" y="379" type="qcurve" smooth="yes"/>
      <point x="131" y="379" type="line"/>
    </contour>
    <contour>
      <point x="131" y="403" type="line"/>
      <point x="416" y="403" type="line" smooth="yes"/>
      <point x="451" y="403"/>
      <point x="498" y="440"/>
      <point x="527" y="494"/>
      <point x="540" y="556"/>
      <point x="540" y="582" type="qcurve" smooth="yes"/>
      <point x="540" y="608"/>
      <point x="527" y="670"/>
      <point x="498" y="723"/>
      <point x="450" y="759"/>
      <point x="415" y="759" type="qcurve" smooth="yes"/>
      <point x="131" y="759" type="line"/>
    </contour>
    <contour>
      <point x="108" y="0" type="line"/>
      <point x="108" y="783" type="line"/>
      <point x="416" y="783" type="line" smooth="yes"/>
      <point x="446" y="783"/>
      <point x="493" y="758"/>
      <point x="529" y="717"/>
      <point x="552" y="665"/>
      <point x="557" y="637" type="qcurve" smooth="yes"/>
      <point x="560" y="622"/>
      <point x="562" y="592"/>
      <point x="562" y="578" type="qcurve" smooth="yes"/>
      <point x="562" y="530"/>
      <point x="535" y="443"/>
      <point x="499" y="412" type="qcurve" smooth="yes"/>
      <point x="481" y="397" type="line"/>
      <point x="488" y="393" type="line" smooth="yes"/>
      <point x="496" y="388"/>
      <point x="511" y="381"/>
      <point x="518" y="376" type="qcurve" smooth="yes"/>
      <point x="525" y="371"/>
      <point x="537" y="360"/>
      <point x="543" y="353" type="qcurve" smooth="yes"/>
      <point x="570" y="320"/>
      <point x="590" y="240"/>
      <point x="590" y="198" type="qcurve" smooth="yes"/>
      <point x="590" y="145"/>
      <point x="559" y="55"/>
      <point x="514" y="24" type="qcurve"/>
      <point x="483" y="0"/>
      <point x="445" y="0" type="qcurve" smooth="yes"/>
    </contour>
  </outline>
</glyph>
<glyph name="C" format="2">
  <advance width="638"/>
  <unicode hex="0043"/>
  <outline>
    <contour>
      <point x="58" y="389" type="qcurve" smooth="yes"/>
      <point x="58" y="469"/>
      <point x="74" y="614"/>
      <point x="131" y="726"/>
      <point x="242" y="793"/>
      <point x="337" y="793" type="qcurve" smooth="yes"/>
      <point x="371" y="793"/>
      <point x="441" y="784"/>
      <point x="506" y="762"/>
      <point x="562" y="726"/>
      <point x="581" y="699" type="qcurve"/>
      <point x="561" y="685" type="line"/>
      <point x="542" y="710"/>
      <point x="489" y="743"/>
      <point x="430" y="762"/>
      <point x="368" y="770"/>
      <point x="337" y="770" type="qcurve" smooth="yes"/>
      <point x="246" y="770"/>
      <point x="142" y="703"/>
      <point x="92" y="595"/>
      <point x="81" y="460"/>
      <point x="81" y="391" type="qcurve" smooth="yes"/>
      <point x="81" y="322"/>
      <point x="92" y="187"/>
      <point x="142" y="79"/>
      <point x="246" y="13"/>
      <point x="338" y="13" type="qcurve" smooth="yes"/>
      <point x="367" y="13"/>
      <point x="430" y="20"/>
      <point x="490" y="39"/>
      <point x="543" y="72"/>
      <point x="562" y="97" type="qcurve"/>
      <point x="581" y="84" type="line"/>
      <point x="563" y="57"/>
      <point x="506" y="21"/>
      <point x="440" y="-1"/>
      <point x="370" y="-10"/>
      <point x="337" y="-10" type="qcurve" smooth="yes"/>
      <point x="274" y="-10"/>
      <point x="183" y="21"/>
      <point x="121" y="75"/>
      <point x="83" y="150"/>
      <point x="64" y="239"/>
      <point x="58" y="339"/>
    </contour>
  </outline>
</glyph>
<glyph name="D" format="2">
  <advance width="654"/>
  <unicode hex="0044"/>
  <outline>
    <contour>
      <point x="111" y="24" type="line"/>
      <point x="307" y="24" type="line" smooth="yes"/>
      <point x="399" y="24"/>
      <point x="502" y="87"/>
      <point x="553" y="190"/>
      <point x="564" y="322"/>
      <point x="564" y="393" type="qcurve" smooth="yes"/>
      <point x="564" y="437"/>
      <point x="560" y="528"/>
      <point x="544" y="610"/>
      <point x="511" y="679"/>
      <point x="454" y="730"/>
      <point x="368" y="759"/>
      <point x="307" y="759" type="qcurve" smooth="yes"/>
      <point x="111" y="759" type="line"/>
    </contour>
    <contour>
      <point x="88" y="0" type="line"/>
      <point x="88" y="783" type="line"/>
      <point x="307" y="783" type="line" smooth="yes"/>
      <point x="403" y="783"/>
      <point x="514" y="719"/>
      <point x="571" y="611"/>
      <point x="587" y="469"/>
      <point x="587" y="391" type="qcurve" smooth="yes"/>
      <point x="587" y="313"/>
      <point x="571" y="171"/>
      <point x="514" y="63"/>
      <point x="403" y="0"/>
      <point x="307" y="0" type="qcurve" smooth="yes"/>
    </contour>
  </outline>
</glyph>
<glyph name="E" format="2">
  <advance width="622"/>
  <unicode hex="0045"/>
  <outline>
    <contour>
      <point x="108" y="0" type="line"/>
      <point x="108" y="783" type="line"/>
      <point x="563" y="783" type="line"/>
      <point x="563" y="759" type="line"/>
      <point x="131" y="759" type="line"/>
      <point x="131" y="403" type="line"/>
      <point x="529" y="403" type="line"/>
      <point x="529" y="381" type="line"/>
      <point x="131" y="381" type="line"/>
      <point x="131" y="24" type="line"/>
      <point x="563" y="24" type="line"/>
      <point x="563" y="0" type="line"/>
    </contour>
  </outline>
</glyph>
<glyph name="F" format="2">
  <advance width="622"/>
  <unicode hex="0046"/>
  <outline>
    <contour>
      <point x="108" y="0" type="line"/>
      <point x="108" y="783" type="line"/>
      <point x="563" y="783" type="line"/>
      <point x="563" y="759" type="line"/>
      <point x="131" y="759" type="line"/>
      <point x="131" y="403" type="line"/>
      <point x="529" y="403" type="line"/>
      <point x="529" y="381" type="line"/>
      <point x="131" y="381" type="line"/>
      <point x="131" y="0" type="line"/>
    </contour>
  </outline>
</glyph>
<glyph name="G" format="2">
  <advance width="675"/>
  <unicode hex="0047"/>
  <outline>
    <contour>
      <point x="67" y="392" type="qcurve" smooth="yes"/>
      <point x="67" y="470"/>
      <point x="81" y="615"/>
      <point x="137" y="726"/>
      <point x="249" y="791"/>
      <point x="345" y="791" type="qcurve" smooth="yes"/>
      <point x="380" y="791"/>
      <point x="450" y="782"/>
      <point x="514" y="760"/>
      <point x="570" y="724"/>
      <point x="590" y="697" type="qcurve"/>
      <point x="571" y="684" type="line"/>
      <point x="552" y="709"/>
      <point x="499" y="742"/>
      <point x="439" y="761"/>
      <point x="376" y="768"/>
      <point x="346" y="768" type="qcurve" smooth="yes"/>
      <point x="255" y="768"/>
      <point x="151" y="706"/>
      <point x="101" y="603"/>
      <point x="90" y="471"/>
      <point x="90" y="397" type="qcurve" smooth="yes"/>
      <point x="90" y="355"/>
      <point x="93" y="262"/>
      <point x="108" y="175"/>
      <point x="140" y="100"/>
      <point x="197" y="44"/>
      <point x="284" y="12"/>
      <point x="347" y="12" type="qcurve" smooth="yes"/>
      <point x="431" y="12"/>
      <point x="532" y="68"/>
      <point x="586" y="163"/>
      <point x="603" y="287"/>
      <point x="603" y="355" type="qcurve" smooth="yes"/>
      <point x="603" y="362" type="line"/>
      <point x="356" y="362" type="line"/>
      <point x="356" y="385" type="line"/>
      <point x="626" y="385" type="line"/>
      <point x="626" y="308"/>
      <point x="610" y="165"/>
      <point x="553" y="55"/>
      <point x="442" y="-11"/>
      <point x="347" y="-11" type="qcurve" smooth="yes"/>
      <point x="251" y="-11"/>
      <point x="140" y="56"/>
      <point x="83" y="168"/>
      <point x="67" y="312"/>
    </contour>
  </outline>
</glyph>
<glyph name="H" format="2">
  <advance width="688"/>
  <unicode hex="0048"/>
  <outline>
    <contour>
      <point x="108" y="0" type="line"/>
      <point x="108" y="783" type="line"/>
      <point x="131" y="783" type="line"/>
      <point x="131" y="403" type="line"/>
      <point x="567" y="403" type="line"/>
      <point x="567" y="783" type="line"/>
      <point x="590" y="783" type="line"/>
      <point x="590" y="0" type="line"/>
      <point x="567" y="0" type="line"/>
      <point x="567" y="381" type="line"/>
      <point x="131" y="381" type="line"/>
      <point x="131" y="0" type="line"/>
    </contour>
  </outline>
</glyph>
<glyph name="J" format="2">
  <advance width="384"/>
  <unicode hex="004A"/>
  <outline>
    <contour>
      <point x="7" y="0" type="qcurve"/>
      <point x="14" y="26" type="line"/>
      <point x="31" y="24"/>
      <point x="67" y="17"/>
      <point x="87" y="17" type="qcurve" smooth="yes"/>
      <point x="121" y="17"/>
      <point x="184" y="34"/>
      <point x="231" y="71"/>
      <point x="259" y="127"/>
      <point x="259" y="166" type="qcurve" smooth="yes"/>
      <point x="259" y="783" type="line"/>
      <point x="282" y="783" type="line"/>
      <point x="282" y="157" type="line" smooth="yes"/>
      <point x="282" y="116"/>
      <point x="249" y="55"/>
      <point x="195" y="14"/>
      <point x="124" y="-6"/>
      <point x="81" y="-6" type="qcurve" smooth="yes"/>
      <point x="65" y="-6"/>
      <point x="26" y="-4"/>
    </contour>
  </outline>
</glyph>
<glyph name="K" format="2">
  <advance width="654"/>
  <unicode hex="004B"/>
  <outline>
    <contour>
      <point x="108" y="0" type="line"/>
      <point x="108" y="783" type="line"/>
      <point x="131" y="783" type="line"/>
      <point x="131" y="345" type="line"/>
      <point x="561" y="783" type="line"/>
      <point x="595" y="783" type="line"/>
      <point x="266" y="450" type="line"/>
      <point x="596" y="0" type="line"/>
      <point x="566" y="0" type="line"/>
      <point x="251" y="434" type="line"/>
      <point x="131" y="312" type="line"/>
      <point x="131" y="0" type="line"/>
    </contour>
  </outline>
</glyph>
<glyph name="L" format="2">
  <advance width="602"/>
  <unicode hex="004C"/>
  <outline>
    <contour>
      <point x="108" y="0" type="line"/>
      <point x="108" y="783" type="line"/>
      <point x="131" y="783" type="line"/>
      <point x="131" y="24" type="line"/>
      <point x="563" y="24" type="line"/>
      <point x="563" y="0" type="line"/>
    </contour>
  </outline>
</glyph>
<glyph name="M" format="2">
  <advance width="796"/>
  <unicode hex="004D"/>
  <outline>
    <contour>
      <point x="108" y="0" type="line"/>
      <point x="108" y="783" type="line"/>
      <point x="138" y="783" type="line"/>
      <point x="404" y="16" type="line"/>
      <point x="670" y="783" type="line"/>
      <point x="700" y="783" type="line"/>
      <point x="700" y="0" type="line"/>
      <point x="677" y="0" type="line"/>
      <point x="677" y="734" type="line"/>
      <point x="418" y="0" type="line"/>
      <point x="390" y="0" type="line"/>
      <point x="131" y="734" type="line"/>
      <point x="131" y="0" type="line"/>
    </contour>
  </outline>
</glyph>
<glyph name="N" format="2">
  <advance width="688"/>
  <unicode hex="004E"/>
  <outline>
    <contour>
      <point x="108" y="0" type="line"/>
      <point x="108" y="782" type="line"/>
      <point x="141" y="782" type="line"/>
      <point x="567" y="26" type="line"/>
      <point x="567" y="782" type="line"/>
      <point x="590" y="782" type="line"/>
      <point x="590" y="0" type="line"/>
      <point x="556" y="0" type="line"/>
      <point x="131" y="756" type="line"/>
      <point x="131" y="0" type="line"/>
    </contour>
  </outline>
</glyph>
<glyph name="O" format="2">
  <advance width="715"/>
  <unicode hex="004F"/>
  <outline>
    <contour>
      <point x="106" y="391" type="qcurve" smooth="yes"/>
      <point x="106" y="322"/>
      <point x="117" y="187"/>
      <point x="167" y="80"/>
      <point x="271" y="13"/>
      <point x="363" y="13" type="qcurve" smooth="yes"/>
      <point x="455" y="13"/>
      <point x="559" y="80"/>
      <point x="609" y="187"/>
      <point x="620" y="322"/>
      <point x="620" y="391" type="qcurve" smooth="yes"/>
      <point x="620" y="460"/>
      <point x="609" y="595"/>
      <point x="559" y="703"/>
      <point x="455" y="770"/>
      <point x="363" y="770" type="qcurve" smooth="yes"/>
      <point x="271" y="770"/>
      <point x="167" y="703"/>
      <point x="117" y="595"/>
      <point x="106" y="460"/>
    </contour>
    <contour>
      <point x="83" y="389" type="qcurve" smooth="yes"/>
      <point x="83" y="469"/>
      <point x="99" y="614"/>
      <point x="156" y="726"/>
      <point x="267" y="793"/>
      <point x="362" y="793" type="qcurve" smooth="yes"/>
      <point x="427" y="793"/>
      <point x="518" y="762"/>
      <point x="580" y="707"/>
      <point x="617" y="632"/>
      <point x="636" y="543"/>
      <point x="642" y="443"/>
      <point x="642" y="392" type="qcurve" smooth="yes"/>
      <point x="642" y="313"/>
      <point x="627" y="168"/>
      <point x="570" y="57"/>
      <point x="459" y="-10"/>
      <point x="364" y="-10" type="qcurve" smooth="yes"/>
      <point x="299" y="-10"/>
      <point x="208" y="21"/>
      <point x="146" y="75"/>
      <point x="108" y="150"/>
      <point x="89" y="239"/>
      <point x="83" y="339"/>
    </contour>
  </outline>
</glyph>
<glyph name="P" format="2">
  <advance width="623"/>
  <unicode hex="0050"/>
  <outline>
    <contour>
      <point x="131" y="403" type="line"/>
      <point x="416" y="403" type="line" smooth="yes"/>
      <point x="428" y="403"/>
      <point x="452" y="411"/>
      <point x="463" y="416" type="qcurve"/>
      <point x="486" y="429"/>
      <point x="516" y="467"/>
      <point x="534" y="511"/>
      <point x="541" y="560"/>
      <point x="541" y="583" type="qcurve" smooth="yes"/>
      <point x="541" y="625"/>
      <point x="518" y="702"/>
      <point x="486" y="730" type="qcurve" smooth="yes"/>
      <point x="471" y="744"/>
      <point x="436" y="759"/>
      <point x="415" y="759" type="qcurve" smooth="yes"/>
      <point x="131" y="759" type="line"/>
    </contour>
    <contour>
      <point x="108" y="0" type="line"/>
      <point x="108" y="783" type="line"/>
      <point x="416" y="783" type="line" smooth="yes"/>
      <point x="460" y="783"/>
      <point x="491" y="756" type="qcurve"/>
      <point x="532" y="725"/>
      <point x="563" y="632"/>
      <point x="563" y="584" type="qcurve" smooth="yes"/>
      <point x="563" y="549"/>
      <point x="546" y="477"/>
      <point x="511" y="419"/>
      <point x="455" y="381"/>
      <point x="416" y="381" type="qcurve" smooth="yes"/>
      <point x="131" y="381" type="line"/>
      <point x="131" y="0" type="line"/>
    </contour>
  </outline>
</glyph>
<glyph name="Q" format="2">
  <advance width="715"/>
  <unicode hex="0051"/>
  <outline>
    <contour>
      <point x="106" y="391" type="qcurve" smooth="yes"/>
      <point x="106" y="322"/>
      <point x="117" y="187"/>
      <point x="167" y="80"/>
      <point x="271" y="13"/>
      <point x="362" y="13" type="qcurve" smooth="yes"/>
      <point x="392" y="13"/>
      <point x="447" y="21"/>
      <point x="474" y="30" type="qcurve" smooth="yes"/>
      <point x="484" y="33" type="line"/>
      <point x="476" y="40" type="line" smooth="yes"/>
      <point x="453" y="62"/>
      <point x="420" y="106"/>
      <point x="408" y="135" type="qcurve"/>
      <point x="430" y="144" type="line"/>
      <point x="442" y="116"/>
      <point x="474" y="74"/>
      <point x="500" y="54" type="qcurve" smooth="yes"/>
      <point x="509" y="48" type="line"/>
      <point x="512" y="50" type="line" smooth="yes"/>
      <point x="544" y="70"/>
      <point x="583" y="128"/>
      <point x="606" y="195"/>
      <point x="617" y="268"/>
      <point x="619" y="303" type="qcurve" smooth="yes"/>
      <point x="620" y="325"/>
      <point x="620" y="378" type="qcurve" smooth="yes"/>
      <point x="620" y="460"/>
      <point x="609" y="595"/>
      <point x="558" y="703"/>
      <point x="455" y="770"/>
      <point x="363" y="770" type="qcurve" smooth="yes"/>
      <point x="271" y="770"/>
      <point x="168" y="703"/>
      <point x="117" y="595"/>
      <point x="106" y="460"/>
    </contour>
    <contour>
      <point x="83" y="391" type="qcurve" smooth="yes"/>
      <point x="83" y="469"/>
      <point x="99" y="614"/>
      <point x="156" y="726"/>
      <point x="267" y="793"/>
      <point x="363" y="793" type="qcurve" smooth="yes"/>
      <point x="459" y="793"/>
      <point x="570" y="725"/>
      <point x="627" y="613"/>
      <point x="642" y="468"/>
      <point x="642" y="391" type="qcurve" smooth="yes"/>
      <point x="642" y="322"/>
      <point x="630" y="185"/>
      <point x="605" y="125" type="qcurve" smooth="yes"/>
      <point x="592" y="96"/>
      <point x="563" y="60"/>
      <point x="541" y="40" type="qcurve" smooth="yes"/>
      <point x="533" y="33" type="line"/>
      <point x="543" y="30" type="line" smooth="yes"/>
      <point x="567" y="22"/>
      <point x="614" y="15"/>
      <point x="638" y="13" type="qcurve"/>
      <point x="638" y="-10" type="line"/>
      <point x="606" y="-8"/>
      <point x="540" y="3"/>
      <point x="512" y="17" type="qcurve" smooth="yes"/>
      <point x="509" y="19" type="line"/>
      <point x="506" y="17" type="line" smooth="yes"/>
      <point x="493" y="10"/>
      <point x="457" y="-1"/>
      <point x="418" y="-7"/>
      <point x="379" y="-10"/>
      <point x="361" y="-10" type="qcurve" smooth="yes"/>
      <point x="267" y="-10"/>
      <point x="156" y="57"/>
      <point x="99" y="169"/>
      <point x="83" y="313"/>
    </contour>
  </outline>
</glyph>
<glyph name="R" format="2">
  <advance width="645"/>
  <unicode hex="0052"/>
  <outline>
    <contour>
      <point x="131" y="403" type="line"/>
      <point x="415" y="403" type="line" smooth="yes"/>
      <point x="450" y="403"/>
      <point x="498" y="439"/>
      <point x="527" y="493"/>
      <point x="540" y="556"/>
      <point x="540" y="582" type="qcurve" smooth="yes"/>
      <point x="540" y="608"/>
      <point x="527" y="670"/>
      <point x="498" y="723"/>
      <point x="450" y="759"/>
      <point x="415" y="759" type="qcurve" smooth="yes"/>
      <point x="131" y="759" type="line"/>
    </contour>
    <contour>
      <point x="108" y="0" type="line"/>
      <point x="108" y="783" type="line"/>
      <point x="416" y="783" type="line" smooth="yes"/>
      <point x="454" y="783"/>
      <point x="510" y="744"/>
      <point x="546" y="685"/>
      <point x="563" y="613"/>
      <point x="563" y="579" type="qcurve" smooth="yes"/>
      <point x="563" y="540"/>
      <point x="542" y="460"/>
      <point x="516" y="431" type="qcurve"/>
      <point x="506" y="418"/>
      <point x="484" y="402"/>
      <point x="470" y="394" type="qcurve" smooth="yes"/>
      <point x="466" y="392" type="line"/>
      <point x="602" y="0" type="line"/>
      <point x="577" y="0" type="line"/>
      <point x="444" y="382" type="line"/>
      <point x="422" y="382" type="line" smooth="yes"/>
      <point x="351" y="382"/>
      <point x="209" y="381"/>
      <point x="137" y="381" type="qcurve" smooth="yes"/>
      <point x="131" y="381" type="line"/>
      <point x="131" y="0" type="line"/>
    </contour>
  </outline>
</glyph>
<glyph name="S" format="2">
  <advance width="654"/>
  <unicode hex="0053"/>
  <outline>
    <contour>
      <point x="95" y="56" type="qcurve"/>
      <point x="113" y="70" type="line"/>
      <point x="132" y="53"/>
      <point x="183" y="31"/>
      <point x="238" y="19"/>
      <point x="293" y="14"/>
      <point x="316" y="14" type="qcurve" smooth="yes"/>
      <point x="357" y="14"/>
      <point x="430" y="30"/>
      <point x="489" y="65"/>
      <point x="533" y="122"/>
      <point x="545" y="164" type="qcurve" smooth="yes"/>
      <point x="549" y="179"/>
      <point x="554" y="212"/>
      <point x="554" y="228" type="qcurve" smooth="yes"/>
      <point x="554" y="250"/>
      <point x="545" y="295"/>
      <point x="524" y="334"/>
      <point x="491" y="365"/>
      <point x="467" y="372" type="qcurve" smooth="yes"/>
      <point x="271" y="429" type="line" smooth="yes"/>
      <point x="237" y="439"/>
      <point x="178" y="467"/>
      <point x="134" y="507"/>
      <point x="109" y="563"/>
      <point x="109" y="601" type="qcurve" smooth="yes"/>
      <point x="109" y="649"/>
      <point x="146" y="721"/>
      <point x="209" y="768"/>
      <point x="293" y="791"/>
      <point x="342" y="791" type="qcurve" smooth="yes"/>
      <point x="363" y="791"/>
      <point x="419" y="787"/>
      <point x="474" y="776"/>
      <point x="525" y="756"/>
      <point x="542" y="740" type="qcurve"/>
      <point x="525" y="725" type="line"/>
      <point x="508" y="739"/>
      <point x="460" y="756"/>
      <point x="408" y="765"/>
      <point x="358" y="768"/>
      <point x="340" y="768" type="qcurve" smooth="yes"/>
      <point x="298" y="768"/>
      <point x="224" y="749"/>
      <point x="167" y="709"/>
      <point x="132" y="646"/>
      <point x="132" y="602" type="qcurve" smooth="yes"/>
      <point x="132" y="567"/>
      <point x="155" y="517"/>
      <point x="194" y="482"/>
      <point x="246" y="459"/>
      <point x="275" y="450" type="qcurve" smooth="yes"/>
      <point x="472" y="393" type="line" smooth="yes"/>
      <point x="498" y="386"/>
      <point x="537" y="350"/>
      <point x="563" y="302"/>
      <point x="577" y="248"/>
      <point x="577" y="220" type="qcurve" smooth="yes"/>
      <point x="577" y="169"/>
      <point x="539" y="83"/>
      <point x="471" y="23"/>
      <point x="379" y="-9"/>
      <point x="322" y="-9" type="qcurve" smooth="yes"/>
      <point x="296" y="-9"/>
      <point x="232" y="-4"/>
      <point x="171" y="9"/>
      <point x="116" y="35"/>
    </contour>
  </outline>
</glyph>
<glyph name="T" format="2">
  <advance width="554"/>
  <unicode hex="0054"/>
  <outline>
    <contour>
      <point x="271" y="0" type="line"/>
      <point x="271" y="759" type="line"/>
      <point x="68" y="759" type="line"/>
      <point x="68" y="783" type="line"/>
      <point x="495" y="783" type="line"/>
      <point x="495" y="759" type="line"/>
      <point x="293" y="759" type="line"/>
      <point x="293" y="0" type="line"/>
    </contour>
  </outline>
</glyph>
<glyph name="U" format="2">
  <advance width="715"/>
  <unicode hex="0055"/>
  <outline>
    <contour>
      <point x="108" y="184" type="qcurve" smooth="yes"/>
      <point x="108" y="783" type="line"/>
      <point x="131" y="783" type="line"/>
      <point x="131" y="184" type="line" smooth="yes"/>
      <point x="131" y="139"/>
      <point x="173" y="75"/>
      <point x="239" y="33"/>
      <point x="320" y="13"/>
      <point x="359" y="13" type="qcurve" smooth="yes"/>
      <point x="397" y="13"/>
      <point x="480" y="31"/>
      <point x="550" y="72"/>
      <point x="595" y="137"/>
      <point x="595" y="184" type="qcurve" smooth="yes"/>
      <point x="595" y="783" type="line"/>
      <point x="618" y="783" type="line"/>
      <point x="618" y="184" type="line" smooth="yes"/>
      <point x="618" y="148"/>
      <point x="601" y="113" type="qcurve" smooth="yes"/>
      <point x="586" y="80"/>
      <point x="536" y="33"/>
      <point x="474" y="3"/>
      <point x="404" y="-10"/>
      <point x="366" y="-10" type="qcurve" smooth="yes"/>
      <point x="343" y="-10"/>
      <point x="296" y="-6"/>
      <point x="273" y="0" type="qcurve" smooth="yes"/>
      <point x="240" y="9"/>
      <point x="180" y="42"/>
      <point x="135" y="89"/>
      <point x="108" y="149"/>
    </contour>
  </outline>
</glyph>
<glyph name="V" format="2">
  <advance width="679"/>
  <unicode hex="0056"/>
  <outline>
    <contour>
      <point x="332" y="0" type="line"/>
      <point x="54" y="783" type="line"/>
      <point x="79" y="783" type="line"/>
      <point x="346" y="16" type="line"/>
      <point x="612" y="783" type="line"/>
      <point x="637" y="783" type="line"/>
      <point x="360" y="0" type="line"/>
    </contour>
  </outline>
</glyph>
<glyph name="W" format="2">
  <advance width="967"/>
  <unicode hex="0057"/>
  <outline>
    <contour>
      <point x="264" y="-1" type="line"/>
      <point x="53" y="782" type="line"/>
      <point x="76" y="782" type="line"/>
      <point x="277" y="35" type="line"/>
      <point x="478" y="782" type="line"/>
      <point x="507" y="782" type="line"/>
      <point x="709" y="35" type="line"/>
      <point x="909" y="782" type="line"/>
      <point x="933" y="782" type="line"/>
      <point x="722" y="-1" type="line"/>
      <point x="695" y="-1" type="line"/>
      <point x="492" y="764" type="line"/>
      <point x="290" y="-1" type="line"/>
    </contour>
  </outline>
</glyph>
<glyph name="X" format="2">
  <advance width="632"/>
  <unicode hex="0058"/>
  <outline>
    <contour>
      <point x="61" y="0" type="line"/>
      <point x="308" y="391" type="line"/>
      <point x="61" y="783" type="line"/>
      <point x="88" y="783" type="line"/>
      <point x="322" y="402" type="line"/>
      <point x="556" y="783" type="line"/>
      <point x="582" y="783" type="line"/>
      <point x="335" y="391" type="line"/>
      <point x="582" y="0" type="line"/>
      <point x="556" y="0" type="line"/>
      <point x="322" y="381" type="line"/>
      <point x="88" y="0" type="line"/>
    </contour>
  </outline>
</glyph>
<glyph name="Y" format="2">
  <advance width="633"/>
  <unicode hex="0059"/>
  <outline>
    <contour>
      <point x="309" y="0" type="line"/>
      <point x="309" y="389" type="line"/>
      <point x="61" y="783" type="line"/>
      <point x="88" y="783" type="line"/>
      <point x="321" y="403" type="line"/>
      <point x="556" y="783" type="line"/>
      <point x="583" y="783" type="line"/>
      <point x="332" y="389" type="line"/>
      <point x="332" y="0" type="line"/>
    </contour>
  </outline>
</glyph>
<glyph name="Z" format="2">
  <advance width="654"/>
  <unicode hex="005A"/>
  <outline>
    <contour>
      <point x="68" y="0" type="line"/>
      <point x="68" y="23" type="line"/>
      <point x="567" y="759" type="line"/>
      <point x="68" y="759" type="line"/>
      <point x="68" y="783" type="line"/>
      <point x="596" y="783" type="line"/>
      <point x="596" y="760" type="line"/>
      <point x="97" y="24" type="line"/>
      <point x="597" y="24" type="line"/>
      <point x="597" y="0" type="line"/>
    </contour>
  </outline>
</glyph>
<glyph name="bracketleft" format="2">
  <advance width="282"/>
  <unicode hex="005B"/>
  <outline>
    <contour>
      <point x="66" y="-94" type="line"/>
      <point x="66" y="813" type="line"/>
      <point x="214" y="813" type="line"/>
      <point x="214" y="795" type="line"/>
      <point x="89" y="795" type="line"/>
      <point x="89" y="-77" type="line"/>
      <point x="215" y="-77" type="line"/>
      <point x="215" y="-94" type="line"/>
    </contour>
  </outline>
</glyph>
<glyph name="backslash" format="2">
  <advance width="462"/>
  <unicode hex="005C"/>
  <outline>
    <contour>
      <point x="62" y="783" type="line"/>
      <point x="87" y="783" type="line"/>
      <point x="350" y="0" type="line"/>
      <point x="326" y="0" type="line"/>
    </contour>
  </outline>
</glyph>
<glyph name="bracketright" format="2">
  <advance width="282"/>
  <unicode hex="005D"/>
  <outline>
    <contour>
      <point x="66" y="-94" type="line"/>
      <point x="66" y="-77" type="line"/>
      <point x="193" y="-77" type="line"/>
      <point x="193" y="795" type="line"/>
      <point x="67" y="795" type="line"/>
      <point x="67" y="813" type="line"/>
      <point x="215" y="813" type="line"/>
      <point x="215" y="-94" type="line"/>
    </contour>
  </outline>
</glyph>
<glyph name="asciicircum" format="2">
  <advance width="487"/>
  <unicode hex="005E"/>
  <outline>
    <contour>
      <point x="56" y="205" type="line"/>
      <point x="44" y="218" type="line"/>
      <point x="248" y="426" type="line"/>
      <point x="452" y="218" type="line"/>
      <point x="439" y="205" type="line"/>
      <point x="248" y="400" type="line"/>
    </contour>
  </outline>
</glyph>
<glyph name="underscore" format="2">
  <advance width="465"/>
  <unicode hex="005F"/>
  <outline>
    <contour>
      <point x="28" y="-75" type="line"/>
      <point x="28" y="-58" type="line"/>
      <point x="446" y="-58" type="line"/>
      <point x="446" y="-75" type="line"/>
    </contour>
  </outline>
</glyph>
<glyph name="grave" format="2">
  <advance width="272"/>
  <unicode hex="0060"/>
  <outline>
    <contour>
      <point x="67" y="679" type="qcurve"/>
      <point x="68" y="703" type="line"/>
      <point x="106" y="700"/>
      <point x="167" y="651"/>
      <point x="189" y="622" type="qcurve" smooth="yes"/>
      <point x="197" y="613"/>
      <point x="210" y="594"/>
      <point x="218" y="585" type="qcurve"/>
      <point x="202" y="571" type="line"/>
      <point x="190" y="588"/>
      <point x="161" y="622"/>
      <point x="146" y="637" type="qcurve" smooth="yes"/>
      <point x="129" y="652"/>
      <point x="90" y="675"/>
    </contour>
  </outline>
</glyph>
<glyph name="a" format="2">
  <advance width="503"/>
  <unicode hex="0061"/>
  <outline>
    <contour>
      <point x="91" y="130" type="qcurve" smooth="yes"/>
      <point x="91" y="77"/>
      <point x="157" y="12"/>
      <point x="215" y="12" type="qcurve" smooth="yes"/>
      <point x="259" y="12"/>
      <point x="309" y="30" type="qcurve" smooth="yes"/>
      <point x="324" y="35"/>
      <point x="366" y="51"/>
      <point x="388" y="58" type="qcurve" smooth="yes"/>
      <point x="400" y="62" type="line"/>
      <point x="400" y="250" type="line"/>
      <point x="249" y="250" type="line" smooth="yes"/>
      <point x="221" y="250"/>
      <point x="164" y="238"/>
      <point x="119" y="211"/>
      <point x="91" y="165"/>
    </contour>
    <contour>
      <point x="68" y="132" type="qcurve" smooth="yes"/>
      <point x="68" y="145"/>
      <point x="72" y="165"/>
      <point x="75" y="173" type="qcurve" smooth="yes"/>
      <point x="85" y="207"/>
      <point x="128" y="247"/>
      <point x="185" y="268"/>
      <point x="251" y="275"/>
      <point x="288" y="275" type="qcurve" smooth="yes"/>
      <point x="311" y="275"/>
      <point x="365" y="273"/>
      <point x="393" y="273" type="qcurve" smooth="yes"/>
      <point x="400" y="273" type="line"/>
      <point x="400" y="391" type="line" smooth="yes"/>
      <point x="400" y="421"/>
      <point x="371" y="462"/>
      <point x="326" y="487"/>
      <point x="272" y="498"/>
      <point x="247" y="498" type="qcurve" smooth="yes"/>
      <point x="235" y="498"/>
      <point x="199" y="496"/>
      <point x="162" y="490"/>
      <point x="128" y="480"/>
      <point x="115" y="472" type="qcurve"/>
      <point x="98" y="487" type="line"/>
      <point x="112" y="497"/>
      <point x="149" y="510"/>
      <point x="189" y="517"/>
      <point x="228" y="520"/>
      <point x="244" y="520" type="qcurve" smooth="yes"/>
      <point x="276" y="520"/>
      <point x="340" y="505"/>
      <point x="391" y="474"/>
      <point x="423" y="425"/>
      <point x="423" y="392" type="qcurve" smooth="yes"/>
      <point x="423" y="0" type="line"/>
      <point x="406" y="0" type="line"/>
      <point x="394" y="37" type="line"/>
      <point x="387" y="34" type="line" smooth="yes"/>
      <point x="350" y="14"/>
      <point x="253" y="-11"/>
      <point x="211" y="-11" type="qcurve" smooth="yes"/>
      <point x="139" y="-11"/>
      <point x="68" y="66"/>
    </contour>
  </outline>
</glyph>
<glyph name="b" format="2">
  <advance width="529"/>
  <unicode hex="0062"/>
  <outline>
    <contour>
      <point x="112" y="254" type="qcurve" smooth="yes"/>
      <point x="112" y="210"/>
      <point x="119" y="124"/>
      <point x="151" y="55"/>
      <point x="217" y="13"/>
      <point x="277" y="13" type="qcurve" smooth="yes"/>
      <point x="337" y="13"/>
      <point x="404" y="56"/>
      <point x="435" y="124"/>
      <point x="442" y="211"/>
      <point x="442" y="254" type="qcurve" smooth="yes"/>
      <point x="442" y="298"/>
      <point x="435" y="384"/>
      <point x="404" y="453"/>
      <point x="337" y="496"/>
      <point x="277" y="496" type="qcurve" smooth="yes"/>
      <point x="217" y="496"/>
      <point x="151" y="453"/>
      <point x="119" y="384"/>
      <point x="112" y="298"/>
    </contour>
    <contour>
      <point x="89" y="0" type="line"/>
      <point x="89" y="707" type="line"/>
      <point x="112" y="707" type="line"/>
      <point x="112" y="429" type="line"/>
      <point x="122" y="440" type="line" smooth="yes"/>
      <point x="156" y="475"/>
      <point x="227" y="519"/>
      <point x="282" y="519" type="qcurve" smooth="yes"/>
      <point x="341" y="519"/>
      <point x="415" y="475"/>
      <point x="453" y="402"/>
      <point x="464" y="306"/>
      <point x="464" y="254" type="qcurve" smooth="yes"/>
      <point x="464" y="202"/>
      <point x="453" y="106"/>
      <point x="414" y="33"/>
      <point x="340" y="-10"/>
      <point x="280" y="-10" type="qcurve" smooth="yes"/>
      <point x="258" y="-10"/>
      <point x="220" y="-2"/>
      <point x="184" y="14"/>
      <point x="152" y="36"/>
      <point x="141" y="50" type="qcurve" smooth="yes"/>
      <point x="119" y="78" type="line"/>
      <point x="104" y="0" type="line"/>
    </contour>
  </outline>
</glyph>
<glyph name="c" format="2">
  <advance width="493"/>
  <unicode hex="0063"/>
  <outline>
    <contour>
      <point x="73" y="254" type="qcurve" smooth="yes"/>
      <point x="73" y="307"/>
      <point x="85" y="402"/>
      <point x="124" y="475"/>
      <point x="199" y="519"/>
      <point x="260" y="519" type="qcurve" smooth="yes"/>
      <point x="309" y="519"/>
      <point x="403" y="488"/>
      <point x="431" y="450" type="qcurve"/>
      <point x="412" y="440" type="line"/>
      <point x="400" y="455"/>
      <point x="363" y="476"/>
      <point x="321" y="489"/>
      <point x="278" y="496"/>
      <point x="258" y="496" type="qcurve" smooth="yes"/>
      <point x="203" y="496"/>
      <point x="136" y="453"/>
      <point x="104" y="384"/>
      <point x="96" y="298"/>
      <point x="96" y="254" type="qcurve" smooth="yes"/>
      <point x="96" y="212"/>
      <point x="103" y="125"/>
      <point x="135" y="56"/>
      <point x="201" y="13"/>
      <point x="259" y="13" type="qcurve" smooth="yes"/>
      <point x="279" y="13"/>
      <point x="321" y="19"/>
      <point x="362" y="33"/>
      <point x="399" y="54"/>
      <point x="412" y="69" type="qcurve"/>
      <point x="432" y="59" type="line"/>
      <point x="420" y="41"/>
      <point x="380" y="14"/>
      <point x="332" y="-2"/>
      <point x="282" y="-10"/>
      <point x="258" y="-10" type="qcurve" smooth="yes"/>
      <point x="197" y="-10"/>
      <point x="123" y="33"/>
      <point x="84" y="106"/>
      <point x="73" y="202"/>
    </contour>
  </outline>
</glyph>
<glyph name="d" format="2">
  <advance width="529"/>
  <unicode hex="0064"/>
  <outline>
    <contour>
      <point x="95" y="254" type="qcurve" smooth="yes"/>
      <point x="95" y="211"/>
      <point x="102" y="124"/>
      <point x="133" y="56"/>
      <point x="199" y="13"/>
      <point x="259" y="13" type="qcurve" smooth="yes"/>
      <point x="319" y="13"/>
      <point x="386" y="55"/>
      <point x="418" y="124"/>
      <point x="425" y="210"/>
      <point x="425" y="254" type="qcurve" smooth="yes"/>
      <point x="425" y="298"/>
      <point x="418" y="384"/>
      <point x="386" y="453"/>
      <point x="319" y="496"/>
      <point x="259" y="496" type="qcurve" smooth="yes"/>
      <point x="199" y="496"/>
      <point x="133" y="453"/>
      <point x="102" y="384"/>
      <point x="95" y="298"/>
    </contour>
    <contour>
      <point x="72" y="254" type="qcurve" smooth="yes"/>
      <point x="72" y="307"/>
      <point x="83" y="402"/>
      <point x="121" y="476"/>
      <point x="195" y="519"/>
      <point x="254" y="519" type="qcurve" smooth="yes"/>
      <point x="310" y="519"/>
      <point x="380" y="475"/>
      <point x="415" y="440" type="qcurve" smooth="yes"/>
      <point x="425" y="430" type="line"/>
      <point x="425" y="707" type="line"/>
      <point x="447" y="707" type="line"/>
      <point x="447" y="0" type="line"/>
      <point x="432" y="0" type="line"/>
      <point x="419" y="78" type="line"/>
      <point x="410" y="68" type="line" smooth="yes"/>
      <point x="402" y="58"/>
      <point x="379" y="33"/>
      <point x="368" y="26" type="qcurve" smooth="yes"/>
      <point x="345" y="9"/>
      <point x="288" y="-10"/>
      <point x="254" y="-10" type="qcurve" smooth="yes"/>
      <point x="196" y="-10"/>
      <point x="122" y="33"/>
      <point x="83" y="105"/>
      <point x="72" y="201"/>
    </contour>
  </outline>
</glyph>
<glyph name="e" format="2">
  <advance width="509"/>
  <unicode hex="0065"/>
  <outline>
    <contour>
      <point x="93" y="264" type="line"/>
      <point x="422" y="264" type="line"/>
      <point x="422" y="280" type="line" smooth="yes"/>
      <point x="422" y="322"/>
      <point x="411" y="400"/>
      <point x="376" y="460"/>
      <point x="311" y="496"/>
      <point x="257" y="496" type="qcurve" smooth="yes"/>
      <point x="201" y="496"/>
      <point x="136" y="457"/>
      <point x="102" y="394"/>
      <point x="93" y="312"/>
      <point x="93" y="270" type="qcurve" smooth="yes"/>
    </contour>
    <contour>
      <point x="93" y="225" type="line" smooth="yes"/>
      <point x="93" y="185"/>
      <point x="104" y="109"/>
      <point x="137" y="49"/>
      <point x="199" y="13"/>
      <point x="251" y="13" type="qcurve" smooth="yes"/>
      <point x="271" y="13"/>
      <point x="314" y="18"/>
      <point x="355" y="30"/>
      <point x="392" y="52"/>
      <point x="407" y="69" type="qcurve"/>
      <point x="427" y="58" type="line"/>
      <point x="414" y="40"/>
      <point x="374" y="14"/>
      <point x="328" y="-3"/>
      <point x="280" y="-10"/>
      <point x="256" y="-10" type="qcurve" smooth="yes"/>
      <point x="193" y="-10"/>
      <point x="119" y="32"/>
      <point x="80" y="104"/>
      <point x="69" y="200"/>
      <point x="69" y="253" type="qcurve" smooth="yes"/>
      <point x="69" y="306"/>
      <point x="80" y="402"/>
      <point x="119" y="475"/>
      <point x="194" y="519"/>
      <point x="258" y="519" type="qcurve" smooth="yes"/>
      <point x="324" y="519"/>
      <point x="399" y="472"/>
      <point x="436" y="394"/>
      <point x="444" y="294"/>
      <point x="444" y="241" type="qcurve"/>
      <point x="93" y="241" type="line"/>
    </contour>
  </outline>
</glyph>
<glyph name="f" format="2">
  <advance width="298"/>
  <unicode hex="0066"/>
  <outline>
    <contour>
      <point x="120" y="0" type="line"/>
      <point x="120" y="420" type="line"/>
      <point x="75" y="420" type="line"/>
      <point x="75" y="443" type="line"/>
      <point x="120" y="443" type="line"/>
      <point x="120" y="604" type="line" smooth="yes"/>
      <point x="120" y="631"/>
      <point x="140" y="673"/>
      <point x="174" y="702"/>
      <point x="220" y="717"/>
      <point x="249" y="717" type="qcurve" smooth="yes"/>
      <point x="257" y="717"/>
      <point x="277" y="716"/>
      <point x="287" y="715" type="qcurve"/>
      <point x="283" y="691" type="line"/>
      <point x="274" y="692"/>
      <point x="256" y="693"/>
      <point x="248" y="693" type="qcurve" smooth="yes"/>
      <point x="199" y="693"/>
      <point x="143" y="647"/>
      <point x="143" y="597" type="qcurve" smooth="yes"/>
      <point x="143" y="443" type="line"/>
      <point x="259" y="443" type="line"/>
      <point x="259" y="420" type="line"/>
      <point x="143" y="420" type="line"/>
      <point x="143" y="0" type="line"/>
    </contour>
  </outline>
</glyph>
<glyph name="g" format="2">
  <advance width="509"/>
  <unicode hex="0067"/>
  <outline>
    <contour>
      <point x="92" y="256" type="qcurve" smooth="yes"/>
      <point x="92" y="213"/>
      <point x="99" y="126"/>
      <point x="130" y="57"/>
      <point x="196" y="13"/>
      <point x="256" y="13" type="qcurve" smooth="yes"/>
      <point x="316" y="13"/>
      <point x="383" y="56"/>
      <point x="415" y="126"/>
      <point x="422" y="213"/>
      <point x="422" y="256" type="qcurve" smooth="yes"/>
      <point x="422" y="300"/>
      <point x="415" y="386"/>
      <point x="382" y="454"/>
      <point x="316" y="496"/>
      <point x="256" y="496" type="qcurve" smooth="yes"/>
      <point x="197" y="496"/>
      <point x="131" y="454"/>
      <point x="99" y="385"/>
      <point x="92" y="300"/>
    </contour>
    <contour>
      <point x="87" y="-139" type="qcurve"/>
      <point x="107" y="-129" type="line"/>
      <point x="120" y="-144"/>
      <point x="156" y="-166"/>
      <point x="197" y="-179"/>
      <point x="239" y="-185"/>
      <point x="259" y="-185" type="qcurve" smooth="yes"/>
      <point x="318" y="-185"/>
      <point x="385" y="-140"/>
      <point x="416" y="-68"/>
      <point x="422" y="22"/>
      <point x="422" y="65" type="qcurve" smooth="yes"/>
      <point x="422" y="79" type="line"/>
      <point x="412" y="69" type="line" smooth="yes"/>
      <point x="394" y="52"/>
      <point x="360" y="23"/>
      <point x="324" y="2"/>
      <point x="282" y="-10"/>
      <point x="253" y="-10" type="qcurve" smooth="yes"/>
      <point x="193" y="-10"/>
      <point x="118" y="34"/>
      <point x="80" y="107"/>
      <point x="69" y="204"/>
      <point x="69" y="256" type="qcurve" smooth="yes"/>
      <point x="69" y="309"/>
      <point x="80" y="404"/>
      <point x="119" y="476"/>
      <point x="194" y="519"/>
      <point x="252" y="519" type="qcurve" smooth="yes"/>
      <point x="295" y="519"/>
      <point x="361" y="490"/>
      <point x="386" y="465" type="qcurve" smooth="yes"/>
      <point x="392" y="459"/>
      <point x="407" y="441" type="qcurve" smooth="yes"/>
      <point x="416" y="431" type="line"/>
      <point x="429" y="509" type="line"/>
      <point x="444" y="509" type="line"/>
      <point x="444" y="59" type="line" smooth="yes"/>
      <point x="444" y="7"/>
      <point x="433" y="-90"/>
      <point x="395" y="-164"/>
      <point x="320" y="-208"/>
      <point x="259" y="-208" type="qcurve" smooth="yes"/>
      <point x="210" y="-208"/>
      <point x="115" y="-177"/>
    </contour>
  </outline>
</glyph>
<glyph name="h" format="2">
  <advance width="529"/>
  <unicode hex="0068"/>
  <outline>
    <contour>
      <point x="108" y="0" type="line"/>
      <point x="108" y="783" type="line"/>
      <point x="131" y="783" type="line"/>
      <point x="131" y="452" type="line"/>
      <point x="158" y="476" type="line" smooth="yes"/>
      <point x="184" y="499"/>
      <point x="252" y="519"/>
      <point x="287" y="519" type="qcurve" smooth="yes"/>
      <point x="318" y="519"/>
      <point x="377" y="503"/>
      <point x="422" y="471"/>
      <point x="449" y="423"/>
      <point x="449" y="391" type="qcurve" smooth="yes"/>
      <point x="449" y="0" type="line"/>
      <point x="425" y="0" type="line"/>
      <point x="425" y="391" type="line" smooth="yes"/>
      <point x="425" y="420"/>
      <point x="397" y="462"/>
      <point x="354" y="489"/>
      <point x="302" y="501"/>
      <point x="278" y="501" type="qcurve" smooth="yes"/>
      <point x="254" y="501"/>
      <point x="202" y="489"/>
      <point x="159" y="462"/>
      <point x="131" y="420"/>
      <point x="131" y="391" type="qcurve" smooth="yes"/>
      <point x="131" y="0" type="line"/>
    </contour>
  </outline>
</glyph>
<glyph name="i" format="2">
  <advance width="212"/>
  <unicode hex="0069"/>
  <outline>
    <contour>
      <point x="96" y="0" type="line"/>
      <point x="96" y="509" type="line"/>
      <point x="119" y="509" type="line"/>
      <point x="119" y="0" type="line"/>
    </contour>
    <contour>
      <point x="96" y="657" type="line"/>
      <point x="96" y="706" type="line"/>
      <point x="119" y="706" type="line"/>
      <point x="119" y="657" type="line"/>
    </contour>
  </outline>
</glyph>
<glyph name="j" format="2">
  <advance width="277"/>
  <unicode hex="006A"/>
  <outline>
    <contour>
      <point x="26" y="-196" type="qcurve"/>
      <point x="30" y="-172" type="line"/>
      <point x="39" y="-173"/>
      <point x="56" y="-174"/>
      <point x="64" y="-174" type="qcurve" smooth="yes"/>
      <point x="113" y="-174"/>
      <point x="170" y="-127"/>
      <point x="170" y="-78" type="qcurve" smooth="yes"/>
      <point x="170" y="509" type="line"/>
      <point x="192" y="509" type="line"/>
      <point x="192" y="-85" type="line" smooth="yes"/>
      <point x="192" y="-139"/>
      <point x="119" y="-198"/>
      <point x="63" y="-198" type="qcurve" smooth="yes"/>
      <point x="55" y="-198"/>
      <point x="36" y="-197"/>
    </contour>
    <contour>
      <point x="170" y="657" type="line"/>
      <point x="170" y="706" type="line"/>
      <point x="192" y="706" type="line"/>
      <point x="192" y="657" type="line"/>
    </contour>
  </outline>
</glyph>
<glyph name="k" format="2">
  <advance width="498"/>
  <unicode hex="006B"/>
  <outline>
    <contour>
      <point x="108" y="0" type="line"/>
      <point x="108" y="783" type="line"/>
      <point x="131" y="783" type="line"/>
      <point x="131" y="234" type="line"/>
      <point x="403" y="509" type="line"/>
      <point x="436" y="509" type="line"/>
      <point x="223" y="296" type="line"/>
      <point x="438" y="0" type="line"/>
      <point x="409" y="0" type="line"/>
      <point x="206" y="277" type="line"/>
      <point x="131" y="200" type="line"/>
      <point x="131" y="0" type="line"/>
    </contour>
  </outline>
</glyph>
<glyph name="l" format="2">
  <advance width="231"/>
  <unicode hex="006C"/>
  <outline>
    <contour>
      <point x="101" y="0" type="line"/>
      <point x="101" y="707" type="line"/>
      <point x="124" y="707" type="line"/>
      <point x="124" y="0" type="line"/>
    </contour>
  </outline>
</glyph>
<glyph name="m" format="2">
  <advance width="680"/>
  <unicode hex="006D"/>
  <outline>
    <contour>
      <point x="88" y="0" type="line"/>
      <point x="88" y="509" type="line"/>
      <point x="105" y="509" type="line"/>
      <point x="119" y="460" type="line"/>
      <point x="126" y="467" type="line" smooth="yes"/>
      <point x="152" y="491"/>
      <point x="202" y="520"/>
      <point x="237" y="520" type="qcurve" smooth="yes"/>
      <point x="264" y="520"/>
      <point x="306" y="502"/>
      <point x="324" y="484" type="qcurve" smooth="yes"/>
      <point x="327" y="481"/>
      <point x="340" y="469"/>
      <point x="342" y="467" type="qcurve" smooth="yes"/>
      <point x="346" y="463" type="line"/>
      <point x="358" y="475" type="line" smooth="yes"/>
      <point x="381" y="499"/>
      <point x="435" y="519"/>
      <point x="468" y="519" type="qcurve" smooth="yes"/>
      <point x="493" y="519"/>
      <point x="542" y="507"/>
      <point x="580" y="481"/>
      <point x="603" y="443"/>
      <point x="603" y="416" type="qcurve" smooth="yes"/>
      <point x="603" y="0" type="line"/>
      <point x="580" y="0" type="line"/>
      <point x="580" y="415" type="line" smooth="yes"/>
      <point x="580" y="437"/>
      <point x="558" y="468"/>
      <point x="524" y="489"/>
      <point x="484" y="499"/>
      <point x="467" y="499" type="qcurve" smooth="yes"/>
      <point x="450" y="499"/>
      <point x="410" y="489"/>
      <point x="377" y="468"/>
      <point x="355" y="437"/>
      <point x="355" y="415" type="qcurve" smooth="yes"/>
      <point x="355" y="0" type="line"/>
      <point x="336" y="0" type="line"/>
      <point x="336" y="415" type="line" smooth="yes"/>
      <point x="336" y="436"/>
      <point x="314" y="468"/>
      <point x="280" y="489"/>
      <point x="240" y="499"/>
      <point x="223" y="499" type="qcurve" smooth="yes"/>
      <point x="206" y="499"/>
      <point x="166" y="489"/>
      <point x="133" y="468"/>
      <point x="111" y="437"/>
      <point x="111" y="415" type="qcurve" smooth="yes"/>
      <point x="111" y="0" type="line"/>
    </contour>
  </outline>
</glyph>
<glyph name="n" format="2">
  <advance width="509"/>
  <unicode hex="006E"/>
  <outline>
    <contour>
      <point x="88" y="1" type="line"/>
      <point x="88" y="509" type="line"/>
      <point x="103" y="509" type="line"/>
      <point x="118" y="457" type="line"/>
      <point x="137" y="473" type="line" smooth="yes"/>
      <point x="166" y="497"/>
      <point x="230" y="518"/>
      <point x="265" y="518" type="qcurve" smooth="yes"/>
      <point x="296" y="518"/>
      <point x="354" y="500"/>
      <point x="400" y="467"/>
      <point x="429" y="419"/>
      <point x="429" y="389" type="qcurve" smooth="yes"/>
      <point x="429" y="0" type="line"/>
      <point x="405" y="0" type="line"/>
      <point x="405" y="389" type="line" smooth="yes"/>
      <point x="405" y="418"/>
      <point x="377" y="460"/>
      <point x="334" y="487"/>
      <point x="282" y="499"/>
      <point x="258" y="499" type="qcurve" smooth="yes"/>
      <point x="234" y="499"/>
      <point x="182" y="487"/>
      <point x="139" y="460"/>
      <point x="111" y="418"/>
      <point x="111" y="389" type="qcurve" smooth="yes"/>
      <point x="111" y="1" type="line"/>
    </contour>
  </outline>
</glyph>
<glyph name="o" format="2">
  <advance width="509"/>
  <unicode hex="006F"/>
  <outline>
    <contour>
      <point x="93" y="253" type="qcurve" smooth="yes"/>
      <point x="93" y="210"/>
      <point x="100" y="123"/>
      <point x="131" y="53"/>
      <point x="197" y="10"/>
      <point x="257" y="10" type="qcurve" smooth="yes"/>
      <point x="317" y="10"/>
      <point x="384" y="53"/>
      <point x="416" y="122"/>
      <point x="423" y="209"/>
      <point x="423" y="253" type="qcurve" smooth="yes"/>
      <point x="423" y="297"/>
      <point x="416" y="383"/>
      <point x="383" y="453"/>
      <point x="317" y="496"/>
      <point x="257" y="496" type="qcurve" smooth="yes"/>
      <point x="197" y="496"/>
      <point x="131" y="452"/>
      <point x="100" y="383"/>
      <point x="93" y="296"/>
    </contour>
    <contour>
      <point x="70" y="253" type="qcurve" smooth="yes"/>
      <point x="70" y="306"/>
      <point x="81" y="402"/>
      <point x="119" y="475"/>
      <point x="193" y="519"/>
      <point x="257" y="519" type="qcurve" smooth="yes"/>
      <point x="321" y="519"/>
      <point x="395" y="475"/>
      <point x="434" y="402"/>
      <point x="445" y="306"/>
      <point x="445" y="253" type="qcurve" smooth="yes"/>
      <point x="445" y="201"/>
      <point x="434" y="105"/>
      <point x="396" y="31"/>
      <point x="321" y="-13"/>
      <point x="258" y="-13" type="qcurve" smooth="yes"/>
      <point x="195" y="-13"/>
      <point x="120" y="31"/>
      <point x="81" y="104"/>
      <point x="70" y="201"/>
    </contour>
  </outline>
</glyph>
<glyph name="p" format="2">
  <advance width="509"/>
  <unicode hex="0070"/>
  <outline>
    <contour>
      <point x="102" y="256" type="qcurve" smooth="yes"/>
      <point x="102" y="213"/>
      <point x="109" y="126"/>
      <point x="141" y="56"/>
      <point x="207" y="13"/>
      <point x="267" y="13" type="qcurve" smooth="yes"/>
      <point x="327" y="13"/>
      <point x="394" y="56"/>
      <point x="425" y="126"/>
      <point x="432" y="213"/>
      <point x="432" y="256" type="qcurve" smooth="yes"/>
      <point x="432" y="300"/>
      <point x="425" y="385"/>
      <point x="393" y="454"/>
      <point x="327" y="496"/>
      <point x="267" y="496" type="qcurve" smooth="yes"/>
      <point x="207" y="496"/>
      <point x="141" y="454"/>
      <point x="109" y="386"/>
      <point x="102" y="300"/>
    </contour>
    <contour>
      <point x="79" y="-198" type="line"/>
      <point x="79" y="509" type="line"/>
      <point x="94" y="509" type="line"/>
      <point x="109" y="431" type="line"/>
      <point x="131" y="459" type="line" smooth="yes"/>
      <point x="142" y="473"/>
      <point x="174" y="495"/>
      <point x="210" y="511"/>
      <point x="248" y="519"/>
      <point x="270" y="519" type="qcurve" smooth="yes"/>
      <point x="330" y="519"/>
      <point x="404" y="476"/>
      <point x="443" y="404"/>
      <point x="454" y="309"/>
      <point x="454" y="256" type="qcurve" smooth="yes"/>
      <point x="454" y="204"/>
      <point x="443" y="107"/>
      <point x="405" y="34"/>
      <point x="331" y="-10"/>
      <point x="271" y="-10" type="qcurve" smooth="yes"/>
      <point x="217" y="-10"/>
      <point x="146" y="33"/>
      <point x="112" y="69" type="qcurve" smooth="yes"/>
      <point x="102" y="80" type="line"/>
      <point x="102" y="-198" type="line"/>
    </contour>
  </outline>
</glyph>
<glyph name="q" format="2">
  <advance width="509"/>
  <unicode hex="0071"/>
  <outline>
    <contour>
      <point x="92" y="256" type="qcurve" smooth="yes"/>
      <point x="92" y="213"/>
      <point x="99" y="126"/>
      <point x="130" y="56"/>
      <point x="196" y="13"/>
      <point x="256" y="13" type="qcurve" smooth="yes"/>
      <point x="316" y="13"/>
      <point x="383" y="56"/>
      <point x="415" y="126"/>
      <point x="422" y="213"/>
      <point x="422" y="256" type="qcurve" smooth="yes"/>
      <point x="422" y="300"/>
      <point x="415" y="386"/>
      <point x="383" y="454"/>
      <point x="316" y="496"/>
      <point x="256" y="496" type="qcurve" smooth="yes"/>
      <point x="197" y="496"/>
      <point x="131" y="454"/>
      <point x="99" y="385"/>
      <point x="92" y="300"/>
    </contour>
    <contour>
      <point x="69" y="256" type="qcurve" smooth="yes"/>
      <point x="69" y="309"/>
      <point x="80" y="404"/>
      <point x="119" y="476"/>
      <point x="193" y="519"/>
      <point x="251" y="519" type="qcurve" smooth="yes"/>
      <point x="285" y="519"/>
      <point x="342" y="500"/>
      <point x="365" y="483" type="qcurve" smooth="yes"/>
      <point x="376" y="476"/>
      <point x="399" y="451"/>
      <point x="407" y="441" type="qcurve" smooth="yes"/>
      <point x="416" y="431" type="line"/>
      <point x="429" y="509" type="line"/>
      <point x="444" y="509" type="line"/>
      <point x="444" y="-198" type="line"/>
      <point x="422" y="-198" type="line"/>
      <point x="422" y="79" type="line"/>
      <point x="412" y="69" type="line" smooth="yes"/>
      <point x="377" y="34"/>
      <point x="307" y="-10"/>
      <point x="252" y="-10" type="qcurve" smooth="yes"/>
      <point x="192" y="-10"/>
      <point x="118" y="34"/>
      <point x="80" y="107"/>
      <point x="69" y="204"/>
    </contour>
  </outline>
</glyph>
<glyph name="r" format="2">
  <advance width="413"/>
  <unicode hex="0072"/>
  <outline>
    <contour>
      <point x="100" y="0" type="line"/>
      <point x="100" y="509" type="line"/>
      <point x="113" y="509" type="line"/>
      <point x="114" y="505"/>
      <point x="114" y="496"/>
      <point x="115" y="489" type="qcurve" smooth="yes"/>
      <point x="117" y="480"/>
      <point x="122" y="461"/>
      <point x="125" y="451" type="qcurve" smooth="yes"/>
      <point x="128" y="440" type="line"/>
      <point x="149" y="463" type="line" smooth="yes"/>
      <point x="176" y="495"/>
      <point x="246" y="515"/>
      <point x="287" y="515" type="qcurve" smooth="yes"/>
      <point x="310" y="515"/>
      <point x="354" y="509"/>
      <point x="374" y="501" type="qcurve"/>
      <point x="364" y="478" type="line"/>
      <point x="329" y="491"/>
      <point x="285" y="491" type="qcurve" smooth="yes"/>
      <point x="227" y="491"/>
      <point x="161" y="447"/>
      <point x="130" y="378"/>
      <point x="123" y="291"/>
      <point x="123" y="248" type="qcurve" smooth="yes"/>
      <point x="123" y="0" type="line"/>
    </contour>
  </outline>
</glyph>
<glyph name="s" format="2">
  <advance width="435"/>
  <unicode hex="0073"/>
  <outline>
    <contour>
      <point x="65" y="27" type="qcurve"/>
      <point x="83" y="41" type="line"/>
      <point x="96" y="31"/>
      <point x="128" y="19"/>
      <point x="162" y="12"/>
      <point x="195" y="10"/>
      <point x="208" y="10" type="qcurve" smooth="yes"/>
      <point x="237" y="10"/>
      <point x="291" y="24"/>
      <point x="334" y="53"/>
      <point x="362" y="98"/>
      <point x="362" y="129" type="qcurve" smooth="yes"/>
      <point x="362" y="143"/>
      <point x="357" y="174"/>
      <point x="345" y="202"/>
      <point x="324" y="224"/>
      <point x="307" y="229" type="qcurve" smooth="yes"/>
      <point x="180" y="265" type="line" smooth="yes"/>
      <point x="131" y="279"/>
      <point x="69" y="331"/>
      <point x="69" y="384" type="qcurve" smooth="yes"/>
      <point x="69" y="418"/>
      <point x="93" y="470"/>
      <point x="135" y="504"/>
      <point x="193" y="521"/>
      <point x="228" y="521" type="qcurve" smooth="yes"/>
      <point x="243" y="521"/>
      <point x="278" y="518"/>
      <point x="313" y="511"/>
      <point x="345" y="499"/>
      <point x="357" y="489" type="qcurve"/>
      <point x="340" y="474" type="line"/>
      <point x="330" y="482"/>
      <point x="299" y="492"/>
      <point x="266" y="497"/>
      <point x="235" y="499"/>
      <point x="224" y="499" type="qcurve" smooth="yes"/>
      <point x="196" y="499"/>
      <point x="148" y="485"/>
      <point x="112" y="457"/>
      <point x="92" y="413"/>
      <point x="92" y="385" type="qcurve" smooth="yes"/>
      <point x="92" y="362"/>
      <point x="107" y="330"/>
      <point x="132" y="307"/>
      <point x="165" y="291"/>
      <point x="183" y="285" type="qcurve"/>
      <point x="314" y="249" type="line" smooth="yes"/>
      <point x="332" y="244"/>
      <point x="358" y="220"/>
      <point x="375" y="187"/>
      <point x="383" y="150"/>
      <point x="383" y="132" type="qcurve" smooth="yes"/>
      <point x="383" y="97"/>
      <point x="354" y="43"/>
      <point x="306" y="6"/>
      <point x="243" y="-13"/>
      <point x="208" y="-13" type="qcurve" smooth="yes"/>
      <point x="191" y="-13"/>
      <point x="152" y="-9"/>
      <point x="114" y="0"/>
      <point x="79" y="15"/>
    </contour>
  </outline>
</glyph>
<glyph name="t" format="2">
  <advance width="327"/>
  <unicode hex="0074"/>
  <outline>
    <contour>
      <point x="112" y="107" type="qcurve" smooth="yes"/>
      <point x="112" y="485" type="line"/>
      <point x="68" y="485" type="line"/>
      <point x="68" y="509" type="line"/>
      <point x="112" y="509" type="line"/>
      <point x="112" y="706" type="line"/>
      <point x="135" y="706" type="line"/>
      <point x="135" y="509" type="line"/>
      <point x="272" y="509" type="line"/>
      <point x="272" y="485" type="line"/>
      <point x="135" y="485" type="line"/>
      <point x="135" y="114" type="line" smooth="yes"/>
      <point x="135" y="64"/>
      <point x="191" y="17"/>
      <point x="240" y="17" type="qcurve" smooth="yes"/>
      <point x="248" y="17"/>
      <point x="266" y="18"/>
      <point x="275" y="19" type="qcurve"/>
      <point x="279" y="-4" type="line"/>
      <point x="269" y="-5"/>
      <point x="249" y="-6"/>
      <point x="241" y="-6" type="qcurve" smooth="yes"/>
      <point x="212" y="-6"/>
      <point x="166" y="9"/>
      <point x="132" y="38"/>
      <point x="112" y="80"/>
    </contour>
  </outline>
</glyph>
<glyph name="u" format="2">
  <advance width="509"/>
  <unicode hex="0075"/>
  <outline>
    <contour>
      <point x="88" y="120" type="qcurve" smooth="yes"/>
      <point x="88" y="509" type="line"/>
      <point x="111" y="509" type="line"/>
      <point x="111" y="120" type="line" smooth="yes"/>
      <point x="111" y="91"/>
      <point x="140" y="50"/>
      <point x="183" y="23"/>
      <point x="235" y="11"/>
      <point x="258" y="11" type="qcurve" smooth="yes"/>
      <point x="282" y="11"/>
      <point x="334" y="23"/>
      <point x="377" y="50"/>
      <point x="405" y="91"/>
      <point x="405" y="120" type="qcurve" smooth="yes"/>
      <point x="405" y="509" type="line"/>
      <point x="429" y="509" type="line"/>
      <point x="429" y="0" type="line"/>
      <point x="412" y="0" type="line"/>
      <point x="397" y="55" type="line"/>
      <point x="390" y="47" type="line" smooth="yes"/>
      <point x="361" y="17"/>
      <point x="294" y="-10"/>
      <point x="252" y="-10" type="qcurve" smooth="yes"/>
      <point x="220" y="-10"/>
      <point x="162" y="6"/>
      <point x="116" y="39"/>
      <point x="88" y="88"/>
    </contour>
  </outline>
</glyph>
<glyph name="v" format="2">
  <advance width="510"/>
  <unicode hex="0076"/>
  <outline>
    <contour>
      <point x="244" y="0" type="line"/>
      <point x="64" y="509" type="line"/>
      <point x="89" y="509" type="line"/>
      <point x="260" y="16" type="line"/>
      <point x="430" y="509" type="line"/>
      <point x="454" y="509" type="line"/>
      <point x="274" y="0" type="line"/>
    </contour>
  </outline>
</glyph>
<glyph name="w" format="2">
  <advance width="722"/>
  <unicode hex="0077"/>
  <outline>
    <contour>
      <point x="205" y="0" type="line"/>
      <point x="63" y="509" type="line"/>
      <point x="85" y="509" type="line"/>
      <point x="218" y="19" type="line"/>
      <point x="351" y="509" type="line"/>
      <point x="382" y="509" type="line"/>
      <point x="516" y="19" type="line"/>
      <point x="649" y="509" type="line"/>
      <point x="672" y="509" type="line"/>
      <point x="529" y="0" type="line"/>
      <point x="502" y="0" type="line"/>
      <point x="367" y="497" type="line"/>
      <point x="232" y="0" type="line"/>
    </contour>
  </outline>
</glyph>
<glyph name="x" format="2">
  <advance width="518"/>
  <unicode hex="0078"/>
  <outline>
    <contour>
      <point x="72" y="0" type="line"/>
      <point x="249" y="256" type="line"/>
      <point x="72" y="510" type="line"/>
      <point x="102" y="510" type="line"/>
      <point x="264" y="264" type="line"/>
      <point x="425" y="510" type="line"/>
      <point x="453" y="510" type="line"/>
      <point x="278" y="256" type="line"/>
      <point x="454" y="0" type="line"/>
      <point x="427" y="0" type="line"/>
      <point x="264" y="247" type="line"/>
      <point x="101" y="0" type="line"/>
    </contour>
  </outline>
</glyph>
<glyph name="y" format="2">
  <advance width="490"/>
  <unicode hex="0079"/>
  <outline>
    <contour>
      <point x="159" y="-198" type="line"/>
      <point x="227" y="-8" type="line"/>
      <point x="44" y="509" type="line"/>
      <point x="69" y="509" type="line"/>
      <point x="240" y="15" type="line"/>
      <point x="410" y="509" type="line"/>
      <point x="434" y="509" type="line"/>
      <point x="184" y="-198" type="line"/>
    </contour>
  </outline>
</glyph>
<glyph name="z" format="2">
  <advance width="450"/>
  <unicode hex="007A"/>
  <outline>
    <contour>
      <point x="68" y="0" type="line"/>
      <point x="68" y="41" type="line"/>
      <point x="369" y="485" type="line"/>
      <point x="73" y="485" type="line"/>
      <point x="73" y="509" type="line"/>
      <point x="383" y="509" type="line"/>
      <point x="383" y="466" type="line"/>
      <point x="84" y="24" type="line"/>
      <point x="388" y="24" type="line"/>
      <point x="388" y="0" type="line"/>
    </contour>
  </outline>
</glyph>
<glyph name="braceleft" format="2">
  <advance width="389"/>
  <unicode hex="007B"/>
  <outline>
    <contour>
      <point x="82" y="422" type="line"/>
      <point x="186" y="527" type="line"/>
      <point x="186" y="709" type="line"/>
      <point x="187" y="709" type="line"/>
      <point x="187" y="715" type="line" smooth="yes"/>
      <point x="187" y="739"/>
      <point x="193" y="783"/>
      <point x="203" y="806" type="qcurve" smooth="yes"/>
      <point x="225" y="861"/>
      <point x="319" y="934"/>
      <point x="379" y="939" type="qcurve"/>
      <point x="379" y="921" type="line"/>
      <point x="343" y="918"/>
      <point x="282" y="887"/>
      <point x="235" y="839"/>
      <point x="206" y="777"/>
      <point x="203" y="742" type="qcurve"/>
      <point x="202" y="742" type="line"/>
      <point x="202" y="519" type="line"/>
      <point x="107" y="422" type="line"/>
      <point x="202" y="325" type="line"/>
      <point x="202" y="102" type="line"/>
      <point x="203" y="102" type="line"/>
      <point x="206" y="67"/>
      <point x="234" y="4"/>
      <point x="281" y="-44"/>
      <point x="343" y="-75"/>
      <point x="379" y="-78" type="qcurve"/>
      <point x="379" y="-95" type="line"/>
      <point x="319" y="-90"/>
      <point x="225" y="-17"/>
      <point x="203" y="38" type="qcurve"/>
      <point x="193" y="60"/>
      <point x="187" y="104"/>
      <point x="187" y="128" type="qcurve" smooth="yes"/>
      <point x="187" y="134" type="line"/>
      <point x="186" y="134" type="line"/>
      <point x="186" y="317" type="line"/>
    </contour>
  </outline>
</glyph>
<glyph name="bar" format="2">
  <advance width="168"/>
  <unicode hex="007C"/>
  <outline>
    <contour>
      <point x="76" y="-42" type="line"/>
      <point x="76" y="889" type="line"/>
      <point x="92" y="889" type="line"/>
      <point x="92" y="-42" type="line"/>
    </contour>
  </outline>
</glyph>
<glyph name="braceright" format="2">
  <advance width="389"/>
  <unicode hex="007D"/>
  <outline>
    <contour>
      <point x="16" y="-95" type="qcurve"/>
      <point x="16" y="-77" type="line"/>
      <point x="52" y="-74"/>
      <point x="114" y="-43"/>
      <point x="161" y="5"/>
      <point x="189" y="68"/>
      <point x="192" y="103" type="qcurve"/>
      <point x="193" y="103" type="line"/>
      <point x="193" y="325" type="line"/>
      <point x="289" y="422" type="line"/>
      <point x="193" y="519" type="line"/>
      <point x="193" y="743" type="line"/>
      <point x="192" y="743" type="line"/>
      <point x="189" y="778"/>
      <point x="160" y="840"/>
      <point x="114" y="888"/>
      <point x="52" y="919"/>
      <point x="16" y="922" type="qcurve"/>
      <point x="16" y="940" type="line"/>
      <point x="77" y="935"/>
      <point x="171" y="862"/>
      <point x="193" y="807" type="qcurve" smooth="yes"/>
      <point x="203" y="784"/>
      <point x="209" y="740"/>
      <point x="209" y="716" type="qcurve" smooth="yes"/>
      <point x="209" y="710" type="line"/>
      <point x="211" y="710" type="line"/>
      <point x="211" y="527" type="line"/>
      <point x="313" y="422" type="line"/>
      <point x="211" y="316" type="line"/>
      <point x="211" y="135" type="line"/>
      <point x="209" y="135" type="line"/>
      <point x="209" y="129" type="line" smooth="yes"/>
      <point x="209" y="105"/>
      <point x="203" y="61"/>
      <point x="193" y="39" type="qcurve" smooth="yes"/>
      <point x="170" y="-17"/>
      <point x="77" y="-90"/>
    </contour>
  </outline>
</glyph>
<glyph name="asciitilde" format="2">
  <advance width="533"/>
  <unicode hex="007E"/>
  <outline>
    <contour>
      <point x="37" y="213" type="line"/>
      <point x="40" y="238"/>
      <point x="62" y="281"/>
      <point x="97" y="314"/>
      <point x="143" y="333"/>
      <point x="171" y="333" type="qcurve" smooth="yes"/>
      <point x="207" y="333"/>
      <point x="253" y="303"/>
      <point x="272" y="284" type="qcurve" smooth="yes"/>
      <point x="278" y="278"/>
      <point x="288" y="270"/>
      <point x="292" y="267" type="qcurve" smooth="yes"/>
      <point x="312" y="248"/>
      <point x="349" y="231"/>
      <point x="375" y="231" type="qcurve" smooth="yes"/>
      <point x="423" y="231"/>
      <point x="484" y="288"/>
      <point x="489" y="333" type="qcurve"/>
      <point x="506" y="333" type="line"/>
      <point x="503" y="309"/>
      <point x="481" y="265"/>
      <point x="446" y="232"/>
      <point x="401" y="213"/>
      <point x="374" y="213" type="qcurve" smooth="yes"/>
      <point x="337" y="213"/>
      <point x="290" y="244"/>
      <point x="269" y="265" type="qcurve" smooth="yes"/>
      <point x="248" y="285"/>
      <point x="202" y="316"/>
      <point x="168" y="316" type="qcurve" smooth="yes"/>
      <point x="121" y="316"/>
      <point x="59" y="258"/>
      <point x="53" y="213" type="qcurve"/>
    </contour>
  </outline>
</glyph>
<glyph name="uni0080" format="2">
  <advance width="502"/>
  <unicode hex="0080"/>
  <unicode hex="20AC"/>
  <unicode hex="F700"/>
  <outline>
    <contour>
      <point x="63" y="577" type="qcurve"/>
      <point x="47" y="593" type="line"/>
      <point x="64" y="605"/>
      <point x="107" y="621"/>
      <point x="153" y="630"/>
      <point x="201" y="633"/>
      <point x="222" y="633" type="qcurve" smooth="yes"/>
      <point x="270" y="633"/>
      <point x="349" y="616"/>
      <point x="386" y="587" type="qcurve" smooth="yes"/>
      <point x="401" y="576" type="line"/>
      <point x="404" y="582" type="line" smooth="yes"/>
      <point x="418" y="604"/>
      <point x="421" y="633" type="qcurve"/>
      <point x="443" y="633" type="line"/>
      <point x="441" y="611"/>
      <point x="428" y="581"/>
      <point x="416" y="561" type="qcurve" smooth="yes"/>
      <point x="414" y="557" type="line"/>
      <point x="416" y="554" type="line" smooth="yes"/>
      <point x="428" y="536"/>
      <point x="444" y="493"/>
      <point x="444" y="471" type="qcurve" smooth="yes"/>
      <point x="444" y="0" type="line"/>
      <point x="422" y="0" type="line"/>
      <point x="422" y="171" type="line" smooth="yes"/>
      <point x="422" y="206"/>
      <point x="390" y="256"/>
      <point x="340" y="290"/>
      <point x="278" y="308"/>
      <point x="248" y="310" type="qcurve"/>
      <point x="248" y="333" type="line"/>
      <point x="275" y="332"/>
      <point x="318" y="323"/>
      <point x="356" y="307"/>
      <point x="392" y="282"/>
      <point x="412" y="263" type="qcurve" smooth="yes"/>
      <point x="422" y="253" type="line"/>
      <point x="422" y="471" type="line" smooth="yes"/>
      <point x="422" y="505"/>
      <point x="404" y="533" type="qcurve" smooth="yes"/>
      <point x="390" y="554"/>
      <point x="348" y="585"/>
      <point x="300" y="602"/>
      <point x="248" y="609"/>
      <point x="221" y="609" type="qcurve" smooth="yes"/>
      <point x="206" y="609"/>
      <point x="163" y="607"/>
      <point x="119" y="600"/>
      <point x="78" y="588"/>
    </contour>
  </outline>
</glyph>
<glyph name="uni0081" format="2">
  <unicode hex="0081"/>
  <unicode hex="F701"/>
  <outline>
    <contour>
      <point x="-540" y="760" type="line"/>
      <point x="-540" y="784" type="line"/>
      <point x="-168" y="784" type="line"/>
      <point x="-168" y="760" type="line"/>
    </contour>
  </outline>
</glyph>
<glyph name="uni0082" format="2">
  <unicode hex="0082"/>
  <unicode hex="201A"/>
  <unicode hex="F702"/>
  <outline>
    <contour>
      <point x="-540" y="760" type="line"/>
      <point x="-540" y="784" type="line"/>
      <point x="-253" y="784" type="line" smooth="yes"/>
      <point x="-226" y="784"/>
      <point x="-190" y="820"/>
      <point x="-190" y="847" type="qcurve" smooth="yes"/>
      <point x="-190" y="893" type="line"/>
      <point x="-168" y="893" type="line"/>
      <point x="-168" y="847" type="line" smooth="yes"/>
      <point x="-168" y="811"/>
      <point x="-215" y="760"/>
      <point x="-253" y="760" type="qcurve" smooth="yes"/>
    </contour>
  </outline>
</glyph>
<glyph name="uni0083" format="2">
  <unicode hex="0083"/>
  <unicode hex="0192"/>
  <unicode hex="F703"/>
  <outline>
    <contour>
      <point x="-304" y="837" type="qcurve" smooth="yes"/>
      <point x="-304" y="811"/>
      <point x="-270" y="777"/>
      <point x="-243" y="777" type="qcurve" smooth="yes"/>
      <point x="-216" y="777"/>
      <point x="-181" y="813"/>
      <point x="-181" y="838" type="qcurve" smooth="yes"/>
      <point x="-181" y="863"/>
      <point x="-218" y="901"/>
      <point x="-244" y="901" type="qcurve" smooth="yes"/>
      <point x="-271" y="901"/>
      <point x="-304" y="862"/>
    </contour>
    <contour>
      <point x="-541" y="760" type="line"/>
      <point x="-541" y="784" type="line"/>
      <point x="-301" y="784" type="line"/>
      <point x="-306" y="793" type="line" smooth="yes"/>
      <point x="-312" y="804"/>
      <point x="-318" y="823"/>
      <point x="-318" y="835" type="qcurve" smooth="yes"/>
      <point x="-318" y="852"/>
      <point x="-305" y="880"/>
      <point x="-284" y="902"/>
      <point x="-256" y="915"/>
      <point x="-240" y="915" type="qcurve" smooth="yes"/>
      <point x="-209" y="915"/>
      <point x="-169" y="871"/>
      <point x="-169" y="840" type="qcurve" smooth="yes"/>
      <point x="-169" y="809"/>
      <point x="-209" y="760"/>
      <point x="-243" y="760" type="qcurve" smooth="yes"/>
    </contour>
  </outline>
</glyph>
<glyph name="uni0084" format="2">
  <unicode hex="0084"/>
  <unicode hex="201E"/>
  <unicode hex="F704"/>
  <outline>
    <contour>
      <point x="-540" y="760" type="line"/>
      <point x="-540" y="784" type="line"/>
      <point x="-367" y="784" type="line" smooth="yes"/>
      <point x="-340" y="784"/>
      <point x="-304" y="820"/>
      <point x="-304" y="847" type="qcurve" smooth="yes"/>
      <point x="-304" y="893" type="line"/>
      <point x="-283" y="893" type="line"/>
      <point x="-283" y="847" type="line" smooth="yes"/>
      <point x="-283" y="832"/>
      <point x="-293" y="806"/>
      <point x="-300" y="793" type="qcurve" smooth="yes"/>
      <point x="-305" y="784" type="line"/>
      <point x="-253" y="784" type="line" smooth="yes"/>
      <point x="-226" y="784"/>
      <point x="-190" y="820"/>
      <point x="-190" y="847" type="qcurve" smooth="yes"/>
      <point x="-190" y="893" type="line"/>
      <point x="-168" y="893" type="line"/>
      <point x="-168" y="847" type="line" smooth="yes"/>
      <point x="-168" y="811"/>
      <point x="-215" y="760"/>
      <point x="-253" y="760" type="qcurve" smooth="yes"/>
    </contour>
  </outline>
</glyph>
<glyph name="uni0085" format="2">
  <advance width="480"/>
  <unicode hex="0085"/>
  <unicode hex="2026"/>
  <outline>
    <contour>
      <point x="76" y="21" type="qcurve" smooth="yes"/>
      <point x="76" y="30"/>
      <point x="88" y="42"/>
      <point x="96" y="42" type="qcurve" smooth="yes"/>
      <point x="105" y="42"/>
      <point x="117" y="31"/>
      <point x="117" y="20" type="qcurve" smooth="yes"/>
      <point x="117" y="0"/>
      <point x="97" y="0" type="qcurve" smooth="yes"/>
      <point x="87" y="0"/>
      <point x="76" y="12"/>
    </contour>
    <contour>
      <point x="223" y="21" type="qcurve" smooth="yes"/>
      <point x="223" y="30"/>
      <point x="235" y="42"/>
      <point x="243" y="42" type="qcurve" smooth="yes"/>
      <point x="252" y="42"/>
      <point x="264" y="31"/>
      <point x="264" y="20" type="qcurve" smooth="yes"/>
      <point x="264" y="0"/>
      <point x="244" y="0" type="qcurve" smooth="yes"/>
      <point x="234" y="0"/>
      <point x="223" y="12"/>
    </contour>
    <contour>
      <point x="370" y="21" type="qcurve" smooth="yes"/>
      <point x="370" y="30"/>
      <point x="382" y="42"/>
      <point x="390" y="42" type="qcurve" smooth="yes"/>
      <point x="399" y="42"/>
      <point x="412" y="30"/>
      <point x="412" y="21" type="qcurve" smooth="yes"/>
      <point x="412" y="12"/>
      <point x="399" y="0"/>
      <point x="390" y="0" type="qcurve" smooth="yes"/>
      <point x="381" y="0"/>
      <point x="370" y="12"/>
    </contour>
  </outline>
</glyph>
<glyph name="uni0086" format="2">
  <unicode hex="0086"/>
  <unicode hex="2020"/>
  <unicode hex="F705"/>
  <outline>
    <contour>
      <point x="-198" y="740" type="line"/>
      <point x="-198" y="896" type="line"/>
      <point x="-175" y="896" type="line"/>
      <point x="-175" y="740" type="line"/>
    </contour>
  </outline>
</glyph>
<glyph name="uni0087" format="2">
  <unicode hex="0087"/>
  <unicode hex="2021"/>
  <unicode hex="F706"/>
  <outline>
    <contour>
      <point x="-334" y="822" type="qcurve" smooth="yes"/>
      <point x="-334" y="871" type="line"/>
      <point x="-406" y="871" type="line"/>
      <point x="-406" y="886" type="line"/>
      <point x="-327" y="886" type="line" smooth="yes"/>
      <point x="-322" y="886"/>
      <point x="-320" y="876"/>
      <point x="-320" y="872" type="qcurve" smooth="yes"/>
      <point x="-320" y="868"/>
      <point x="-320" y="864" type="qcurve" smooth="yes"/>
      <point x="-320" y="860"/>
      <point x="-321" y="848"/>
      <point x="-321" y="841" type="qcurve" smooth="yes"/>
      <point x="-321" y="829"/>
      <point x="-318" y="801"/>
      <point x="-307" y="777"/>
      <point x="-285" y="759"/>
      <point x="-266" y="755" type="qcurve"/>
      <point x="-265" y="755" type="line"/>
      <point x="-263" y="754"/>
      <point x="-261" y="754" type="qcurve" smooth="yes"/>
      <point x="-48" y="754" type="line"/>
      <point x="-48" y="740" type="line"/>
      <point x="-254" y="740" type="line" smooth="yes"/>
      <point x="-290" y="740"/>
      <point x="-334" y="787"/>
    </contour>
  </outline>
</glyph>
<glyph name="uni0088" format="2">
  <unicode hex="0088"/>
  <unicode hex="02C6"/>
  <unicode hex="F707"/>
  <outline>
    <contour>
      <point x="-503" y="741" type="line"/>
      <point x="-504" y="749"/>
      <point x="-504" y="767" type="qcurve" smooth="yes"/>
      <point x="-504" y="813"/>
      <point x="-476" y="877"/>
      <point x="-435" y="888" type="qcurve" smooth="yes"/>
      <point x="-431" y="889"/>
      <point x="-428" y="889" type="qcurve" smooth="yes"/>
      <point x="-422" y="889"/>
      <point x="-419" y="886" type="qcurve" smooth="yes"/>
      <point x="-367" y="833" type="line"/>
      <point x="-317" y="883" type="line" smooth="yes"/>
      <point x="-314" y="886"/>
      <point x="-311" y="887"/>
      <point x="-307" y="887" type="qcurve" smooth="yes"/>
      <point x="-297" y="887"/>
      <point x="-281" y="879"/>
      <point x="-274" y="875" type="qcurve" smooth="yes"/>
      <point x="-249" y="860"/>
      <point x="-232" y="818"/>
      <point x="-228" y="792" type="qcurve" smooth="yes"/>
      <point x="-226" y="784"/>
      <point x="-226" y="768"/>
      <point x="-224" y="759" type="qcurve" smooth="yes"/>
      <point x="-223" y="754" type="line"/>
      <point x="-128" y="754" type="line"/>
      <point x="-128" y="740" type="line"/>
      <point x="-233" y="740" type="line" smooth="yes"/>
      <point x="-240" y="740"/>
      <point x="-240" y="755" type="qcurve" smooth="yes"/>
      <point x="-240" y="773"/>
      <point x="-248" y="829"/>
      <point x="-266" y="852" type="qcurve"/>
      <point x="-275" y="861"/>
      <point x="-284" y="865" type="qcurve" smooth="yes"/>
      <point x="-289" y="867"/>
      <point x="-293" y="868" type="qcurve" smooth="yes"/>
      <point x="-306" y="872" type="line"/>
      <point x="-362" y="816" type="line" smooth="yes"/>
      <point x="-365" y="813"/>
      <point x="-368" y="813" type="qcurve" smooth="yes"/>
      <point x="-370" y="813" type="line"/>
      <point x="-371" y="815"/>
      <point x="-372" y="815"/>
      <point x="-373" y="816" type="qcurve" smooth="yes"/>
      <point x="-428" y="873" type="line"/>
      <point x="-431" y="873" type="line"/>
      <point x="-442" y="871"/>
      <point x="-459" y="865"/>
      <point x="-468" y="855" type="qcurve" smooth="yes"/>
      <point x="-481" y="838"/>
      <point x="-491" y="795"/>
      <point x="-491" y="774" type="qcurve" smooth="yes"/>
      <point x="-491" y="756" type="line" smooth="yes"/>
      <point x="-491" y="748"/>
      <point x="-490" y="744" type="qcurve"/>
    </contour>
  </outline>
</glyph>
<glyph name="uni0089" format="2">
  <unicode hex="0089"/>
  <unicode hex="2030"/>
  <unicode hex="F708"/>
  <outline>
    <contour>
      <point x="-283" y="810" type="line"/>
      <point x="-283" y="825" type="line"/>
      <point x="-214" y="825" type="line"/>
      <point x="-214" y="896" type="line"/>
      <point x="-200" y="896" type="line"/>
      <point x="-200" y="825" type="line"/>
      <point x="-131" y="825" type="line"/>
      <point x="-131" y="810" type="line"/>
      <point x="-200" y="810" type="line"/>
      <point x="-200" y="740" type="line"/>
      <point x="-214" y="740" type="line"/>
      <point x="-214" y="810" type="line"/>
    </contour>
  </outline>
</glyph>
<glyph name="uni008A" format="2">
  <unicode hex="008A"/>
  <unicode hex="0160"/>
  <unicode hex="F709"/>
  <outline>
    <contour>
      <point x="-328" y="740" type="line"/>
      <point x="-328" y="807" type="line" smooth="yes"/>
      <point x="-328" y="822"/>
      <point x="-318" y="852"/>
      <point x="-298" y="876"/>
      <point x="-272" y="892"/>
      <point x="-250" y="894" type="qcurve" smooth="yes"/>
      <point x="-240" y="895"/>
      <point x="-228" y="895" type="qcurve" smooth="yes"/>
      <point x="-222" y="895"/>
      <point x="-195" y="894"/>
      <point x="-175" y="894" type="qcurve" smooth="yes"/>
      <point x="-33" y="894" type="line"/>
      <point x="-33" y="871" type="line"/>
      <point x="-243" y="871" type="line" smooth="yes"/>
      <point x="-263" y="871"/>
      <point x="-288" y="856"/>
      <point x="-301" y="833"/>
      <point x="-305" y="804"/>
      <point x="-305" y="790" type="qcurve" smooth="yes"/>
      <point x="-305" y="740" type="line"/>
    </contour>
  </outline>
</glyph>
<glyph name="uni008B" format="2">
  <unicode hex="008B"/>
  <unicode hex="2039"/>
  <unicode hex="F70A"/>
  <outline>
    <contour>
      <point x="-118" y="740" type="line"/>
      <point x="-118" y="896" type="line"/>
      <point x="-95" y="896" type="line"/>
      <point x="-95" y="740" type="line"/>
    </contour>
  </outline>
</glyph>
<glyph name="uni008C" format="2">
  <unicode hex="008C"/>
  <unicode hex="0152"/>
  <unicode hex="F70B"/>
  <outline>
    <contour>
      <point x="-243" y="822" type="qcurve" smooth="yes"/>
      <point x="-243" y="871" type="line"/>
      <point x="-315" y="871" type="line"/>
      <point x="-315" y="886" type="line"/>
      <point x="-236" y="886" type="line" smooth="yes"/>
      <point x="-231" y="886"/>
      <point x="-229" y="876"/>
      <point x="-229" y="872" type="qcurve" smooth="yes"/>
      <point x="-229" y="868"/>
      <point x="-229" y="864" type="qcurve" smooth="yes"/>
      <point x="-229" y="860"/>
      <point x="-230" y="849"/>
      <point x="-230" y="842" type="qcurve" smooth="yes"/>
      <point x="-230" y="830"/>
      <point x="-227" y="801"/>
      <point x="-216" y="777"/>
      <point x="-194" y="759"/>
      <point x="-175" y="755" type="qcurve"/>
      <point x="-174" y="755" type="line"/>
      <point x="-172" y="754"/>
      <point x="-170" y="754" type="qcurve" smooth="yes"/>
      <point x="43" y="754" type="line"/>
      <point x="43" y="740" type="line"/>
      <point x="-163" y="740" type="line" smooth="yes"/>
      <point x="-199" y="740"/>
      <point x="-243" y="787"/>
    </contour>
  </outline>
</glyph>
<glyph name="uni008D" format="2">
  <unicode hex="008D"/>
  <unicode hex="F70C"/>
  <outline>
    <contour>
      <point x="-342" y="741" type="line"/>
      <point x="-343" y="749"/>
      <point x="-343" y="767" type="qcurve" smooth="yes"/>
      <point x="-343" y="813"/>
      <point x="-315" y="877"/>
      <point x="-274" y="888" type="qcurve" smooth="yes"/>
      <point x="-270" y="889"/>
      <point x="-267" y="889" type="qcurve" smooth="yes"/>
      <point x="-261" y="889"/>
      <point x="-258" y="886" type="qcurve" smooth="yes"/>
      <point x="-206" y="833" type="line"/>
      <point x="-156" y="883" type="line" smooth="yes"/>
      <point x="-153" y="886"/>
      <point x="-150" y="887"/>
      <point x="-146" y="887" type="qcurve" smooth="yes"/>
      <point x="-136" y="887"/>
      <point x="-120" y="879"/>
      <point x="-113" y="875" type="qcurve" smooth="yes"/>
      <point x="-88" y="860"/>
      <point x="-71" y="818"/>
      <point x="-67" y="792" type="qcurve" smooth="yes"/>
      <point x="-65" y="784"/>
      <point x="-65" y="768"/>
      <point x="-63" y="759" type="qcurve" smooth="yes"/>
      <point x="-62" y="754" type="line"/>
      <point x="33" y="754" type="line"/>
      <point x="33" y="740" type="line"/>
      <point x="-72" y="740" type="line" smooth="yes"/>
      <point x="-79" y="740"/>
      <point x="-79" y="755" type="qcurve" smooth="yes"/>
      <point x="-79" y="773"/>
      <point x="-87" y="829"/>
      <point x="-105" y="852" type="qcurve"/>
      <point x="-114" y="861"/>
      <point x="-123" y="865" type="qcurve" smooth="yes"/>
      <point x="-128" y="867"/>
      <point x="-132" y="868" type="qcurve" smooth="yes"/>
      <point x="-145" y="872" type="line"/>
      <point x="-201" y="816" type="line" smooth="yes"/>
      <point x="-204" y="813"/>
      <point x="-207" y="813" type="qcurve" smooth="yes"/>
      <point x="-209" y="813" type="line"/>
      <point x="-210" y="815"/>
      <point x="-211" y="815"/>
      <point x="-212" y="816" type="qcurve" smooth="yes"/>
      <point x="-267" y="873" type="line"/>
      <point x="-270" y="873" type="line"/>
      <point x="-281" y="871"/>
      <point x="-298" y="865"/>
      <point x="-307" y="855" type="qcurve" smooth="yes"/>
      <point x="-320" y="838"/>
      <point x="-330" y="795"/>
      <point x="-330" y="774" type="qcurve" smooth="yes"/>
      <point x="-330" y="756" type="line" smooth="yes"/>
      <point x="-330" y="748"/>
      <point x="-329" y="744" type="qcurve"/>
    </contour>
  </outline>
</glyph>
<glyph name="uni008E" format="2">
  <unicode hex="008E"/>
  <unicode hex="017D"/>
  <unicode hex="F70D"/>
  <outline>
    <contour>
      <point x="-177" y="810" type="line"/>
      <point x="-177" y="825" type="line"/>
      <point x="-108" y="825" type="line"/>
      <point x="-108" y="896" type="line"/>
      <point x="-94" y="896" type="line"/>
      <point x="-94" y="825" type="line"/>
      <point x="-25" y="825" type="line"/>
      <point x="-25" y="810" type="line"/>
      <point x="-94" y="810" type="line"/>
      <point x="-94" y="740" type="line"/>
      <point x="-108" y="740" type="line"/>
      <point x="-108" y="810" type="line"/>
    </contour>
  </outline>
</glyph>
<glyph name="uni008F" format="2">
  <unicode hex="008F"/>
  <unicode hex="F70E"/>
  <outline>
    <contour>
      <point x="-305" y="740" type="line"/>
      <point x="-305" y="807" type="line" smooth="yes"/>
      <point x="-305" y="822"/>
      <point x="-295" y="852"/>
      <point x="-275" y="876"/>
      <point x="-249" y="892"/>
      <point x="-232" y="893" type="qcurve"/>
      <point x="-219" y="895"/>
      <point x="-206" y="895" type="qcurve" smooth="yes"/>
      <point x="-203" y="895"/>
      <point x="-183" y="894"/>
      <point x="-166" y="894" type="qcurve" smooth="yes"/>
      <point x="-50" y="894" type="line"/>
      <point x="-50" y="871" type="line"/>
      <point x="-220" y="871" type="line" smooth="yes"/>
      <point x="-240" y="871"/>
      <point x="-265" y="856"/>
      <point x="-278" y="833"/>
      <point x="-282" y="804"/>
      <point x="-282" y="790" type="qcurve" smooth="yes"/>
      <point x="-282" y="740" type="line"/>
    </contour>
  </outline>
</glyph>
<glyph name="uni0091" format="2">
  <advance width="192"/>
  <unicode hex="0091"/>
  <unicode hex="2018"/>
  <outline>
    <contour>
      <point x="73" y="626" type="qcurve" smooth="yes"/>
      <point x="73" y="646"/>
      <point x="78" y="686"/>
      <point x="81" y="706" type="qcurve"/>
      <point x="103" y="703" type="line"/>
      <point x="101" y="683"/>
      <point x="96" y="645"/>
      <point x="96" y="626" type="qcurve" smooth="yes"/>
      <point x="96" y="599"/>
      <point x="106" y="551"/>
      <point x="122" y="529" type="qcurve"/>
      <point x="106" y="513" type="line"/>
      <point x="86" y="537"/>
      <point x="73" y="594"/>
    </contour>
  </outline>
</glyph>
<glyph name="uni0092" format="2">
  <advance width="192"/>
  <unicode hex="0092"/>
  <unicode hex="2019"/>
  <outline>
    <contour>
      <point x="97" y="510" type="line"/>
      <point x="99" y="529"/>
      <point x="105" y="567"/>
      <point x="105" y="587" type="qcurve" smooth="yes"/>
      <point x="105" y="613"/>
      <point x="94" y="661"/>
      <point x="78" y="682" type="qcurve"/>
      <point x="95" y="700" type="line"/>
      <point x="114" y="674"/>
      <point x="127" y="618"/>
      <point x="127" y="586" type="qcurve" smooth="yes"/>
      <point x="127" y="566"/>
      <point x="122" y="527"/>
      <point x="119" y="507" type="qcurve"/>
    </contour>
  </outline>
</glyph>
<glyph name="uni0093" format="2">
  <advance width="412"/>
  <unicode hex="0093"/>
  <unicode hex="201C"/>
  <outline>
    <contour>
      <point x="105" y="626" type="qcurve" smooth="yes"/>
      <point x="105" y="646"/>
      <point x="110" y="686"/>
      <point x="113" y="706" type="qcurve"/>
      <point x="135" y="703" type="line"/>
      <point x="133" y="683"/>
      <point x="128" y="645"/>
      <point x="128" y="626" type="qcurve" smooth="yes"/>
      <point x="128" y="599"/>
      <point x="138" y="551"/>
      <point x="154" y="529" type="qcurve"/>
      <point x="138" y="513" type="line"/>
      <point x="118" y="537"/>
      <point x="105" y="594"/>
    </contour>
    <contour>
      <point x="269" y="626" type="qcurve" smooth="yes"/>
      <point x="269" y="646"/>
      <point x="274" y="686"/>
      <point x="277" y="706" type="qcurve"/>
      <point x="300" y="703" type="line"/>
      <point x="298" y="683"/>
      <point x="292" y="645"/>
      <point x="292" y="625" type="qcurve" smooth="yes"/>
      <point x="292" y="599"/>
      <point x="302" y="551"/>
      <point x="319" y="529" type="qcurve"/>
      <point x="303" y="513" type="line"/>
      <point x="283" y="537"/>
      <point x="269" y="594"/>
    </contour>
  </outline>
</glyph>
<glyph name="uni0094" format="2">
  <advance width="383"/>
  <unicode hex="0094"/>
  <unicode hex="201D"/>
  <outline>
    <contour>
      <point x="105" y="510" type="line"/>
      <point x="107" y="529"/>
      <point x="113" y="567"/>
      <point x="113" y="587" type="qcurve" smooth="yes"/>
      <point x="113" y="613"/>
      <point x="102" y="661"/>
      <point x="86" y="682" type="qcurve"/>
      <point x="103" y="700" type="line"/>
      <point x="122" y="674"/>
      <point x="135" y="618"/>
      <point x="135" y="586" type="qcurve" smooth="yes"/>
      <point x="135" y="566"/>
      <point x="130" y="527"/>
      <point x="127" y="507" type="qcurve"/>
    </contour>
    <contour>
      <point x="269" y="510" type="line"/>
      <point x="271" y="529"/>
      <point x="276" y="567"/>
      <point x="276" y="586" type="qcurve" smooth="yes"/>
      <point x="276" y="613"/>
      <point x="266" y="661"/>
      <point x="249" y="683" type="qcurve"/>
      <point x="266" y="700" type="line"/>
      <point x="286" y="674"/>
      <point x="299" y="618"/>
      <point x="299" y="586" type="qcurve" smooth="yes"/>
      <point x="299" y="566"/>
      <point x="294" y="527"/>
      <point x="291" y="507" type="qcurve"/>
    </contour>
  </outline>
</glyph>
<glyph name="uni0095" format="2">
  <advance width="343"/>
  <unicode hex="0095"/>
  <unicode hex="2022"/>
  <outline>
    <contour>
      <point x="62" y="182" type="qcurve" smooth="yes"/>
      <point x="62" y="204"/>
      <point x="80" y="245"/>
      <point x="110" y="277"/>
      <point x="151" y="296"/>
      <point x="174" y="296" type="qcurve" smooth="yes"/>
      <point x="197" y="296"/>
      <point x="237" y="277"/>
      <point x="267" y="246"/>
      <point x="285" y="205"/>
      <point x="285" y="182" type="qcurve" smooth="yes"/>
      <point x="285" y="160"/>
      <point x="267" y="119"/>
      <point x="237" y="87"/>
      <point x="197" y="68"/>
      <point x="174" y="68" type="qcurve" smooth="yes"/>
      <point x="151" y="68"/>
      <point x="110" y="87"/>
      <point x="80" y="118"/>
      <point x="62" y="160"/>
    </contour>
  </outline>
</glyph>
<glyph name="uni0096" format="2">
  <advance width="461"/>
  <unicode hex="0096"/>
  <unicode hex="2013"/>
  <outline>
    <contour>
      <point x="76" y="243" type="line"/>
      <point x="76" y="261" type="line"/>
      <point x="391" y="261" type="line"/>
      <point x="391" y="243" type="line"/>
    </contour>
  </outline>
</glyph>
<glyph name="uni0097" format="2">
  <advance width="441"/>
  <unicode hex="0097"/>
  <unicode hex="2014"/>
  <outline>
    <contour>
      <point x="16" y="243" type="line"/>
      <point x="16" y="261" type="line"/>
      <point x="434" y="261" type="line"/>
      <point x="434" y="243" type="line"/>
    </contour>
  </outline>
</glyph>
<glyph name="uni0098" format="2">
  <unicode hex="0098"/>
  <unicode hex="02DC"/>
  <unicode hex="F710"/>
  <outline>
    <contour>
      <point x="-345" y="826" type="qcurve" smooth="yes"/>
      <point x="-345" y="894" type="line"/>
      <point x="-322" y="894" type="line"/>
      <point x="-322" y="826" type="line" smooth="yes"/>
      <point x="-322" y="800"/>
      <point x="-289" y="764"/>
      <point x="-260" y="764" type="qcurve" smooth="yes"/>
      <point x="-50" y="764" type="line"/>
      <point x="-50" y="740" type="line"/>
      <point x="-260" y="740" type="line" smooth="yes"/>
      <point x="-297" y="740"/>
      <point x="-345" y="791"/>
    </contour>
  </outline>
</glyph>
<glyph name="uni0099" format="2">
  <unicode hex="0099"/>
  <unicode hex="2122"/>
  <unicode hex="F711"/>
  <outline>
    <contour>
      <point x="-193" y="790" type="qcurve" smooth="yes"/>
      <point x="-193" y="763"/>
      <point x="-153" y="728"/>
      <point x="-127" y="728" type="qcurve" smooth="yes"/>
      <point x="-99" y="728"/>
      <point x="-66" y="765"/>
      <point x="-66" y="790" type="qcurve" smooth="yes"/>
      <point x="-66" y="817"/>
      <point x="-105" y="851"/>
      <point x="-131" y="851" type="qcurve" smooth="yes"/>
      <point x="-159" y="851"/>
      <point x="-193" y="815"/>
    </contour>
    <contour>
      <point x="-206" y="791" type="qcurve" smooth="yes"/>
      <point x="-206" y="823"/>
      <point x="-162" y="867"/>
      <point x="-130" y="867" type="qcurve" smooth="yes"/>
      <point x="-97" y="867"/>
      <point x="-53" y="822"/>
      <point x="-53" y="790" type="qcurve" smooth="yes"/>
      <point x="-53" y="757"/>
      <point x="-99" y="712"/>
      <point x="-131" y="712" type="qcurve" smooth="yes"/>
      <point x="-164" y="712"/>
      <point x="-206" y="759"/>
    </contour>
  </outline>
</glyph>
<glyph name="uni009A" format="2">
  <unicode hex="009A"/>
  <unicode hex="0161"/>
  <unicode hex="F712"/>
  <outline>
    <contour>
      <point x="-493" y="839" type="qcurve" smooth="yes"/>
      <point x="-493" y="863"/>
      <point x="-482" y="884" type="qcurve" smooth="yes"/>
      <point x="-471" y="906"/>
      <point x="-430" y="938"/>
      <point x="-381" y="957"/>
      <point x="-327" y="965"/>
      <point x="-304" y="965" type="qcurve" smooth="yes"/>
      <point x="-285" y="965"/>
      <point x="-274" y="961" type="qcurve" smooth="yes"/>
      <point x="-270" y="960"/>
      <point x="-264" y="959"/>
      <point x="-260" y="958" type="qcurve"/>
      <point x="-246" y="958"/>
      <point x="-224" y="959"/>
      <point x="-204" y="963"/>
      <point x="-183" y="972"/>
      <point x="-170" y="980" type="qcurve"/>
      <point x="-159" y="968" type="line"/>
      <point x="-200" y="944"/>
      <point x="-249" y="944" type="qcurve" smooth="yes"/>
      <point x="-263" y="944"/>
      <point x="-294" y="947"/>
      <point x="-310" y="947" type="qcurve" smooth="yes"/>
      <point x="-335" y="947"/>
      <point x="-393" y="939"/>
      <point x="-444" y="916"/>
      <point x="-478" y="875"/>
      <point x="-478" y="843" type="qcurve" smooth="yes"/>
      <point x="-478" y="803"/>
      <point x="-427" y="752"/>
      <point x="-388" y="752" type="qcurve"/>
      <point x="-387" y="752"/>
      <point x="-385" y="752" type="qcurve" smooth="yes"/>
      <point x="-382" y="752" type="line"/>
      <point x="-306" y="832" type="line"/>
      <point x="-302" y="834"/>
      <point x="-301" y="834" type="qcurve"/>
      <point x="-299" y="834" type="line" smooth="yes"/>
      <point x="-297" y="834"/>
      <point x="-296" y="833" type="qcurve"/>
      <point x="-294" y="833" type="line"/>
      <point x="-219" y="754" type="line"/>
      <point x="-168" y="754" type="line"/>
      <point x="-168" y="740" type="line"/>
      <point x="-222" y="740" type="line"/>
      <point x="-224" y="741" type="line" smooth="yes"/>
      <point x="-230" y="745"/>
      <point x="-233" y="748" type="qcurve" smooth="yes"/>
      <point x="-252" y="767" type="line" smooth="yes"/>
      <point x="-269" y="784"/>
      <point x="-290" y="807"/>
      <point x="-295" y="811" type="qcurve" smooth="yes"/>
      <point x="-300" y="815" type="line"/>
      <point x="-374" y="739" type="line"/>
      <point x="-378" y="737"/>
      <point x="-387" y="737" type="qcurve" smooth="yes"/>
      <point x="-432" y="737"/>
      <point x="-493" y="793"/>
    </contour>
  </outline>
</glyph>
<glyph name="uni009B" format="2">
  <unicode hex="009B"/>
  <unicode hex="203A"/>
  <unicode hex="F713"/>
  <outline>
    <contour>
      <point x="-198" y="979" type="line"/>
      <point x="-198" y="1134" type="line"/>
      <point x="-175" y="1134" type="line"/>
      <point x="-175" y="979" type="line"/>
    </contour>
  </outline>
</glyph>
<glyph name="uni009C" format="2">
  <unicode hex="009C"/>
  <unicode hex="0153"/>
  <unicode hex="F714"/>
  <outline>
    <contour>
      <point x="-334" y="1061" type="qcurve" smooth="yes"/>
      <point x="-334" y="1110" type="line"/>
      <point x="-406" y="1110" type="line"/>
      <point x="-406" y="1125" type="line"/>
      <point x="-327" y="1125" type="line" smooth="yes"/>
      <point x="-322" y="1125"/>
      <point x="-320" y="1115"/>
      <point x="-320" y="1111" type="qcurve" smooth="yes"/>
      <point x="-320" y="1107"/>
      <point x="-320" y="1103" type="qcurve" smooth="yes"/>
      <point x="-320" y="1099"/>
      <point x="-321" y="1086"/>
      <point x="-321" y="1079" type="qcurve" smooth="yes"/>
      <point x="-321" y="1067"/>
      <point x="-318" y="1039"/>
      <point x="-307" y="1015"/>
      <point x="-285" y="998"/>
      <point x="-266" y="994" type="qcurve"/>
      <point x="-265" y="994" type="line"/>
      <point x="-263" y="993"/>
      <point x="-261" y="993" type="qcurve" smooth="yes"/>
      <point x="-48" y="993" type="line"/>
      <point x="-48" y="979" type="line"/>
      <point x="-254" y="979" type="line" smooth="yes"/>
      <point x="-290" y="979"/>
      <point x="-334" y="1026"/>
    </contour>
  </outline>
</glyph>
<glyph name="uni009D" format="2">
  <unicode hex="009D"/>
  <unicode hex="F715"/>
  <outline>
    <contour>
      <point x="-503" y="980" type="line"/>
      <point x="-504" y="988"/>
      <point x="-504" y="1005" type="qcurve" smooth="yes"/>
      <point x="-504" y="1052"/>
      <point x="-476" y="1116"/>
      <point x="-435" y="1127" type="qcurve" smooth="yes"/>
      <point x="-431" y="1128"/>
      <point x="-428" y="1128" type="qcurve" smooth="yes"/>
      <point x="-422" y="1128"/>
      <point x="-419" y="1125" type="qcurve" smooth="yes"/>
      <point x="-367" y="1071" type="line"/>
      <point x="-317" y="1122" type="line" smooth="yes"/>
      <point x="-314" y="1125"/>
      <point x="-311" y="1126"/>
      <point x="-307" y="1126" type="qcurve" smooth="yes"/>
      <point x="-297" y="1126"/>
      <point x="-281" y="1118"/>
      <point x="-273" y="1113" type="qcurve" smooth="yes"/>
      <point x="-249" y="1098"/>
      <point x="-232" y="1057"/>
      <point x="-228" y="1032" type="qcurve" smooth="yes"/>
      <point x="-226" y="1022"/>
      <point x="-226" y="1006"/>
      <point x="-224" y="998" type="qcurve" smooth="yes"/>
      <point x="-223" y="993" type="line"/>
      <point x="-128" y="993" type="line"/>
      <point x="-128" y="979" type="line"/>
      <point x="-233" y="979" type="line" smooth="yes"/>
      <point x="-240" y="979"/>
      <point x="-240" y="993" type="qcurve" smooth="yes"/>
      <point x="-240" y="1011"/>
      <point x="-248" y="1068"/>
      <point x="-266" y="1090" type="qcurve"/>
      <point x="-275" y="1099" type="line" smooth="yes"/>
      <point x="-278" y="1102"/>
      <point x="-285" y="1104" type="qcurve" smooth="yes"/>
      <point x="-289" y="1106"/>
      <point x="-293" y="1107" type="qcurve" smooth="yes"/>
      <point x="-306" y="1111" type="line"/>
      <point x="-362" y="1055" type="line"/>
      <point x="-367" y="1052"/>
      <point x="-368" y="1052" type="qcurve"/>
      <point x="-374" y="1056"/>
      <point x="-378" y="1059" type="qcurve" smooth="yes"/>
      <point x="-386" y="1067" type="line" smooth="yes"/>
      <point x="-390" y="1071"/>
      <point x="-396" y="1078" type="qcurve" smooth="yes"/>
      <point x="-405" y="1087"/>
      <point x="-423" y="1107"/>
      <point x="-426" y="1110" type="qcurve" smooth="yes"/>
      <point x="-428" y="1112" type="line"/>
      <point x="-431" y="1112" type="line"/>
      <point x="-442" y="1110"/>
      <point x="-459" y="1104"/>
      <point x="-468" y="1093" type="qcurve" smooth="yes"/>
      <point x="-481" y="1076"/>
      <point x="-491" y="1034"/>
      <point x="-491" y="1012" type="qcurve" smooth="yes"/>
      <point x="-491" y="995" type="line" smooth="yes"/>
      <point x="-491" y="987"/>
      <point x="-490" y="983" type="qcurve"/>
    </contour>
  </outline>
</glyph>
<glyph name="uni009E" format="2">
  <unicode hex="009E"/>
  <unicode hex="017E"/>
  <unicode hex="F716"/>
  <outline>
    <contour>
      <point x="-283" y="1049" type="line"/>
      <point x="-283" y="1064" type="line"/>
      <point x="-214" y="1064" type="line"/>
      <point x="-214" y="1134" type="line"/>
      <point x="-200" y="1134" type="line"/>
      <point x="-200" y="1064" type="line"/>
      <point x="-131" y="1064" type="line"/>
      <point x="-131" y="1049" type="line"/>
      <point x="-200" y="1049" type="line"/>
      <point x="-200" y="979" type="line"/>
      <point x="-214" y="979" type="line"/>
      <point x="-214" y="1049" type="line"/>
    </contour>
  </outline>
</glyph>
<glyph name="uni009F" format="2">
  <unicode hex="009F"/>
  <unicode hex="0178"/>
  <unicode hex="F717"/>
  <outline>
    <contour>
      <point x="-294" y="979" type="line"/>
      <point x="-294" y="1046" type="line" smooth="yes"/>
      <point x="-294" y="1061"/>
      <point x="-284" y="1091"/>
      <point x="-264" y="1115"/>
      <point x="-238" y="1131"/>
      <point x="-216" y="1133" type="qcurve" smooth="yes"/>
      <point x="-206" y="1134"/>
      <point x="-194" y="1134" type="qcurve" smooth="yes"/>
      <point x="-188" y="1134"/>
      <point x="-161" y="1133"/>
      <point x="-141" y="1133" type="qcurve" smooth="yes"/>
      <point x="1" y="1133" type="line"/>
      <point x="1" y="1110" type="line"/>
      <point x="-209" y="1110" type="line" smooth="yes"/>
      <point x="-229" y="1110"/>
      <point x="-254" y="1095"/>
      <point x="-267" y="1071"/>
      <point x="-271" y="1042"/>
      <point x="-271" y="1028" type="qcurve" smooth="yes"/>
      <point x="-271" y="979" type="line"/>
    </contour>
  </outline>
</glyph>
<glyph name="exclamdown" format="2">
  <advance width="600"/>
  <unicode hex="00A1"/>
  <unicode hex="0E01"/>
  <outline>
    <contour>
      <point x="96" y="0" type="line"/>
      <point x="96" y="507" type="line" smooth="yes"/>
      <point x="96" y="535"/>
      <point x="144" y="569"/>
      <point x="210" y="587"/>
      <point x="278" y="592"/>
      <point x="299" y="592" type="qcurve" smooth="yes"/>
      <point x="336" y="592"/>
      <point x="407" y="579"/>
      <point x="467" y="549"/>
      <point x="510" y="497"/>
      <point x="520" y="457" type="qcurve" smooth="yes"/>
      <point x="521" y="451"/>
      <point x="523" y="438"/>
      <point x="523" y="431" type="qcurve" smooth="yes"/>
      <point x="523" y="0" type="line"/>
      <point x="500" y="0" type="line"/>
      <point x="500" y="431" type="line" smooth="yes"/>
      <point x="500" y="475"/>
      <point x="456" y="529"/>
      <point x="390" y="559"/>
      <point x="313" y="569"/>
      <point x="279" y="569" type="qcurve" smooth="yes"/>
      <point x="264" y="569"/>
      <point x="222" y="567"/>
      <point x="181" y="559"/>
      <point x="143" y="542"/>
      <point x="130" y="528" type="qcurve" smooth="yes"/>
      <point x="125" y="523"/>
      <point x="119" y="512"/>
      <point x="119" y="504" type="qcurve" smooth="yes"/>
      <point x="119" y="0" type="line"/>
    </contour>
  </outline>
</glyph>
<glyph name="cent" format="2">
  <advance width="546"/>
  <unicode hex="00A2"/>
  <unicode hex="0E02"/>
  <outline>
    <contour>
      <point x="105" y="75" type="qcurve" smooth="yes"/>
      <point x="94" y="95"/>
      <point x="85" y="142"/>
      <point x="85" y="171" type="qcurve" smooth="yes"/>
      <point x="85" y="196"/>
      <point x="90" y="257"/>
      <point x="105" y="284" type="qcurve"/>
      <point x="114" y="303"/>
      <point x="137" y="337"/>
      <point x="146" y="351" type="qcurve" smooth="yes"/>
      <point x="159" y="371"/>
      <point x="182" y="402"/>
      <point x="191" y="417" type="qcurve" smooth="yes"/>
      <point x="202" y="436"/>
      <point x="215" y="474"/>
      <point x="215" y="493" type="qcurve" smooth="yes"/>
      <point x="215" y="522"/>
      <point x="180" y="558"/>
      <point x="153" y="558" type="qcurve" smooth="yes"/>
      <point x="67" y="558" type="line"/>
      <point x="67" y="582" type="line"/>
      <point x="153" y="582" type="line" smooth="yes"/>
      <point x="191" y="582"/>
      <point x="237" y="532"/>
      <point x="237" y="494" type="qcurve" smooth="yes"/>
      <point x="237" y="463"/>
      <point x="210" y="402"/>
      <point x="191" y="374" type="qcurve" smooth="yes"/>
      <point x="182" y="361"/>
      <point x="163" y="337"/>
      <point x="156" y="327" type="qcurve" smooth="yes"/>
      <point x="135" y="298"/>
      <point x="108" y="237"/>
      <point x="108" y="190" type="qcurve" smooth="yes"/>
      <point x="108" y="166" type="line" smooth="yes"/>
      <point x="108" y="153"/>
      <point x="110" y="140" type="qcurve"/>
      <point x="112" y="110"/>
      <point x="143" y="62"/>
      <point x="190" y="30"/>
      <point x="247" y="13"/>
      <point x="276" y="13" type="qcurve" smooth="yes"/>
      <point x="306" y="13"/>
      <point x="364" y="31"/>
      <point x="409" y="66"/>
      <point x="436" y="118"/>
      <point x="436" y="152" type="qcurve" smooth="yes"/>
      <point x="436" y="582" type="line"/>
      <point x="458" y="582" type="line"/>
      <point x="458" y="152" type="line" smooth="yes"/>
      <point x="458" y="115"/>
      <point x="428" y="55"/>
      <point x="377" y="13"/>
      <point x="310" y="-10"/>
      <point x="273" y="-10" type="qcurve" smooth="yes"/>
      <point x="223" y="-10"/>
      <point x="131" y="32"/>
    </contour>
  </outline>
</glyph>
<glyph name="sterling" format="2">
  <advance width="570"/>
  <unicode hex="00A3"/>
  <unicode hex="0E03"/>
  <outline>
    <contour>
      <point x="112" y="147" type="qcurve"/>
      <point x="110" y="158"/>
      <point x="110" y="170" type="qcurve" smooth="yes"/>
      <point x="110" y="173"/>
      <point x="111" y="190"/>
      <point x="111" y="200" type="qcurve" smooth="yes"/>
      <point x="111" y="249"/>
      <point x="150" y="321"/>
      <point x="175" y="358" type="qcurve" smooth="yes"/>
      <point x="185" y="372"/>
      <point x="208" y="406"/>
      <point x="216" y="422" type="qcurve" smooth="yes"/>
      <point x="227" y="441"/>
      <point x="239" y="478"/>
      <point x="239" y="497" type="qcurve" smooth="yes"/>
      <point x="239" y="519"/>
      <point x="220" y="555"/>
      <point x="194" y="558" type="qcurve"/>
      <point x="191" y="558" type="line"/>
      <point x="122" y="487" type="line"/>
      <point x="42" y="569" type="line"/>
      <point x="58" y="586" type="line"/>
      <point x="122" y="521" type="line"/>
      <point x="181" y="582" type="line"/>
      <point x="220" y="580"/>
      <point x="261" y="535"/>
      <point x="261" y="495" type="qcurve" smooth="yes"/>
      <point x="261" y="456"/>
      <point x="226" y="390"/>
      <point x="204" y="360" type="qcurve"/>
      <point x="193" y="343"/>
      <point x="171" y="313"/>
      <point x="161" y="298" type="qcurve"/>
      <point x="152" y="281"/>
      <point x="138" y="249"/>
      <point x="136" y="229" type="qcurve" smooth="yes"/>
      <point x="134" y="216"/>
      <point x="134" y="183" type="qcurve" smooth="yes"/>
      <point x="134" y="96"/>
      <point x="220" y="13"/>
      <point x="297" y="13" type="qcurve" smooth="yes"/>
      <point x="331" y="13"/>
      <point x="389" y="31"/>
      <point x="433" y="66"/>
      <point x="460" y="118"/>
      <point x="460" y="152" type="qcurve" smooth="yes"/>
      <point x="460" y="582" type="line"/>
      <point x="482" y="582" type="line"/>
      <point x="482" y="152" type="line" smooth="yes"/>
      <point x="482" y="115"/>
      <point x="452" y="55"/>
      <point x="401" y="13"/>
      <point x="334" y="-10"/>
      <point x="296" y="-10" type="qcurve" smooth="yes"/>
      <point x="221" y="-10"/>
      <point x="119" y="72"/>
    </contour>
  </outline>
</glyph>
<glyph name="currency" format="2">
  <advance width="610"/>
  <unicode hex="00A4"/>
  <unicode hex="0E04"/>
  <outline>
    <contour>
      <point x="96" y="0" type="line"/>
      <point x="96" y="430" type="line" smooth="yes"/>
      <point x="96" y="470"/>
      <point x="134" y="531"/>
      <point x="194" y="571"/>
      <point x="270" y="592"/>
      <point x="308" y="592" type="qcurve" smooth="yes"/>
      <point x="348" y="592"/>
      <point x="425" y="570"/>
      <point x="486" y="527"/>
      <point x="523" y="462"/>
      <point x="523" y="419" type="qcurve" smooth="yes"/>
      <point x="523" y="0" type="line"/>
      <point x="500" y="0" type="line"/>
      <point x="500" y="430" type="line" smooth="yes"/>
      <point x="500" y="466"/>
      <point x="463" y="519"/>
      <point x="408" y="553"/>
      <point x="341" y="569"/>
      <point x="310" y="569" type="qcurve" smooth="yes"/>
      <point x="276" y="569"/>
      <point x="207" y="552"/>
      <point x="153" y="515"/>
      <point x="119" y="457"/>
      <point x="119" y="417" type="qcurve" smooth="yes"/>
      <point x="119" y="212" type="line"/>
      <point x="148" y="245" type="line" smooth="yes"/>
      <point x="179" y="280"/>
      <point x="247" y="306"/>
      <point x="294" y="309" type="qcurve"/>
      <point x="294" y="285" type="line"/>
      <point x="255" y="283"/>
      <point x="191" y="264"/>
      <point x="145" y="226"/>
      <point x="119" y="168"/>
      <point x="119" y="128" type="qcurve" smooth="yes"/>
      <point x="119" y="0" type="line"/>
    </contour>
  </outline>
</glyph>
<glyph name="yen" format="2">
  <advance width="610"/>
  <unicode hex="00A5"/>
  <unicode hex="0E05"/>
  <outline>
    <contour>
      <point x="96" y="0" type="line"/>
      <point x="96" y="446" type="line" smooth="yes"/>
      <point x="96" y="498"/>
      <point x="154" y="567"/>
      <point x="202" y="589" type="qcurve"/>
      <point x="310" y="488" type="line"/>
      <point x="417" y="589" type="line"/>
      <point x="441" y="577"/>
      <point x="475" y="554"/>
      <point x="499" y="525"/>
      <point x="515" y="488"/>
      <point x="521" y="462" type="qcurve"/>
      <point x="521" y="460"/>
      <point x="522" y="459"/>
      <point x="522" y="457" type="qcurve"/>
      <point x="523" y="455"/>
      <point x="523" y="453" type="qcurve" smooth="yes"/>
      <point x="523" y="0" type="line"/>
      <point x="500" y="0" type="line"/>
      <point x="500" y="445" type="line" smooth="yes"/>
      <point x="500" y="462"/>
      <point x="488" y="496"/>
      <point x="468" y="527"/>
      <point x="441" y="551"/>
      <point x="426" y="558" type="qcurve" smooth="yes"/>
      <point x="421" y="561" type="line"/>
      <point x="310" y="466" type="line"/>
      <point x="197" y="561" type="line"/>
      <point x="193" y="558" type="line"/>
      <point x="178" y="551"/>
      <point x="151" y="526"/>
      <point x="131" y="495"/>
      <point x="119" y="460"/>
      <point x="119" y="444" type="qcurve" smooth="yes"/>
      <point x="119" y="212" type="line"/>
      <point x="148" y="245" type="line" smooth="yes"/>
      <point x="179" y="280"/>
      <point x="247" y="306"/>
      <point x="294" y="309" type="qcurve"/>
      <point x="294" y="285" type="line"/>
      <point x="255" y="283"/>
      <point x="191" y="264"/>
      <point x="145" y="226"/>
      <point x="119" y="168"/>
      <point x="119" y="128" type="qcurve" smooth="yes"/>
      <point x="119" y="0" type="line"/>
    </contour>
  </outline>
</glyph>
<glyph name="brokenbar" format="2">
  <advance width="623"/>
  <unicode hex="00A6"/>
  <unicode hex="0E06"/>
  <outline>
    <contour>
      <point x="111" y="0" type="line"/>
      <point x="111" y="215" type="line" smooth="yes"/>
      <point x="111" y="257"/>
      <point x="150" y="323"/>
      <point x="173" y="354" type="qcurve" smooth="yes"/>
      <point x="180" y="364"/>
      <point x="192" y="380"/>
      <point x="197" y="387" type="qcurve" smooth="yes"/>
      <point x="214" y="411"/>
      <point x="240" y="466"/>
      <point x="240" y="493" type="qcurve" smooth="yes"/>
      <point x="240" y="515"/>
      <point x="219" y="554"/>
      <point x="195" y="558" type="qcurve"/>
      <point x="192" y="558" type="line"/>
      <point x="122" y="497" type="line"/>
      <point x="43" y="569" type="line"/>
      <point x="58" y="585" type="line"/>
      <point x="122" y="521" type="line"/>
      <point x="181" y="582" type="line"/>
      <point x="220" y="579"/>
      <point x="262" y="533"/>
      <point x="262" y="493" type="qcurve" smooth="yes"/>
      <point x="262" y="453"/>
      <point x="223" y="384"/>
      <point x="199" y="352" type="qcurve" smooth="yes"/>
      <point x="175" y="320" type="line"/>
      <point x="165" y="304" type="line" smooth="yes"/>
      <point x="160" y="296"/>
      <point x="157" y="290" type="qcurve" smooth="yes"/>
      <point x="145" y="270"/>
      <point x="134" y="236"/>
      <point x="134" y="214" type="qcurve" smooth="yes"/>
      <point x="134" y="173"/>
      <point x="170" y="99"/>
      <point x="230" y="45"/>
      <point x="309" y="14"/>
      <point x="351" y="14" type="qcurve" smooth="yes"/>
      <point x="383" y="14"/>
      <point x="441" y="32"/>
      <point x="487" y="67"/>
      <point x="515" y="119"/>
      <point x="515" y="152" type="qcurve" smooth="yes"/>
      <point x="515" y="582" type="line"/>
      <point x="538" y="582" type="line"/>
      <point x="538" y="152" type="line" smooth="yes"/>
      <point x="538" y="115"/>
      <point x="507" y="55"/>
      <point x="455" y="13"/>
      <point x="388" y="-9"/>
      <point x="350" y="-9" type="qcurve" smooth="yes"/>
      <point x="292" y="-9"/>
      <point x="194" y="41"/>
      <point x="163" y="91" type="qcurve" smooth="yes"/>
      <point x="139" y="130" type="line"/>
      <point x="125" y="0" type="line"/>
    </contour>
  </outline>
</glyph>
<glyph name="section" format="2">
  <advance width="542"/>
  <unicode hex="00A7"/>
  <unicode hex="0E07"/>
  <outline>
    <contour>
      <point x="42" y="217" type="line"/>
      <point x="58" y="234" type="line"/>
      <point x="273" y="14" type="line"/>
      <point x="281" y="14" type="line" smooth="yes"/>
      <point x="295" y="14"/>
      <point x="326" y="22"/>
      <point x="338" y="27" type="qcurve"/>
      <point x="383" y="42"/>
      <point x="432" y="106"/>
      <point x="432" y="152" type="qcurve" smooth="yes"/>
      <point x="432" y="496" type="line" smooth="yes"/>
      <point x="432" y="522"/>
      <point x="397" y="558"/>
      <point x="370" y="558" type="qcurve" smooth="yes"/>
      <point x="304" y="558" type="line"/>
      <point x="304" y="582" type="line"/>
      <point x="370" y="582" type="line" smooth="yes"/>
      <point x="408" y="582"/>
      <point x="455" y="532"/>
      <point x="455" y="496" type="qcurve" smooth="yes"/>
      <point x="455" y="152" type="line" smooth="yes"/>
      <point x="455" y="127"/>
      <point x="439" y="79"/>
      <point x="409" y="39"/>
      <point x="368" y="8"/>
      <point x="344" y="0" type="qcurve" smooth="yes"/>
      <point x="326" y="-7"/>
      <point x="287" y="-9"/>
      <point x="267" y="-9" type="qcurve"/>
      <point x="264" y="-8" type="line" smooth="yes"/>
      <point x="263" y="-7"/>
      <point x="262" y="-7"/>
      <point x="261" y="-6" type="qcurve" smooth="yes"/>
    </contour>
  </outline>
</glyph>
<glyph name="dieresis" format="2">
  <advance width="528"/>
  <unicode hex="00A8"/>
  <unicode hex="0E08"/>
  <outline>
    <contour>
      <point x="61" y="536" type="qcurve"/>
      <point x="44" y="552" type="line"/>
      <point x="61" y="565"/>
      <point x="105" y="580"/>
      <point x="152" y="589"/>
      <point x="200" y="592"/>
      <point x="218" y="592" type="qcurve" smooth="yes"/>
      <point x="259" y="592"/>
      <point x="337" y="573"/>
      <point x="400" y="533"/>
      <point x="440" y="473"/>
      <point x="440" y="431" type="qcurve" smooth="yes"/>
      <point x="440" y="0" type="line"/>
      <point x="418" y="0" type="line"/>
      <point x="418" y="147" type="line" smooth="yes"/>
      <point x="418" y="182"/>
      <point x="386" y="233"/>
      <point x="335" y="266"/>
      <point x="273" y="283"/>
      <point x="244" y="285" type="qcurve"/>
      <point x="244" y="309" type="line"/>
      <point x="273" y="308"/>
      <point x="316" y="297"/>
      <point x="354" y="278"/>
      <point x="388" y="247"/>
      <point x="407" y="226" type="qcurve" smooth="yes"/>
      <point x="418" y="213" type="line"/>
      <point x="418" y="431" type="line" smooth="yes"/>
      <point x="418" y="470"/>
      <point x="380" y="523"/>
      <point x="321" y="555"/>
      <point x="252" y="569"/>
      <point x="217" y="569" type="qcurve" smooth="yes"/>
      <point x="202" y="569"/>
      <point x="161" y="567"/>
      <point x="118" y="560"/>
      <point x="78" y="547"/>
    </contour>
  </outline>
</glyph>
<glyph name="copyright" format="2">
  <advance width="815"/>
  <unicode hex="00A9"/>
  <unicode hex="012A"/>
  <outline>
    <contour>
      <point x="52" y="382" type="qcurve" smooth="yes"/>
      <point x="52" y="309"/>
      <point x="108" y="178"/>
      <point x="206" y="77"/>
      <point x="336" y="17"/>
      <point x="412" y="17" type="qcurve" smooth="yes"/>
      <point x="487" y="17"/>
      <point x="619" y="76"/>
      <point x="716" y="176"/>
      <point x="772" y="308"/>
      <point x="772" y="382" type="qcurve" smooth="yes"/>
      <point x="772" y="455"/>
      <point x="719" y="589"/>
      <point x="625" y="691"/>
      <point x="493" y="752"/>
      <point x="414" y="752" type="qcurve" smooth="yes"/>
      <point x="335" y="752"/>
      <point x="202" y="692"/>
      <point x="106" y="590"/>
      <point x="52" y="455"/>
    </contour>
    <contour>
      <point x="288" y="293" type="qcurve" smooth="yes"/>
      <point x="309" y="256"/>
      <point x="381" y="229"/>
      <point x="422" y="229" type="qcurve" smooth="yes"/>
      <point x="453" y="229"/>
      <point x="517" y="244"/>
      <point x="541" y="267" type="qcurve"/>
      <point x="558" y="255" type="line"/>
      <point x="535" y="229"/>
      <point x="464" y="205"/>
      <point x="427" y="205" type="qcurve" smooth="yes"/>
      <point x="396" y="205"/>
      <point x="333" y="221"/>
      <point x="284" y="253"/>
      <point x="253" y="302"/>
      <point x="253" y="336" type="qcurve" smooth="yes"/>
      <point x="253" y="434" type="line" smooth="yes"/>
      <point x="253" y="460"/>
      <point x="274" y="502"/>
      <point x="309" y="534"/>
      <point x="354" y="556"/>
      <point x="381" y="560" type="qcurve" smooth="yes"/>
      <point x="393" y="562"/>
      <point x="418" y="564"/>
      <point x="430" y="564" type="qcurve" smooth="yes"/>
      <point x="467" y="564"/>
      <point x="535" y="541"/>
      <point x="559" y="515" type="qcurve"/>
      <point x="541" y="503" type="line"/>
      <point x="517" y="525"/>
      <point x="453" y="541"/>
      <point x="422" y="541" type="qcurve" smooth="yes"/>
      <point x="388" y="541"/>
      <point x="326" y="523"/>
      <point x="303" y="498" type="qcurve" smooth="yes"/>
      <point x="292" y="486"/>
      <point x="275" y="454"/>
      <point x="275" y="439" type="qcurve" smooth="yes"/>
      <point x="275" y="336" type="line" smooth="yes"/>
      <point x="275" y="314"/>
    </contour>
    <contour>
      <point x="29" y="387" type="qcurve" smooth="yes"/>
      <point x="29" y="465"/>
      <point x="88" y="605"/>
      <point x="191" y="712"/>
      <point x="330" y="776"/>
      <point x="410" y="776" type="qcurve" smooth="yes"/>
      <point x="490" y="776"/>
      <point x="630" y="713"/>
      <point x="734" y="607"/>
      <point x="794" y="467"/>
      <point x="794" y="388" type="qcurve" smooth="yes"/>
      <point x="794" y="310"/>
      <point x="737" y="167"/>
      <point x="636" y="59"/>
      <point x="496" y="-5"/>
      <point x="412" y="-5" type="qcurve" smooth="yes"/>
      <point x="329" y="-5"/>
      <point x="188" y="58"/>
      <point x="86" y="166"/>
      <point x="29" y="309"/>
    </contour>
  </outline>
</glyph>
<glyph name="ordfeminine" format="2">
  <advance width="548"/>
  <unicode hex="00AA"/>
  <unicode hex="0E0A"/>
  <outline>
    <contour>
      <point x="107" y="76" type="qcurve" smooth="yes"/>
      <point x="94" y="97"/>
      <point x="85" y="142"/>
      <point x="85" y="171" type="qcurve" smooth="yes"/>
      <point x="85" y="196"/>
      <point x="90" y="258"/>
      <point x="105" y="285" type="qcurve"/>
      <point x="114" y="304"/>
      <point x="137" y="337"/>
      <point x="147" y="352" type="qcurve" smooth="yes"/>
      <point x="159" y="371"/>
      <point x="182" y="402"/>
      <point x="191" y="417" type="qcurve" smooth="yes"/>
      <point x="202" y="436"/>
      <point x="215" y="474"/>
      <point x="215" y="494" type="qcurve" smooth="yes"/>
      <point x="215" y="522"/>
      <point x="181" y="558"/>
      <point x="153" y="558" type="qcurve" smooth="yes"/>
      <point x="66" y="558" type="line"/>
      <point x="66" y="582" type="line"/>
      <point x="153" y="582" type="line" smooth="yes"/>
      <point x="191" y="582"/>
      <point x="237" y="532"/>
      <point x="237" y="493" type="qcurve" smooth="yes"/>
      <point x="237" y="459"/>
      <point x="206" y="398"/>
      <point x="183" y="365" type="qcurve" smooth="yes"/>
      <point x="175" y="353"/>
      <point x="154" y="324"/>
      <point x="144" y="307" type="qcurve" smooth="yes"/>
      <point x="136" y="293"/>
      <point x="123" y="268"/>
      <point x="115" y="243"/>
      <point x="110" y="215"/>
      <point x="109" y="197" type="qcurve"/>
      <point x="109" y="152" type="line" smooth="yes"/>
      <point x="109" y="119"/>
      <point x="138" y="67"/>
      <point x="185" y="31"/>
      <point x="245" y="13"/>
      <point x="275" y="13" type="qcurve" smooth="yes"/>
      <point x="306" y="13"/>
      <point x="364" y="31"/>
      <point x="409" y="66"/>
      <point x="436" y="118"/>
      <point x="436" y="152" type="qcurve" smooth="yes"/>
      <point x="436" y="317" type="line" smooth="yes"/>
      <point x="436" y="342"/>
      <point x="421" y="391"/>
      <point x="404" y="411" type="qcurve" smooth="yes"/>
      <point x="330" y="496" type="line"/>
      <point x="465" y="644" type="line"/>
      <point x="483" y="628" type="line"/>
      <point x="361" y="496" type="line"/>
      <point x="364" y="491" type="line"/>
      <point x="374" y="480"/>
      <point x="392" y="460"/>
      <point x="398" y="453" type="qcurve" smooth="yes"/>
      <point x="426" y="423"/>
      <point x="458" y="356"/>
      <point x="458" y="318" type="qcurve" smooth="yes"/>
      <point x="458" y="152" type="line" smooth="yes"/>
      <point x="458" y="115"/>
      <point x="428" y="55"/>
      <point x="377" y="13"/>
      <point x="311" y="-10"/>
      <point x="274" y="-10" type="qcurve" smooth="yes"/>
      <point x="223" y="-10"/>
      <point x="132" y="35"/>
    </contour>
  </outline>
</glyph>
<glyph name="guillemotleft" format="2">
  <advance width="551"/>
  <unicode hex="00AB"/>
  <unicode hex="0E0B"/>
  <outline>
    <contour>
      <point x="90" y="171" type="qcurve" smooth="yes"/>
      <point x="90" y="198"/>
      <point x="95" y="245"/>
      <point x="109" y="287"/>
      <point x="133" y="328"/>
      <point x="154" y="357" type="qcurve" smooth="yes"/>
      <point x="163" y="370"/>
      <point x="186" y="402"/>
      <point x="195" y="418" type="qcurve" smooth="yes"/>
      <point x="206" y="437"/>
      <point x="220" y="475"/>
      <point x="220" y="494" type="qcurve" smooth="yes"/>
      <point x="220" y="515"/>
      <point x="199" y="554"/>
      <point x="175" y="558" type="qcurve"/>
      <point x="172" y="558" type="line"/>
      <point x="102" y="497" type="line"/>
      <point x="23" y="569" type="line"/>
      <point x="38" y="585" type="line"/>
      <point x="102" y="516" type="line"/>
      <point x="162" y="582" type="line"/>
      <point x="200" y="579"/>
      <point x="242" y="533"/>
      <point x="242" y="493" type="qcurve" smooth="yes"/>
      <point x="242" y="458"/>
      <point x="211" y="397"/>
      <point x="188" y="365" type="qcurve" smooth="yes"/>
      <point x="179" y="353"/>
      <point x="158" y="326"/>
      <point x="149" y="312" type="qcurve" smooth="yes"/>
      <point x="131" y="283"/>
      <point x="113" y="228"/>
      <point x="113" y="193" type="qcurve" smooth="yes"/>
      <point x="113" y="168" type="line" smooth="yes"/>
      <point x="113" y="155"/>
      <point x="114" y="142" type="qcurve" smooth="yes"/>
      <point x="118" y="111"/>
      <point x="148" y="63"/>
      <point x="193" y="30"/>
      <point x="249" y="13"/>
      <point x="279" y="13" type="qcurve" smooth="yes"/>
      <point x="311" y="13"/>
      <point x="369" y="31"/>
      <point x="413" y="66"/>
      <point x="440" y="118"/>
      <point x="440" y="152" type="qcurve" smooth="yes"/>
      <point x="440" y="317" type="line" smooth="yes"/>
      <point x="440" y="340"/>
      <point x="424" y="392"/>
      <point x="408" y="411" type="qcurve" smooth="yes"/>
      <point x="334" y="496" type="line"/>
      <point x="469" y="644" type="line"/>
      <point x="487" y="628" type="line"/>
      <point x="366" y="496" type="line"/>
      <point x="421" y="428" type="line" smooth="yes"/>
      <point x="441" y="403"/>
      <point x="462" y="351"/>
      <point x="462" y="318" type="qcurve" smooth="yes"/>
      <point x="462" y="152" type="line" smooth="yes"/>
      <point x="462" y="115"/>
      <point x="433" y="55"/>
      <point x="382" y="13"/>
      <point x="316" y="-10"/>
      <point x="279" y="-10" type="qcurve" smooth="yes"/>
      <point x="228" y="-10"/>
      <point x="135" y="34"/>
      <point x="111" y="75" type="qcurve" smooth="yes"/>
      <point x="99" y="96"/>
      <point x="90" y="142"/>
    </contour>
  </outline>
</glyph>
<glyph name="logicalnot" format="2">
  <advance width="898"/>
  <unicode hex="00AC"/>
  <unicode hex="0E0C"/>
  <outline>
    <contour>
      <point x="96" y="86" type="qcurve" smooth="yes"/>
      <point x="96" y="505" type="line" smooth="yes"/>
      <point x="96" y="530"/>
      <point x="134" y="564"/>
      <point x="189" y="584"/>
      <point x="249" y="592"/>
      <point x="272" y="592" type="qcurve" smooth="yes"/>
      <point x="308" y="592"/>
      <point x="379" y="573"/>
      <point x="434" y="533"/>
      <point x="468" y="472"/>
      <point x="468" y="430" type="qcurve" smooth="yes"/>
      <point x="468" y="245" type="line" smooth="yes"/>
      <point x="468" y="204"/>
      <point x="491" y="121"/>
      <point x="537" y="55"/>
      <point x="608" y="13"/>
      <point x="656" y="13" type="qcurve" smooth="yes"/>
      <point x="721" y="13"/>
      <point x="794" y="90"/>
      <point x="794" y="151" type="qcurve" smooth="yes"/>
      <point x="794" y="582" type="line"/>
      <point x="817" y="582" type="line"/>
      <point x="817" y="151" type="line" smooth="yes"/>
      <point x="817" y="117"/>
      <point x="794" y="59"/>
      <point x="752" y="15"/>
      <point x="693" y="-10"/>
      <point x="656" y="-10" type="qcurve" smooth="yes"/>
      <point x="552" y="-10"/>
      <point x="498" y="79" type="qcurve" smooth="yes"/>
      <point x="473" y="121" type="line"/>
      <point x="460" y="0" type="line"/>
      <point x="446" y="0" type="line"/>
      <point x="446" y="430" type="line" smooth="yes"/>
      <point x="446" y="465"/>
      <point x="416" y="517"/>
      <point x="368" y="552"/>
      <point x="307" y="569"/>
      <point x="276" y="569" type="qcurve" smooth="yes"/>
      <point x="260" y="569"/>
      <point x="208" y="564"/>
      <point x="157" y="551"/>
      <point x="119" y="525"/>
      <point x="119" y="504" type="qcurve" smooth="yes"/>
      <point x="119" y="86" type="line" smooth="yes"/>
      <point x="119" y="66"/>
      <point x="137" y="40"/>
      <point x="164" y="26"/>
      <point x="196" y="21"/>
      <point x="211" y="21" type="qcurve" smooth="yes"/>
      <point x="220" y="21"/>
      <point x="247" y="24" type="qcurve"/>
      <point x="247" y="0" type="line"/>
      <point x="181" y="0" type="line" smooth="yes"/>
      <point x="143" y="0"/>
      <point x="96" y="51"/>
    </contour>
  </outline>
</glyph>
<glyph name="uni00AD" format="2">
  <advance width="898"/>
  <unicode hex="00AD"/>
  <unicode hex="00DE"/>
  <unicode hex="0E0D"/>
  <outline>
    <contour>
      <point x="96" y="86" type="qcurve" smooth="yes"/>
      <point x="96" y="505" type="line" smooth="yes"/>
      <point x="96" y="531"/>
      <point x="134" y="564"/>
      <point x="189" y="584"/>
      <point x="250" y="592"/>
      <point x="273" y="592" type="qcurve" smooth="yes"/>
      <point x="310" y="592"/>
      <point x="380" y="573"/>
      <point x="435" y="533"/>
      <point x="468" y="472"/>
      <point x="468" y="430" type="qcurve" smooth="yes"/>
      <point x="468" y="152" type="line" smooth="yes"/>
      <point x="468" y="118"/>
      <point x="496" y="66"/>
      <point x="541" y="31"/>
      <point x="600" y="13"/>
      <point x="631" y="13" type="qcurve" smooth="yes"/>
      <point x="662" y="13"/>
      <point x="721" y="31"/>
      <point x="766" y="66"/>
      <point x="794" y="118"/>
      <point x="794" y="152" type="qcurve" smooth="yes"/>
      <point x="794" y="582" type="line"/>
      <point x="817" y="582" type="line"/>
      <point x="817" y="152" type="line" smooth="yes"/>
      <point x="817" y="115"/>
      <point x="787" y="55"/>
      <point x="736" y="13"/>
      <point x="669" y="-10"/>
      <point x="632" y="-10" type="qcurve" smooth="yes"/>
      <point x="596" y="-10"/>
      <point x="529" y="11"/>
      <point x="477" y="53"/>
      <point x="446" y="113"/>
      <point x="446" y="152" type="qcurve" smooth="yes"/>
      <point x="446" y="430" type="line" smooth="yes"/>
      <point x="446" y="465"/>
      <point x="416" y="518"/>
      <point x="368" y="552"/>
      <point x="307" y="569"/>
      <point x="276" y="569" type="qcurve" smooth="yes"/>
      <point x="261" y="569"/>
      <point x="211" y="565"/>
      <point x="186" y="557" type="qcurve"/>
      <point x="161" y="551"/>
      <point x="119" y="527"/>
      <point x="119" y="504" type="qcurve" smooth="yes"/>
      <point x="119" y="86" type="line" smooth="yes"/>
      <point x="119" y="66"/>
      <point x="135" y="40"/>
      <point x="161" y="25"/>
      <point x="192" y="20"/>
      <point x="209" y="20" type="qcurve" smooth="yes"/>
      <point x="230" y="20"/>
      <point x="247" y="24" type="qcurve"/>
      <point x="247" y="0" type="line"/>
      <point x="181" y="0" type="line" smooth="yes"/>
      <point x="143" y="0"/>
      <point x="96" y="51"/>
    </contour>
    <contour>
      <point x="515" y="-188" type="line"/>
      <point x="515" y="-164" type="line"/>
      <point x="672" y="-164" type="line" smooth="yes"/>
      <point x="704" y="-164"/>
      <point x="768" y="-148"/>
      <point x="792" y="-125" type="qcurve"/>
      <point x="809" y="-139" type="line"/>
      <point x="782" y="-165"/>
      <point x="711" y="-188"/>
      <point x="672" y="-188" type="qcurve" smooth="yes"/>
    </contour>
  </outline>
</glyph>
<glyph name="registered" format="2">
  <advance width="815"/>
  <unicode hex="00AE"/>
  <unicode hex="012B"/>
  <outline>
    <contour>
      <point x="53" y="391" type="qcurve" smooth="yes"/>
      <point x="53" y="318"/>
      <point x="107" y="184"/>
      <point x="203" y="84"/>
      <point x="335" y="24"/>
      <point x="413" y="24" type="qcurve" smooth="yes"/>
      <point x="490" y="24"/>
      <point x="622" y="83"/>
      <point x="719" y="184"/>
      <point x="774" y="317"/>
      <point x="774" y="391" type="qcurve" smooth="yes"/>
      <point x="774" y="465"/>
      <point x="719" y="598"/>
      <point x="622" y="698"/>
      <point x="490" y="758"/>
      <point x="413" y="758" type="qcurve" smooth="yes"/>
      <point x="336" y="758"/>
      <point x="204" y="698"/>
      <point x="108" y="597"/>
      <point x="53" y="464"/>
    </contour>
    <contour>
      <point x="322" y="402" type="line"/>
      <point x="472" y="402" type="line" smooth="yes"/>
      <point x="487" y="402"/>
      <point x="510" y="415"/>
      <point x="525" y="436"/>
      <point x="533" y="461"/>
      <point x="533" y="473" type="qcurve" smooth="yes"/>
      <point x="533" y="486"/>
      <point x="525" y="511"/>
      <point x="510" y="531"/>
      <point x="487" y="544"/>
      <point x="471" y="544" type="qcurve" smooth="yes"/>
      <point x="322" y="544" type="line"/>
    </contour>
    <contour>
      <point x="30" y="391" type="qcurve" smooth="yes"/>
      <point x="30" y="470"/>
      <point x="88" y="612"/>
      <point x="190" y="719"/>
      <point x="331" y="782"/>
      <point x="412" y="782" type="qcurve" smooth="yes"/>
      <point x="494" y="782"/>
      <point x="634" y="718"/>
      <point x="737" y="611"/>
      <point x="796" y="469"/>
      <point x="796" y="391" type="qcurve" smooth="yes"/>
      <point x="796" y="313"/>
      <point x="738" y="171"/>
      <point x="635" y="63"/>
      <point x="495" y="0"/>
      <point x="413" y="0" type="qcurve" smooth="yes"/>
      <point x="331" y="0"/>
      <point x="191" y="63"/>
      <point x="88" y="171"/>
      <point x="30" y="313"/>
    </contour>
    <contour>
      <point x="300" y="230" type="line"/>
      <point x="300" y="568" type="line"/>
      <point x="470" y="568" type="line" smooth="yes"/>
      <point x="511" y="568"/>
      <point x="554" y="511"/>
      <point x="554" y="474" type="qcurve" smooth="yes"/>
      <point x="554" y="448"/>
      <point x="532" y="400"/>
      <point x="509" y="389" type="qcurve" smooth="yes"/>
      <point x="503" y="387" type="line"/>
      <point x="571" y="230" type="line"/>
      <point x="547" y="230" type="line"/>
      <point x="482" y="380" type="line"/>
      <point x="322" y="380" type="line"/>
      <point x="322" y="230" type="line"/>
    </contour>
  </outline>
</glyph>
<glyph name="macron" format="2">
  <advance width="615"/>
  <unicode hex="00AF"/>
  <unicode hex="0E0F"/>
  <outline>
    <contour>
      <point x="102" y="-188" type="line"/>
      <point x="102" y="-164" type="line"/>
      <point x="200" y="-164" type="line"/>
      <point x="316" y="-57" type="line"/>
      <point x="428" y="-161" type="line"/>
      <point x="432" y="-159" type="line" smooth="yes"/>
      <point x="447" y="-152"/>
      <point x="474" y="-127"/>
      <point x="494" y="-96"/>
      <point x="506" y="-62"/>
      <point x="506" y="-46" type="qcurve" smooth="yes"/>
      <point x="506" y="430" type="line" smooth="yes"/>
      <point x="506" y="470"/>
      <point x="466" y="523"/>
      <point x="405" y="555"/>
      <point x="334" y="568"/>
      <point x="304" y="568" type="qcurve" smooth="yes"/>
      <point x="287" y="568"/>
      <point x="228" y="563"/>
      <point x="169" y="549"/>
      <point x="125" y="523"/>
      <point x="125" y="503" type="qcurve" smooth="yes"/>
      <point x="125" y="67" type="line" smooth="yes"/>
      <point x="125" y="29"/>
      <point x="82" y="2"/>
      <point x="47" y="0" type="qcurve"/>
      <point x="47" y="23" type="line"/>
      <point x="52" y="23" type="line" smooth="yes"/>
      <point x="74" y="23"/>
      <point x="102" y="43"/>
      <point x="102" y="67" type="qcurve" smooth="yes"/>
      <point x="102" y="506" type="line" smooth="yes"/>
      <point x="102" y="533"/>
      <point x="154" y="567"/>
      <point x="223" y="585"/>
      <point x="295" y="591"/>
      <point x="315" y="591" type="qcurve" smooth="yes"/>
      <point x="353" y="591"/>
      <point x="429" y="572"/>
      <point x="491" y="532"/>
      <point x="529" y="471"/>
      <point x="529" y="430" type="qcurve" smooth="yes"/>
      <point x="529" y="-47" type="line" smooth="yes"/>
      <point x="529" y="-95"/>
      <point x="468" y="-168"/>
      <point x="424" y="-190" type="qcurve"/>
      <point x="316" y="-78" type="line"/>
      <point x="209" y="-188" type="line"/>
    </contour>
  </outline>
</glyph>
<glyph name="degree" format="2">
  <advance width="531"/>
  <unicode hex="00B0"/>
  <unicode hex="0E10"/>
  <outline>
    <contour>
      <point x="61" y="535" type="qcurve"/>
      <point x="44" y="551" type="line"/>
      <point x="61" y="563"/>
      <point x="105" y="579"/>
      <point x="154" y="588"/>
      <point x="203" y="592"/>
      <point x="224" y="592" type="qcurve" smooth="yes"/>
      <point x="249" y="592"/>
      <point x="293" y="587"/>
      <point x="333" y="575"/>
      <point x="371" y="554"/>
      <point x="391" y="538" type="qcurve" smooth="yes"/>
      <point x="397" y="534" type="line"/>
      <point x="400" y="540" type="line" smooth="yes"/>
      <point x="414" y="562"/>
      <point x="417" y="591" type="qcurve"/>
      <point x="439" y="591" type="line"/>
      <point x="437" y="570"/>
      <point x="424" y="539"/>
      <point x="412" y="519" type="qcurve" smooth="yes"/>
      <point x="410" y="516" type="line"/>
      <point x="412" y="513" type="line" smooth="yes"/>
      <point x="424" y="494"/>
      <point x="440" y="451"/>
      <point x="440" y="430" type="qcurve" smooth="yes"/>
      <point x="440" y="0" type="line"/>
      <point x="418" y="0" type="line"/>
      <point x="418" y="147" type="line" smooth="yes"/>
      <point x="418" y="182"/>
      <point x="386" y="233"/>
      <point x="335" y="266"/>
      <point x="273" y="283"/>
      <point x="244" y="285" type="qcurve"/>
      <point x="244" y="309" type="line"/>
      <point x="296" y="306"/>
      <point x="371" y="276"/>
      <point x="408" y="239" type="qcurve" smooth="yes"/>
      <point x="418" y="228" type="line"/>
      <point x="418" y="430" type="line" smooth="yes"/>
      <point x="418" y="470"/>
      <point x="380" y="523"/>
      <point x="322" y="555"/>
      <point x="252" y="569"/>
      <point x="217" y="569" type="qcurve" smooth="yes"/>
      <point x="202" y="569"/>
      <point x="160" y="567"/>
      <point x="118" y="559"/>
      <point x="77" y="546"/>
    </contour>
    <contour>
      <point x="103" y="-188" type="line"/>
      <point x="103" y="-164" type="line"/>
      <point x="147" y="-164" type="line"/>
      <point x="261" y="-57" type="line"/>
      <point x="376" y="-164" type="line"/>
      <point x="380" y="-160" type="line" smooth="yes"/>
      <point x="382" y="-158"/>
      <point x="387" y="-155"/>
      <point x="389" y="-153" type="qcurve" smooth="yes"/>
      <point x="391" y="-151"/>
      <point x="397" y="-148"/>
      <point x="400" y="-146" type="qcurve" smooth="yes"/>
      <point x="403" y="-143"/>
      <point x="415" y="-134" type="qcurve"/>
      <point x="433" y="-149" type="line"/>
      <point x="420" y="-162"/>
      <point x="387" y="-181"/>
      <point x="369" y="-190" type="qcurve"/>
      <point x="261" y="-77" type="line"/>
      <point x="155" y="-188" type="line"/>
    </contour>
  </outline>
</glyph>
<glyph name="plusminus" format="2">
  <advance width="680"/>
  <unicode hex="00B1"/>
  <unicode hex="0E11"/>
  <outline>
    <contour>
      <point x="169" y="0" type="line"/>
      <point x="169" y="204" type="line" smooth="yes"/>
      <point x="169" y="238"/>
      <point x="178" y="313"/>
      <point x="194" y="347" type="qcurve" smooth="yes"/>
      <point x="200" y="360"/>
      <point x="217" y="391"/>
      <point x="223" y="405" type="qcurve" smooth="yes"/>
      <point x="232" y="424"/>
      <point x="242" y="459"/>
      <point x="242" y="480" type="qcurve" smooth="yes"/>
      <point x="242" y="508"/>
      <point x="226" y="545"/>
      <point x="196" y="557" type="qcurve"/>
      <point x="193" y="560" type="line"/>
      <point x="122" y="497" type="line"/>
      <point x="43" y="569" type="line"/>
      <point x="58" y="585" type="line"/>
      <point x="122" y="521" type="line"/>
      <point x="181" y="582" type="line"/>
      <point x="207" y="581"/>
      <point x="235" y="566"/>
      <point x="243" y="554" type="qcurve" smooth="yes"/>
      <point x="247" y="547"/>
      <point x="252" y="532"/>
      <point x="255" y="519" type="qcurve" smooth="yes"/>
      <point x="256" y="513"/>
      <point x="260" y="492"/>
      <point x="262" y="480" type="qcurve" smooth="yes"/>
      <point x="265" y="464" type="line"/>
      <point x="273" y="478" type="line" smooth="yes"/>
      <point x="287" y="501"/>
      <point x="313" y="543"/>
      <point x="346" y="574"/>
      <point x="388" y="592"/>
      <point x="417" y="592" type="qcurve" smooth="yes"/>
      <point x="452" y="592"/>
      <point x="516" y="567"/>
      <point x="566" y="524"/>
      <point x="595" y="465"/>
      <point x="595" y="430" type="qcurve" smooth="yes"/>
      <point x="595" y="0" type="line"/>
      <point x="573" y="0" type="line"/>
      <point x="573" y="407" type="line" smooth="yes"/>
      <point x="573" y="442"/>
      <point x="552" y="502"/>
      <point x="513" y="545"/>
      <point x="455" y="569"/>
      <point x="420" y="569" type="qcurve" smooth="yes"/>
      <point x="381" y="569"/>
      <point x="330" y="533"/>
      <point x="306" y="489" type="qcurve" smooth="yes"/>
      <point x="289" y="459"/>
      <point x="237" y="376"/>
      <point x="221" y="346" type="qcurve" smooth="yes"/>
      <point x="197" y="302"/>
      <point x="191" y="238"/>
      <point x="191" y="204" type="qcurve" smooth="yes"/>
      <point x="191" y="0" type="line"/>
    </contour>
  </outline>
</glyph>
<glyph name="twosuperior" format="2">
  <advance width="898"/>
  <unicode hex="00B2"/>
  <unicode hex="0E12"/>
  <outline>
    <contour>
      <point x="96" y="134" type="qcurve" smooth="yes"/>
      <point x="96" y="446" type="line" smooth="yes"/>
      <point x="96" y="496"/>
      <point x="156" y="569"/>
      <point x="202" y="589" type="qcurve"/>
      <point x="282" y="516" type="line"/>
      <point x="363" y="589" type="line"/>
      <point x="408" y="569"/>
      <point x="468" y="496"/>
      <point x="468" y="446" type="qcurve" smooth="yes"/>
      <point x="468" y="246" type="line" smooth="yes"/>
      <point x="468" y="204"/>
      <point x="491" y="120"/>
      <point x="538" y="54"/>
      <point x="609" y="13"/>
      <point x="656" y="13" type="qcurve" smooth="yes"/>
      <point x="721" y="13"/>
      <point x="794" y="92"/>
      <point x="794" y="152" type="qcurve" smooth="yes"/>
      <point x="794" y="582" type="line"/>
      <point x="817" y="582" type="line"/>
      <point x="817" y="152" type="line" smooth="yes"/>
      <point x="817" y="118"/>
      <point x="793" y="58"/>
      <point x="751" y="15"/>
      <point x="692" y="-10"/>
      <point x="656" y="-10" type="qcurve" smooth="yes"/>
      <point x="605" y="-10"/>
      <point x="524" y="38"/>
      <point x="498" y="80" type="qcurve" smooth="yes"/>
      <point x="473" y="122" type="line"/>
      <point x="460" y="0" type="line"/>
      <point x="446" y="0" type="line"/>
      <point x="446" y="445" type="line" smooth="yes"/>
      <point x="446" y="461"/>
      <point x="434" y="496"/>
      <point x="413" y="528"/>
      <point x="385" y="553"/>
      <point x="370" y="560" type="qcurve" smooth="yes"/>
      <point x="367" y="562" type="line"/>
      <point x="282" y="484" type="line"/>
      <point x="197" y="562" type="line"/>
      <point x="194" y="560" type="line" smooth="yes"/>
      <point x="178" y="553"/>
      <point x="151" y="527"/>
      <point x="131" y="496"/>
      <point x="119" y="461"/>
      <point x="119" y="445" type="qcurve" smooth="yes"/>
      <point x="119" y="134" type="line" smooth="yes"/>
      <point x="119" y="113"/>
      <point x="130" y="69"/>
      <point x="154" y="35"/>
      <point x="192" y="13"/>
      <point x="219" y="13" type="qcurve" smooth="yes"/>
      <point x="243" y="13"/>
      <point x="289" y="32"/>
      <point x="309" y="47" type="qcurve"/>
      <point x="324" y="30" type="line"/>
      <point x="303" y="11"/>
      <point x="248" y="-10"/>
      <point x="219" y="-10" type="qcurve" smooth="yes"/>
      <point x="188" y="-10"/>
      <point x="142" y="14"/>
      <point x="111" y="53"/>
      <point x="96" y="106"/>
    </contour>
  </outline>
</glyph>
